<svg width="136" height="811" viewBox="0 0 136 811" fill="none" xmlns="http://www.w3.org/2000/svg">
<mask id="path-1-outside-1_144_1319" maskUnits="userSpaceOnUse" x="0" y="0" width="136" height="811" fill="black">
<rect fill="white" width="136" height="811"/>
<path d="M65.9141 47.7102H79.8567C82.1021 47.7102 84.0343 47.1096 85.6531 45.9086C87.3241 44.6553 88.1596 42.8015 88.1596 40.3472C88.1596 38.154 87.5591 36.6658 86.358 35.8825C85.2092 35.047 83.6426 34.6292 81.6583 34.6292H68.6556L65.9141 47.7102ZM58.7862 25.0731H82.2849C85.1047 25.0731 87.6374 25.2558 89.8828 25.6214C92.1283 25.9869 94.0343 26.6657 95.6008 27.6579C97.1674 28.5979 98.3685 29.9295 99.204 31.6527C100.039 33.3237 100.457 35.4908 100.457 38.154C100.457 39.7206 100.222 41.2611 99.7523 42.7754C99.2823 44.2376 98.5773 45.5692 97.6374 46.7702C96.7497 47.919 95.6531 48.8851 94.3476 49.6684C93.0943 50.4517 91.6322 50.9478 89.9612 51.1566V51.3133C92.6243 52.0444 94.6609 53.4543 96.0708 55.5431C97.533 57.5796 98.264 59.9556 98.264 62.671C98.264 65.6997 97.6635 68.3629 96.4625 70.6606C95.3136 72.9582 93.7471 74.8642 91.7627 76.3786C89.7784 77.8929 87.5068 79.0418 84.9481 79.8251C82.3893 80.6084 79.7 81 76.8802 81H47.1152L58.7862 25.0731ZM60.9011 71.4439H76.3319C79.1517 71.4439 81.4494 70.6867 83.2249 69.1723C85.0525 67.658 85.9664 65.4125 85.9664 62.436C85.9664 60.9739 85.6531 59.825 85.0264 58.9895C84.452 58.154 83.6948 57.5274 82.7549 57.1096C81.8149 56.6397 80.7705 56.3525 79.6217 56.248C78.4729 56.1436 77.3502 56.0914 76.2536 56.0914H64.1909L60.9011 71.4439ZM98.5174 121.58C97.6819 125.601 96.6114 129.151 95.3059 132.232C94.0526 135.313 92.3816 137.898 90.2928 139.987C88.2041 142.023 85.6453 143.59 82.6166 144.687C79.5879 145.731 75.9064 146.253 71.5722 146.253C68.8568 146.253 66.1675 145.966 63.5043 145.392C60.8933 144.817 58.5434 143.903 56.4547 142.65C54.4181 141.345 52.7471 139.648 51.4416 137.559C50.1883 135.418 49.5617 132.807 49.5617 129.726C49.5617 128.316 49.6923 126.932 49.9534 125.574C50.2145 124.164 50.4756 122.781 50.7367 121.423L57.5513 89.0731H69.8489L63.0343 121.423C62.9299 121.893 62.7993 122.441 62.6427 123.068C62.5382 123.642 62.4077 124.269 62.251 124.948C62.1466 125.627 62.0421 126.279 61.9377 126.906C61.8855 127.48 61.8594 128.003 61.8594 128.473C61.8594 129.151 61.9899 129.935 62.251 130.822C62.5643 131.71 63.1126 132.546 63.8959 133.329C64.6792 134.06 65.7497 134.687 67.1074 135.209C68.4651 135.731 70.2145 135.992 72.3555 135.992C74.862 135.992 76.8986 135.679 78.4651 135.052C80.0317 134.373 81.285 133.46 82.2249 132.311C83.2171 131.11 83.9743 129.648 84.4965 127.924C85.0709 126.201 85.5931 124.295 86.0631 122.206L93.0343 89.0731H105.332L98.5174 121.58ZM65.9141 175.71H79.8567C82.1021 175.71 84.0343 175.11 85.6531 173.909C87.3241 172.655 88.1596 170.802 88.1596 168.347C88.1596 166.154 87.5591 164.666 86.358 163.882C85.2092 163.047 83.6426 162.629 81.6583 162.629H68.6556L65.9141 175.71ZM58.7862 153.073H82.2849C85.1047 153.073 87.6374 153.256 89.8828 153.621C92.1283 153.987 94.0343 154.666 95.6008 155.658C97.1674 156.598 98.3685 157.929 99.204 159.653C100.039 161.324 100.457 163.491 100.457 166.154C100.457 167.721 100.222 169.261 99.7523 170.775C99.2823 172.238 98.5773 173.569 97.6374 174.77C96.7497 175.919 95.6531 176.885 94.3476 177.668C93.0943 178.452 91.6322 178.948 89.9612 179.157V179.313C92.6243 180.044 94.6609 181.454 96.0708 183.543C97.533 185.58 98.264 187.956 98.264 190.671C98.264 193.7 97.6635 196.363 96.4625 198.661C95.3136 200.958 93.7471 202.864 91.7627 204.379C89.7784 205.893 87.5068 207.042 84.9481 207.825C82.3893 208.608 79.7 209 76.8802 209H47.1152L58.7862 153.073ZM60.9011 199.444H76.3319C79.1517 199.444 81.4494 198.687 83.2249 197.172C85.0525 195.658 85.9664 193.413 85.9664 190.436C85.9664 188.974 85.6531 187.825 85.0264 186.99C84.452 186.154 83.6948 185.527 82.7549 185.11C81.8149 184.64 80.7705 184.352 79.6217 184.248C78.4729 184.144 77.3502 184.091 76.2536 184.091H64.1909L60.9011 199.444ZM65.9141 239.71H79.8567C82.1021 239.71 84.0343 239.11 85.6531 237.909C87.3241 236.655 88.1596 234.802 88.1596 232.347C88.1596 230.154 87.5591 228.666 86.358 227.882C85.2092 227.047 83.6426 226.629 81.6583 226.629H68.6556L65.9141 239.71ZM58.7862 217.073H82.2849C85.1047 217.073 87.6374 217.256 89.8828 217.621C92.1283 217.987 94.0343 218.666 95.6008 219.658C97.1674 220.598 98.3685 221.929 99.204 223.653C100.039 225.324 100.457 227.491 100.457 230.154C100.457 231.721 100.222 233.261 99.7523 234.775C99.2823 236.238 98.5773 237.569 97.6374 238.77C96.7497 239.919 95.6531 240.885 94.3476 241.668C93.0943 242.452 91.6322 242.948 89.9612 243.157V243.313C92.6243 244.044 94.6609 245.454 96.0708 247.543C97.533 249.58 98.264 251.956 98.264 254.671C98.264 257.7 97.6635 260.363 96.4625 262.661C95.3136 264.958 93.7471 266.864 91.7627 268.379C89.7784 269.893 87.5068 271.042 84.9481 271.825C82.3893 272.608 79.7 273 76.8802 273H47.1152L58.7862 217.073ZM60.9011 263.444H76.3319C79.1517 263.444 81.4494 262.687 83.2249 261.172C85.0525 259.658 85.9664 257.413 85.9664 254.436C85.9664 252.974 85.6531 251.825 85.0264 250.99C84.452 250.154 83.6948 249.527 82.7549 249.11C81.8149 248.64 80.7705 248.352 79.6217 248.248C78.4729 248.144 77.3502 248.091 76.2536 248.091H64.1909L60.9011 263.444ZM64.5614 281.073H76.9374L67.3813 326.661H94.4048L92.2116 337H52.8904L64.5614 281.073ZM60.928 345.073H103.617L101.502 355.412H71.1108L68.6042 367.397H96.7244L94.6878 376.953H66.5677L63.6695 390.661H94.5312L92.3379 401H49.257L60.928 345.073ZM87.8811 459.282H87.7245C85.8968 461.789 83.7558 463.59 81.3015 464.687C78.8472 465.731 76.2884 466.253 73.6253 466.253C65.6879 466.253 59.5521 464.138 55.2179 459.909C50.9359 455.679 48.7949 449.569 48.7949 441.58C48.7949 437.037 49.4999 432.728 50.9098 428.655C52.3198 424.582 54.3302 421.005 56.9412 417.924C59.6044 414.791 62.8159 412.311 66.5756 410.483C70.3877 408.655 74.6435 407.741 79.3433 407.741C82.6331 407.741 85.714 408.133 88.5861 408.916C91.4582 409.7 93.9647 410.901 96.1057 412.52C98.2467 414.138 99.9438 416.201 101.197 418.708C102.45 421.162 103.077 424.112 103.077 427.559H90.7793C90.6227 424.112 89.5522 421.684 87.5678 420.274C85.5835 418.812 82.8681 418.081 79.4216 418.081C76.2885 418.081 73.5469 418.812 71.1971 420.274C68.8994 421.684 66.9934 423.538 65.479 425.835C64.0169 428.081 62.9203 430.614 62.1892 433.433C61.4581 436.201 61.0926 438.916 61.0926 441.58C61.0926 443.512 61.3276 445.339 61.7976 447.063C62.3198 448.786 63.0769 450.326 64.0691 451.684C65.1135 452.99 66.419 454.034 67.9856 454.817C69.6044 455.601 71.5365 455.992 73.7819 455.992C76.1318 455.992 78.1422 455.705 79.8133 455.131C81.5365 454.504 82.9986 453.668 84.1997 452.624C85.4529 451.58 86.4712 450.326 87.2545 448.864C88.09 447.35 88.7689 445.705 89.2911 443.929H76.3668L78.325 434.765H102.059L95.6357 465H87.8811V459.282ZM98.5174 505.58C97.6819 509.601 96.6114 513.151 95.3059 516.232C94.0526 519.313 92.3816 521.898 90.2928 523.987C88.2041 526.023 85.6453 527.59 82.6166 528.687C79.5879 529.731 75.9064 530.253 71.5722 530.253C68.8568 530.253 66.1675 529.966 63.5043 529.392C60.8933 528.817 58.5434 527.903 56.4547 526.65C54.4181 525.345 52.7471 523.648 51.4416 521.559C50.1883 519.418 49.5617 516.807 49.5617 513.726C49.5617 512.316 49.6923 510.932 49.9534 509.574C50.2145 508.164 50.4756 506.781 50.7367 505.423L57.5513 473.073H69.8489L63.0343 505.423C62.9299 505.893 62.7993 506.441 62.6427 507.068C62.5382 507.642 62.4077 508.269 62.251 508.948C62.1466 509.627 62.0421 510.279 61.9377 510.906C61.8855 511.48 61.8594 512.003 61.8594 512.473C61.8594 513.151 61.9899 513.935 62.251 514.822C62.5643 515.71 63.1126 516.546 63.8959 517.329C64.6792 518.06 65.7497 518.687 67.1074 519.209C68.4651 519.731 70.2145 519.992 72.3555 519.992C74.862 519.992 76.8986 519.679 78.4651 519.052C80.0317 518.373 81.285 517.46 82.2249 516.311C83.2171 515.11 83.9743 513.648 84.4965 511.924C85.0709 510.201 85.5931 508.295 86.0631 506.206L93.0343 473.073H105.332L98.5174 505.58ZM75.54 537.073H87.916L76.0883 593H63.7907L75.54 537.073ZM73.4475 612.412H55.9018L58.095 602.073H104.779L102.586 612.412H85.8235L76.2673 658H63.8913L73.4475 612.412ZM75.827 666.073H88.438L97.7592 722H85.5398L83.7383 709.546H62.8244L55.7748 722H42.8505L75.827 666.073ZM67.6808 700.381H82.6417L79.9001 678.136H79.7435L67.6808 700.381ZM65.8358 755.373H77.1935C78.8645 755.373 80.4572 755.217 81.9716 754.903C83.4859 754.538 84.8175 754.016 85.9664 753.337C87.1674 752.606 88.1074 751.692 88.7862 750.595C89.5173 749.446 89.8828 748.089 89.8828 746.522C89.8828 745.008 89.6217 743.807 89.0995 742.919C88.6296 741.979 87.9768 741.274 87.1413 740.804C86.3058 740.334 85.3397 740.021 84.2431 739.864C83.1465 739.708 81.9977 739.629 80.7967 739.629H69.1256L65.8358 755.373ZM58.7862 730.073H85.4964C88.0029 730.021 90.2745 730.256 92.311 730.778C94.3998 731.248 96.1753 732.083 97.6374 733.285C99.0995 734.433 100.222 735.948 101.006 737.828C101.789 739.708 102.18 742.005 102.18 744.721C102.18 746.6 101.867 748.402 101.241 750.125C100.614 751.849 99.7262 753.389 98.5773 754.747C97.4285 756.052 96.0708 757.149 94.5042 758.037C92.9377 758.924 91.2144 759.499 89.3345 759.76V759.916C91.6322 760.647 93.1726 761.927 93.9559 763.755C94.7392 765.53 95.1309 767.54 95.1309 769.786C95.1309 771.039 95.0525 772.554 94.8959 774.329C94.7914 776.052 94.7392 777.775 94.7392 779.499C94.7392 780.752 94.7914 781.953 94.8959 783.102C95.0003 784.198 95.2092 785.164 95.5225 786H83.5382C83.3815 785.321 83.251 784.695 83.1465 784.12C83.0421 783.493 82.9899 782.867 82.9899 782.24C82.9899 780.36 83.0943 778.48 83.3032 776.601C83.5121 774.668 83.6165 772.762 83.6165 770.882C83.6165 769.525 83.4076 768.428 82.9899 767.593C82.6243 766.705 82.076 766 81.345 765.478C80.6661 764.956 79.8306 764.616 78.8384 764.46C77.8463 764.251 76.7497 764.146 75.5486 764.146H63.9559L59.3345 786H47.1152L58.7862 730.073Z"/>
</mask>
<path d="M65.9141 47.7102H79.8567C82.1021 47.7102 84.0343 47.1096 85.6531 45.9086C87.3241 44.6553 88.1596 42.8015 88.1596 40.3472C88.1596 38.154 87.5591 36.6658 86.358 35.8825C85.2092 35.047 83.6426 34.6292 81.6583 34.6292H68.6556L65.9141 47.7102ZM58.7862 25.0731H82.2849C85.1047 25.0731 87.6374 25.2558 89.8828 25.6214C92.1283 25.9869 94.0343 26.6657 95.6008 27.6579C97.1674 28.5979 98.3685 29.9295 99.204 31.6527C100.039 33.3237 100.457 35.4908 100.457 38.154C100.457 39.7206 100.222 41.2611 99.7523 42.7754C99.2823 44.2376 98.5773 45.5692 97.6374 46.7702C96.7497 47.919 95.6531 48.8851 94.3476 49.6684C93.0943 50.4517 91.6322 50.9478 89.9612 51.1566V51.3133C92.6243 52.0444 94.6609 53.4543 96.0708 55.5431C97.533 57.5796 98.264 59.9556 98.264 62.671C98.264 65.6997 97.6635 68.3629 96.4625 70.6606C95.3136 72.9582 93.7471 74.8642 91.7627 76.3786C89.7784 77.8929 87.5068 79.0418 84.9481 79.8251C82.3893 80.6084 79.7 81 76.8802 81H47.1152L58.7862 25.0731ZM60.9011 71.4439H76.3319C79.1517 71.4439 81.4494 70.6867 83.2249 69.1723C85.0525 67.658 85.9664 65.4125 85.9664 62.436C85.9664 60.9739 85.6531 59.825 85.0264 58.9895C84.452 58.154 83.6948 57.5274 82.7549 57.1096C81.8149 56.6397 80.7705 56.3525 79.6217 56.248C78.4729 56.1436 77.3502 56.0914 76.2536 56.0914H64.1909L60.9011 71.4439ZM98.5174 121.58C97.6819 125.601 96.6114 129.151 95.3059 132.232C94.0526 135.313 92.3816 137.898 90.2928 139.987C88.2041 142.023 85.6453 143.59 82.6166 144.687C79.5879 145.731 75.9064 146.253 71.5722 146.253C68.8568 146.253 66.1675 145.966 63.5043 145.392C60.8933 144.817 58.5434 143.903 56.4547 142.65C54.4181 141.345 52.7471 139.648 51.4416 137.559C50.1883 135.418 49.5617 132.807 49.5617 129.726C49.5617 128.316 49.6923 126.932 49.9534 125.574C50.2145 124.164 50.4756 122.781 50.7367 121.423L57.5513 89.0731H69.8489L63.0343 121.423C62.9299 121.893 62.7993 122.441 62.6427 123.068C62.5382 123.642 62.4077 124.269 62.251 124.948C62.1466 125.627 62.0421 126.279 61.9377 126.906C61.8855 127.48 61.8594 128.003 61.8594 128.473C61.8594 129.151 61.9899 129.935 62.251 130.822C62.5643 131.71 63.1126 132.546 63.8959 133.329C64.6792 134.06 65.7497 134.687 67.1074 135.209C68.4651 135.731 70.2145 135.992 72.3555 135.992C74.862 135.992 76.8986 135.679 78.4651 135.052C80.0317 134.373 81.285 133.46 82.2249 132.311C83.2171 131.11 83.9743 129.648 84.4965 127.924C85.0709 126.201 85.5931 124.295 86.0631 122.206L93.0343 89.0731H105.332L98.5174 121.58ZM65.9141 175.71H79.8567C82.1021 175.71 84.0343 175.11 85.6531 173.909C87.3241 172.655 88.1596 170.802 88.1596 168.347C88.1596 166.154 87.5591 164.666 86.358 163.882C85.2092 163.047 83.6426 162.629 81.6583 162.629H68.6556L65.9141 175.71ZM58.7862 153.073H82.2849C85.1047 153.073 87.6374 153.256 89.8828 153.621C92.1283 153.987 94.0343 154.666 95.6008 155.658C97.1674 156.598 98.3685 157.929 99.204 159.653C100.039 161.324 100.457 163.491 100.457 166.154C100.457 167.721 100.222 169.261 99.7523 170.775C99.2823 172.238 98.5773 173.569 97.6374 174.77C96.7497 175.919 95.6531 176.885 94.3476 177.668C93.0943 178.452 91.6322 178.948 89.9612 179.157V179.313C92.6243 180.044 94.6609 181.454 96.0708 183.543C97.533 185.58 98.264 187.956 98.264 190.671C98.264 193.7 97.6635 196.363 96.4625 198.661C95.3136 200.958 93.7471 202.864 91.7627 204.379C89.7784 205.893 87.5068 207.042 84.9481 207.825C82.3893 208.608 79.7 209 76.8802 209H47.1152L58.7862 153.073ZM60.9011 199.444H76.3319C79.1517 199.444 81.4494 198.687 83.2249 197.172C85.0525 195.658 85.9664 193.413 85.9664 190.436C85.9664 188.974 85.6531 187.825 85.0264 186.99C84.452 186.154 83.6948 185.527 82.7549 185.11C81.8149 184.64 80.7705 184.352 79.6217 184.248C78.4729 184.144 77.3502 184.091 76.2536 184.091H64.1909L60.9011 199.444ZM65.9141 239.71H79.8567C82.1021 239.71 84.0343 239.11 85.6531 237.909C87.3241 236.655 88.1596 234.802 88.1596 232.347C88.1596 230.154 87.5591 228.666 86.358 227.882C85.2092 227.047 83.6426 226.629 81.6583 226.629H68.6556L65.9141 239.71ZM58.7862 217.073H82.2849C85.1047 217.073 87.6374 217.256 89.8828 217.621C92.1283 217.987 94.0343 218.666 95.6008 219.658C97.1674 220.598 98.3685 221.929 99.204 223.653C100.039 225.324 100.457 227.491 100.457 230.154C100.457 231.721 100.222 233.261 99.7523 234.775C99.2823 236.238 98.5773 237.569 97.6374 238.77C96.7497 239.919 95.6531 240.885 94.3476 241.668C93.0943 242.452 91.6322 242.948 89.9612 243.157V243.313C92.6243 244.044 94.6609 245.454 96.0708 247.543C97.533 249.58 98.264 251.956 98.264 254.671C98.264 257.7 97.6635 260.363 96.4625 262.661C95.3136 264.958 93.7471 266.864 91.7627 268.379C89.7784 269.893 87.5068 271.042 84.9481 271.825C82.3893 272.608 79.7 273 76.8802 273H47.1152L58.7862 217.073ZM60.9011 263.444H76.3319C79.1517 263.444 81.4494 262.687 83.2249 261.172C85.0525 259.658 85.9664 257.413 85.9664 254.436C85.9664 252.974 85.6531 251.825 85.0264 250.99C84.452 250.154 83.6948 249.527 82.7549 249.11C81.8149 248.64 80.7705 248.352 79.6217 248.248C78.4729 248.144 77.3502 248.091 76.2536 248.091H64.1909L60.9011 263.444ZM64.5614 281.073H76.9374L67.3813 326.661H94.4048L92.2116 337H52.8904L64.5614 281.073ZM60.928 345.073H103.617L101.502 355.412H71.1108L68.6042 367.397H96.7244L94.6878 376.953H66.5677L63.6695 390.661H94.5312L92.3379 401H49.257L60.928 345.073ZM87.8811 459.282H87.7245C85.8968 461.789 83.7558 463.59 81.3015 464.687C78.8472 465.731 76.2884 466.253 73.6253 466.253C65.6879 466.253 59.5521 464.138 55.2179 459.909C50.9359 455.679 48.7949 449.569 48.7949 441.58C48.7949 437.037 49.4999 432.728 50.9098 428.655C52.3198 424.582 54.3302 421.005 56.9412 417.924C59.6044 414.791 62.8159 412.311 66.5756 410.483C70.3877 408.655 74.6435 407.741 79.3433 407.741C82.6331 407.741 85.714 408.133 88.5861 408.916C91.4582 409.7 93.9647 410.901 96.1057 412.52C98.2467 414.138 99.9438 416.201 101.197 418.708C102.45 421.162 103.077 424.112 103.077 427.559H90.7793C90.6227 424.112 89.5522 421.684 87.5678 420.274C85.5835 418.812 82.8681 418.081 79.4216 418.081C76.2885 418.081 73.5469 418.812 71.1971 420.274C68.8994 421.684 66.9934 423.538 65.479 425.835C64.0169 428.081 62.9203 430.614 62.1892 433.433C61.4581 436.201 61.0926 438.916 61.0926 441.58C61.0926 443.512 61.3276 445.339 61.7976 447.063C62.3198 448.786 63.0769 450.326 64.0691 451.684C65.1135 452.99 66.419 454.034 67.9856 454.817C69.6044 455.601 71.5365 455.992 73.7819 455.992C76.1318 455.992 78.1422 455.705 79.8133 455.131C81.5365 454.504 82.9986 453.668 84.1997 452.624C85.4529 451.58 86.4712 450.326 87.2545 448.864C88.09 447.35 88.7689 445.705 89.2911 443.929H76.3668L78.325 434.765H102.059L95.6357 465H87.8811V459.282ZM98.5174 505.58C97.6819 509.601 96.6114 513.151 95.3059 516.232C94.0526 519.313 92.3816 521.898 90.2928 523.987C88.2041 526.023 85.6453 527.59 82.6166 528.687C79.5879 529.731 75.9064 530.253 71.5722 530.253C68.8568 530.253 66.1675 529.966 63.5043 529.392C60.8933 528.817 58.5434 527.903 56.4547 526.65C54.4181 525.345 52.7471 523.648 51.4416 521.559C50.1883 519.418 49.5617 516.807 49.5617 513.726C49.5617 512.316 49.6923 510.932 49.9534 509.574C50.2145 508.164 50.4756 506.781 50.7367 505.423L57.5513 473.073H69.8489L63.0343 505.423C62.9299 505.893 62.7993 506.441 62.6427 507.068C62.5382 507.642 62.4077 508.269 62.251 508.948C62.1466 509.627 62.0421 510.279 61.9377 510.906C61.8855 511.48 61.8594 512.003 61.8594 512.473C61.8594 513.151 61.9899 513.935 62.251 514.822C62.5643 515.71 63.1126 516.546 63.8959 517.329C64.6792 518.06 65.7497 518.687 67.1074 519.209C68.4651 519.731 70.2145 519.992 72.3555 519.992C74.862 519.992 76.8986 519.679 78.4651 519.052C80.0317 518.373 81.285 517.46 82.2249 516.311C83.2171 515.11 83.9743 513.648 84.4965 511.924C85.0709 510.201 85.5931 508.295 86.0631 506.206L93.0343 473.073H105.332L98.5174 505.58ZM75.54 537.073H87.916L76.0883 593H63.7907L75.54 537.073ZM73.4475 612.412H55.9018L58.095 602.073H104.779L102.586 612.412H85.8235L76.2673 658H63.8913L73.4475 612.412ZM75.827 666.073H88.438L97.7592 722H85.5398L83.7383 709.546H62.8244L55.7748 722H42.8505L75.827 666.073ZM67.6808 700.381H82.6417L79.9001 678.136H79.7435L67.6808 700.381ZM65.8358 755.373H77.1935C78.8645 755.373 80.4572 755.217 81.9716 754.903C83.4859 754.538 84.8175 754.016 85.9664 753.337C87.1674 752.606 88.1074 751.692 88.7862 750.595C89.5173 749.446 89.8828 748.089 89.8828 746.522C89.8828 745.008 89.6217 743.807 89.0995 742.919C88.6296 741.979 87.9768 741.274 87.1413 740.804C86.3058 740.334 85.3397 740.021 84.2431 739.864C83.1465 739.708 81.9977 739.629 80.7967 739.629H69.1256L65.8358 755.373ZM58.7862 730.073H85.4964C88.0029 730.021 90.2745 730.256 92.311 730.778C94.3998 731.248 96.1753 732.083 97.6374 733.285C99.0995 734.433 100.222 735.948 101.006 737.828C101.789 739.708 102.18 742.005 102.18 744.721C102.18 746.6 101.867 748.402 101.241 750.125C100.614 751.849 99.7262 753.389 98.5773 754.747C97.4285 756.052 96.0708 757.149 94.5042 758.037C92.9377 758.924 91.2144 759.499 89.3345 759.76V759.916C91.6322 760.647 93.1726 761.927 93.9559 763.755C94.7392 765.53 95.1309 767.54 95.1309 769.786C95.1309 771.039 95.0525 772.554 94.8959 774.329C94.7914 776.052 94.7392 777.775 94.7392 779.499C94.7392 780.752 94.7914 781.953 94.8959 783.102C95.0003 784.198 95.2092 785.164 95.5225 786H83.5382C83.3815 785.321 83.251 784.695 83.1465 784.12C83.0421 783.493 82.9899 782.867 82.9899 782.24C82.9899 780.36 83.0943 778.48 83.3032 776.601C83.5121 774.668 83.6165 772.762 83.6165 770.882C83.6165 769.525 83.4076 768.428 82.9899 767.593C82.6243 766.705 82.076 766 81.345 765.478C80.6661 764.956 79.8306 764.616 78.8384 764.46C77.8463 764.251 76.7497 764.146 75.5486 764.146H63.9559L59.3345 786H47.1152L58.7862 730.073Z" fill="#4192F5"/>
<path d="M65.9141 47.7102L42.2182 42.7439L36.1032 71.9209H65.9141V47.7102ZM85.6531 45.9086L100.079 65.3522L100.129 65.3148L100.18 65.2772L85.6531 45.9086ZM86.358 35.8825L72.1179 55.4626L72.6163 55.8251L73.1324 56.1617L86.358 35.8825ZM68.6556 34.6292V10.4184H48.993L44.9597 29.663L68.6556 34.6292ZM58.7862 25.0731V0.862252H39.1062L35.0859 20.1272L58.7862 25.0731ZM89.8828 25.6214L85.9927 49.5176L85.9928 49.5176L89.8828 25.6214ZM95.6008 27.6579L82.6468 48.1117L82.8938 48.2681L83.1445 48.4185L95.6008 27.6579ZM99.204 31.6527L77.4188 42.2152L77.4832 42.3481L77.5492 42.4801L99.204 31.6527ZM99.7523 42.7754L122.802 50.1841L122.839 50.068L122.875 49.9515L99.7523 42.7754ZM97.6374 46.7702L78.5713 31.8489L78.5253 31.9076L78.4798 31.9666L97.6374 46.7702ZM94.3476 49.6684L81.8912 28.9078L81.7025 29.021L81.5159 29.1377L94.3476 49.6684ZM89.9612 51.1566L86.9582 27.1328L65.7504 29.7838V51.1566H89.9612ZM89.9612 51.3133H65.7504V69.7736L83.5521 74.6604L89.9612 51.3133ZM96.0708 55.5431L76.0037 69.0883L76.1996 69.3785L76.4038 69.663L96.0708 55.5431ZM96.4625 70.6606L75.0062 59.4448L74.9052 59.6381L74.8077 59.8332L96.4625 70.6606ZM84.9481 79.8251L77.8612 56.6747L77.8612 56.6747L84.9481 79.8251ZM47.1152 81L23.4149 76.0542L17.3304 105.211H47.1152V81ZM60.9011 71.4439L37.2277 66.371L30.9526 95.6547H60.9011V71.4439ZM83.2249 69.1723L67.7779 50.5295L67.6448 50.6397L67.5133 50.7519L83.2249 69.1723ZM85.0264 58.9895L65.0757 72.7057L65.3584 73.1168L65.6578 73.516L85.0264 58.9895ZM82.7549 57.1096L71.9275 78.7644L72.4194 79.0104L72.922 79.2338L82.7549 57.1096ZM79.6217 56.248L81.8137 32.1366L81.8137 32.1366L79.6217 56.248ZM64.1909 56.0914V31.8806H44.6185L40.5175 51.0185L64.1909 56.0914ZM65.9141 71.9209H79.8567V23.4994H65.9141V71.9209ZM79.8567 71.9209C86.6758 71.9209 93.8143 70.0002 100.079 65.3522L71.2271 26.4649C74.2542 24.2191 77.5285 23.4994 79.8567 23.4994V71.9209ZM100.18 65.2772C109.061 58.6162 112.37 48.9129 112.37 40.3472H63.9488C63.9488 38.841 64.2081 36.4087 65.4604 33.6301C66.7694 30.7257 68.7846 28.2964 71.1266 26.5399L100.18 65.2772ZM112.37 40.3472C112.37 34.5408 110.741 22.8799 99.5836 15.6032L73.1324 56.1617C64.3769 50.4516 63.9488 41.7672 63.9488 40.3472H112.37ZM100.598 16.3023C93.9572 11.4725 86.7831 10.4184 81.6583 10.4184V58.84C80.5021 58.84 76.4612 58.6214 72.1179 55.4626L100.598 16.3023ZM81.6583 10.4184H68.6556V58.84H81.6583V10.4184ZM44.9597 29.663L42.2182 42.7439L89.6101 52.6764L92.3516 39.5954L44.9597 29.663ZM58.7862 49.2838H82.2849V0.862252H58.7862V49.2838ZM82.2849 49.2838C84.0967 49.2838 85.2951 49.404 85.9927 49.5176L93.7729 1.72512C89.9797 1.10763 86.1128 0.862252 82.2849 0.862252V49.2838ZM85.9928 49.5176C85.727 49.4743 84.3884 49.2147 82.6468 48.1117L108.555 7.20416C103.68 4.11682 98.5295 2.49945 93.7729 1.72512L85.9928 49.5176ZM83.1445 48.4185C80.4763 46.8176 78.5316 44.5104 77.4188 42.2152L120.989 21.0901C118.205 15.3485 113.859 10.3781 108.057 6.89733L83.1445 48.4185ZM77.5492 42.4801C76.8198 41.0212 76.5065 39.8181 76.3708 39.114C76.2362 38.4159 76.2464 38.0568 76.2464 38.154H124.668C124.668 33.2249 123.935 26.978 120.859 20.8253L77.5492 42.4801ZM76.2464 38.154C76.2464 37.2577 76.3871 36.3801 76.6294 35.5994L122.875 49.9515C124.057 46.142 124.668 42.1835 124.668 38.154H76.2464ZM76.7029 35.3667C77.1008 34.1287 77.7381 32.9135 78.5713 31.8489L116.704 61.6915C119.417 58.2248 121.464 54.3464 122.802 50.1841L76.7029 35.3667ZM78.4798 31.9666C79.5242 30.615 80.739 29.5991 81.8912 28.9078L106.804 70.429C110.567 68.171 113.975 65.2231 116.795 61.5739L78.4798 31.9666ZM81.5159 29.1377C83.6361 27.8125 85.6251 27.2994 86.9582 27.1328L92.9641 75.1805C97.6393 74.5961 102.553 73.0908 107.179 70.1991L81.5159 29.1377ZM65.7504 51.1566V51.3133H114.172V51.1566H65.7504ZM83.5521 74.6604C82.5503 74.3854 81.1749 73.8426 79.7049 72.825C78.2075 71.7883 76.9511 70.4918 76.0037 69.0883L116.138 41.9978C111.174 34.6432 104.036 30.0705 96.3702 27.9662L83.5521 74.6604ZM76.4038 69.663C75.619 68.5699 74.9877 67.3121 74.5756 65.9725C74.169 64.6513 74.0532 63.5054 74.0532 62.671H122.475C122.475 55.3335 120.403 47.9216 115.738 41.4232L76.4038 69.663ZM74.0532 62.671C74.0532 62.4515 74.1158 61.1482 75.0062 59.4448L117.919 81.8763C121.211 75.5776 122.475 68.948 122.475 62.671H74.0532ZM74.8077 59.8332C75.0103 59.4278 75.3083 58.9438 75.7221 58.4403C76.1376 57.9348 76.601 57.4937 77.0747 57.1322L106.451 95.625C111.456 91.8056 115.368 86.987 118.117 81.488L74.8077 59.8332ZM77.0747 57.1322C77.2845 56.972 77.4828 56.8527 77.6442 56.7711C77.8031 56.6907 77.8862 56.6671 77.8612 56.6747L92.0349 102.975C97.14 101.413 102.025 99.0029 106.451 95.625L77.0747 57.1322ZM77.8612 56.6747C77.7198 56.718 77.4278 56.7892 76.8802 56.7892V105.211C81.9723 105.211 87.0589 104.499 92.0349 102.975L77.8612 56.6747ZM76.8802 56.7892H47.1152V105.211H76.8802V56.7892ZM70.8154 85.9458L82.4864 30.0189L35.0859 20.1272L23.4149 76.0542L70.8154 85.9458ZM60.9011 95.6547H76.3319V47.2331H60.9011V95.6547ZM76.3319 95.6547C83.6588 95.6547 91.9123 93.5838 98.9364 87.5927L67.5133 50.7519C69.1024 49.3965 70.8705 48.449 72.5923 47.8816C74.2552 47.3336 75.584 47.2331 76.3319 47.2331V95.6547ZM98.6718 87.8151C107.422 80.565 110.177 70.6282 110.177 62.436H61.7556C61.7556 61.487 61.8982 59.5799 62.8562 57.2261C63.8712 54.732 65.5488 52.3765 67.7779 50.5295L98.6718 87.8151ZM110.177 62.436C110.177 57.78 109.203 50.8736 104.395 44.4631L65.6578 73.516C62.1031 68.7765 61.7556 64.1677 61.7556 62.436H110.177ZM104.977 45.2734C101.832 40.6992 97.5493 37.1906 92.5878 34.9855L72.922 79.2338C69.8404 77.8642 67.0716 75.6088 65.0757 72.7057L104.977 45.2734ZM93.5823 35.4548C89.69 33.5087 85.6748 32.4877 81.8137 32.1366L77.4298 80.3594C75.8663 80.2173 73.9399 79.7706 71.9275 78.7644L93.5823 35.4548ZM81.8137 32.1366C79.9735 31.9694 78.1186 31.8806 76.2536 31.8806V80.3022C76.5818 80.3022 76.9723 80.3178 77.4298 80.3594L81.8137 32.1366ZM76.2536 31.8806H64.1909V80.3022H76.2536V31.8806ZM40.5175 51.0185L37.2277 66.371L84.5744 76.5167L87.8643 61.1642L40.5175 51.0185ZM98.5174 121.58L74.8217 116.612L74.8173 116.633L74.8129 116.654L98.5174 121.58ZM95.3059 132.232L73.0138 122.787L72.9455 122.948L72.8795 123.11L95.3059 132.232ZM90.2928 139.987L107.194 157.322L107.304 157.215L107.412 157.107L90.2928 139.987ZM82.6166 144.687L90.5091 167.575L90.6845 167.514L90.8589 167.451L82.6166 144.687ZM63.5043 145.392L58.3023 169.037L58.351 169.048L58.3997 169.058L63.5043 145.392ZM56.4547 142.65L43.3889 163.033L43.6908 163.226L43.9983 163.411L56.4547 142.65ZM51.4416 137.559L30.5473 149.79L30.7248 150.093L30.9109 150.39L51.4416 137.559ZM49.9534 125.574L73.7285 130.147L73.7442 130.065L73.7594 129.983L49.9534 125.574ZM50.7367 121.423L27.0458 116.432L27.0018 116.641L26.9615 116.851L50.7367 121.423ZM57.5513 89.0731V64.8623H37.9092L33.8604 84.0825L57.5513 89.0731ZM69.8489 89.0731L93.5398 94.0636L99.6912 64.8623H69.8489V89.0731ZM63.0343 121.423L86.6686 126.675L86.6976 126.544L86.7252 126.414L63.0343 121.423ZM62.6427 123.068L39.1547 117.196L38.9635 117.961L38.8224 118.737L62.6427 123.068ZM62.251 124.948L38.6602 119.504L38.4583 120.379L38.3218 121.266L62.251 124.948ZM61.9377 126.906L38.0563 122.926L37.908 123.816L37.8263 124.714L61.9377 126.906ZM62.251 130.822L39.024 137.654L39.2059 138.272L39.4205 138.88L62.251 130.822ZM63.8959 133.329L46.7763 150.449L47.0714 150.744L47.3765 151.028L63.8959 133.329ZM67.1074 135.209L58.4163 157.806L58.4163 157.806L67.1074 135.209ZM78.4651 135.052L87.4568 157.531L87.776 157.404L88.0915 157.267L78.4651 135.052ZM82.2249 132.311L63.5593 116.891L63.523 116.935L63.4868 116.979L82.2249 132.311ZM84.4965 127.924L61.5281 120.268L61.4228 120.584L61.3262 120.903L84.4965 127.924ZM86.0631 122.206L109.683 127.521L109.72 127.356L109.755 127.191L86.0631 122.206ZM93.0343 89.0731V64.8623H73.3875L69.3423 84.0882L93.0343 89.0731ZM105.332 89.0731L129.028 94.0406L135.145 64.8623H105.332V89.0731ZM74.8129 116.654C74.2298 119.46 73.5814 121.447 73.0138 122.787L117.598 141.678C119.641 136.856 121.134 131.741 122.222 126.505L74.8129 116.654ZM72.8795 123.11C72.7782 123.359 72.7308 123.415 72.7805 123.338C72.8337 123.255 72.9599 123.081 73.1732 122.867L107.412 157.107C112.057 152.462 115.415 147.053 117.732 141.355L72.8795 123.11ZM73.3913 122.652C73.6752 122.375 73.9497 122.173 74.1654 122.041C74.3753 121.913 74.4663 121.889 74.3742 121.922L90.8589 167.451C96.7874 165.305 102.392 162.004 107.194 157.322L73.3913 122.652ZM74.7241 121.798C74.8796 121.745 74.7333 121.813 74.1838 121.891C73.6357 121.969 72.783 122.042 71.5722 122.042V170.464C77.7084 170.464 84.222 169.743 90.5091 167.575L74.7241 121.798ZM71.5722 122.042C70.5785 122.042 69.6002 121.939 68.6088 121.725L58.3997 169.058C62.7347 169.993 67.135 170.464 71.5722 170.464V122.042ZM68.7063 121.746C68.5452 121.711 68.5049 121.69 68.5588 121.711C68.6151 121.733 68.7412 121.788 68.911 121.89L43.9983 163.411C48.5413 166.136 53.3813 167.954 58.3023 169.037L68.7063 121.746ZM69.5204 122.268C70.5566 122.932 71.4146 123.835 71.9723 124.727L30.9109 150.39C34.0795 155.46 38.2797 159.758 43.3889 163.033L69.5204 122.268ZM72.3359 125.328C73.7219 127.696 73.7725 129.539 73.7725 129.726H25.3509C25.3509 136.075 26.6548 143.14 30.5473 149.79L72.3359 125.328ZM73.7725 129.726C73.7725 129.82 73.7629 129.968 73.7285 130.147L26.1782 121.002C25.6217 123.896 25.3509 126.812 25.3509 129.726H73.7725ZM73.7594 129.983C74.0108 128.626 74.2616 127.296 74.5118 125.995L26.9615 116.851C26.6895 118.265 26.4182 119.703 26.1473 121.166L73.7594 129.983ZM74.4275 126.414L81.2421 94.0636L33.8604 84.0825L27.0458 116.432L74.4275 126.414ZM57.5513 113.284H69.8489V64.8623H57.5513V113.284ZM46.1581 84.0825L39.3435 116.432L86.7252 126.414L93.5398 94.0636L46.1581 84.0825ZM39.4 116.171C39.3541 116.378 39.276 116.711 39.1547 117.196L86.1306 128.94C86.3226 128.172 86.5056 127.408 86.6686 126.675L39.4 116.171ZM38.8224 118.737C38.7972 118.876 38.7474 119.126 38.6602 119.504L85.8418 130.392C86.068 129.412 86.2793 128.409 86.4629 127.399L38.8224 118.737ZM38.3218 121.266C38.2314 121.853 38.1429 122.406 38.0563 122.926L85.8191 130.886C85.9414 130.152 86.0617 129.4 86.1803 128.629L38.3218 121.266ZM37.8263 124.714C37.7221 125.861 37.6486 127.129 37.6486 128.473H86.0702C86.0702 128.683 86.0644 128.84 86.0596 128.937C86.0546 129.036 86.0497 129.091 86.0491 129.098L37.8263 124.714ZM37.6486 128.473C37.6486 132.13 38.3296 135.293 39.024 137.654L85.478 123.991C85.6502 124.576 86.0702 126.173 86.0702 128.473H37.6486ZM39.4205 138.88C41.1316 143.728 43.8851 147.557 46.7763 150.449L81.0156 116.209C82.3402 117.534 83.9971 119.692 85.0816 122.765L39.4205 138.88ZM47.3765 151.028C51.0853 154.49 55.1318 156.543 58.4163 157.806L75.7986 112.612C76.3677 112.831 78.2732 113.63 80.4154 115.63L47.3765 151.028ZM58.4163 157.806C63.5293 159.772 68.5168 160.203 72.3555 160.203V111.781C72.2416 111.781 72.4878 111.773 73.0117 111.851C73.5261 111.928 74.5172 112.119 75.7986 112.612L58.4163 157.806ZM72.3555 160.203C76.5855 160.203 81.995 159.716 87.4568 157.531L69.4735 112.573C70.726 112.072 71.6644 111.892 72.0814 111.828C72.5086 111.762 72.6298 111.781 72.3555 111.781V160.203ZM88.0915 157.267C92.666 155.285 97.234 152.2 100.963 147.642L63.4868 116.979C65.3359 114.719 67.3974 113.462 68.8387 112.837L88.0915 157.267ZM100.891 147.73C104.219 143.701 106.358 139.265 107.667 134.946L61.3262 120.903C61.5908 120.03 62.2151 118.518 63.5593 116.891L100.891 147.73ZM107.465 135.58C108.336 132.967 109.066 130.265 109.683 127.521L62.4428 116.892C62.1203 118.325 61.8057 119.435 61.5281 120.268L107.465 135.58ZM109.755 127.191L116.726 94.0579L69.3423 84.0882L62.371 117.221L109.755 127.191ZM93.0343 113.284H105.332V64.8623H93.0343V113.284ZM81.6363 84.1055L74.8217 116.612L122.213 126.547L129.028 94.0406L81.6363 84.1055ZM65.9141 175.71L42.2182 170.744L36.1032 199.921H65.9141V175.71ZM85.6531 173.909L100.079 193.352L100.129 193.315L100.18 193.277L85.6531 173.909ZM86.358 163.882L72.1179 183.463L72.6163 183.825L73.1324 184.162L86.358 163.882ZM68.6556 162.629V138.418H48.993L44.9597 157.663L68.6556 162.629ZM58.7862 153.073V128.862H39.1062L35.0859 148.127L58.7862 153.073ZM89.8828 153.621L85.9927 177.518L85.9928 177.518L89.8828 153.621ZM95.6008 155.658L82.6468 176.112L82.8938 176.268L83.1445 176.418L95.6008 155.658ZM99.204 159.653L77.4188 170.215L77.4832 170.348L77.5492 170.48L99.204 159.653ZM99.7523 170.775L122.802 178.184L122.839 178.068L122.875 177.951L99.7523 170.775ZM97.6374 174.77L78.5713 159.849L78.5253 159.908L78.4798 159.967L97.6374 174.77ZM94.3476 177.668L81.8912 156.908L81.7025 157.021L81.5159 157.138L94.3476 177.668ZM89.9612 179.157L86.9582 155.133L65.7504 157.784V179.157H89.9612ZM89.9612 179.313H65.7504V197.774L83.5521 202.66L89.9612 179.313ZM96.0708 183.543L76.0037 197.088L76.1996 197.379L76.4038 197.663L96.0708 183.543ZM96.4625 198.661L75.0062 187.445L74.9052 187.638L74.8077 187.833L96.4625 198.661ZM84.9481 207.825L77.8612 184.675L77.8612 184.675L84.9481 207.825ZM47.1152 209L23.4149 204.054L17.3304 233.211H47.1152V209ZM60.9011 199.444L37.2277 194.371L30.9526 223.655H60.9011V199.444ZM83.2249 197.172L67.7779 178.529L67.6448 178.64L67.5133 178.752L83.2249 197.172ZM85.0264 186.99L65.0757 200.706L65.3584 201.117L65.6578 201.516L85.0264 186.99ZM82.7549 185.11L71.9275 206.764L72.4194 207.01L72.922 207.234L82.7549 185.11ZM79.6217 184.248L81.8137 160.137L81.8137 160.137L79.6217 184.248ZM64.1909 184.091V159.881H44.6185L40.5175 179.018L64.1909 184.091ZM65.9141 199.921H79.8567V151.499H65.9141V199.921ZM79.8567 199.921C86.6758 199.921 93.8143 198 100.079 193.352L71.2271 154.465C74.2542 152.219 77.5285 151.499 79.8567 151.499V199.921ZM100.18 193.277C109.061 186.616 112.37 176.913 112.37 168.347H63.9488C63.9488 166.841 64.2081 164.409 65.4604 161.63C66.7694 158.726 68.7846 156.296 71.1266 154.54L100.18 193.277ZM112.37 168.347C112.37 162.541 110.741 150.88 99.5836 143.603L73.1324 184.162C64.3769 178.452 63.9488 169.767 63.9488 168.347H112.37ZM100.598 144.302C93.9572 139.473 86.7831 138.418 81.6583 138.418V186.84C80.5021 186.84 76.4612 186.621 72.1179 183.463L100.598 144.302ZM81.6583 138.418H68.6556V186.84H81.6583V138.418ZM44.9597 157.663L42.2182 170.744L89.6101 180.676L92.3516 167.595L44.9597 157.663ZM58.7862 177.284H82.2849V128.862H58.7862V177.284ZM82.2849 177.284C84.0967 177.284 85.2951 177.404 85.9927 177.518L93.7729 129.725C89.9797 129.108 86.1128 128.862 82.2849 128.862V177.284ZM85.9928 177.518C85.727 177.474 84.3884 177.215 82.6468 176.112L108.555 135.204C103.68 132.117 98.5295 130.499 93.7729 129.725L85.9928 177.518ZM83.1445 176.418C80.4763 174.818 78.5316 172.51 77.4188 170.215L120.989 149.09C118.205 143.349 113.859 138.378 108.057 134.897L83.1445 176.418ZM77.5492 170.48C76.8198 169.021 76.5065 167.818 76.3708 167.114C76.2362 166.416 76.2464 166.057 76.2464 166.154H124.668C124.668 161.225 123.935 154.978 120.859 148.825L77.5492 170.48ZM76.2464 166.154C76.2464 165.258 76.3871 164.38 76.6294 163.599L122.875 177.951C124.057 174.142 124.668 170.183 124.668 166.154H76.2464ZM76.7029 163.367C77.1008 162.129 77.7381 160.913 78.5713 159.849L116.704 189.692C119.417 186.225 121.464 182.346 122.802 178.184L76.7029 163.367ZM78.4798 159.967C79.5242 158.615 80.739 157.599 81.8912 156.908L106.804 198.429C110.567 196.171 113.975 193.223 116.795 189.574L78.4798 159.967ZM81.5159 157.138C83.6361 155.813 85.6251 155.299 86.9582 155.133L92.9641 203.18C97.6393 202.596 102.553 201.091 107.179 198.199L81.5159 157.138ZM65.7504 179.157V179.313H114.172V179.157H65.7504ZM83.5521 202.66C82.5503 202.385 81.1749 201.843 79.7049 200.825C78.2075 199.788 76.9511 198.492 76.0037 197.088L116.138 169.998C111.174 162.643 104.036 158.07 96.3702 155.966L83.5521 202.66ZM76.4038 197.663C75.619 196.57 74.9877 195.312 74.5756 193.973C74.169 192.651 74.0532 191.505 74.0532 190.671H122.475C122.475 183.333 120.403 175.922 115.738 169.423L76.4038 197.663ZM74.0532 190.671C74.0532 190.451 74.1158 189.148 75.0062 187.445L117.919 209.876C121.211 203.578 122.475 196.948 122.475 190.671H74.0532ZM74.8077 187.833C75.0103 187.428 75.3083 186.944 75.7221 186.44C76.1376 185.935 76.601 185.494 77.0747 185.132L106.451 223.625C111.456 219.806 115.368 214.987 118.117 209.488L74.8077 187.833ZM77.0747 185.132C77.2845 184.972 77.4828 184.853 77.6442 184.771C77.8031 184.691 77.8862 184.667 77.8612 184.675L92.0349 230.975C97.14 229.413 102.025 227.003 106.451 223.625L77.0747 185.132ZM77.8612 184.675C77.7198 184.718 77.4278 184.789 76.8802 184.789V233.211C81.9723 233.211 87.0589 232.499 92.0349 230.975L77.8612 184.675ZM76.8802 184.789H47.1152V233.211H76.8802V184.789ZM70.8154 213.946L82.4864 158.019L35.0859 148.127L23.4149 204.054L70.8154 213.946ZM60.9011 223.655H76.3319V175.233H60.9011V223.655ZM76.3319 223.655C83.6588 223.655 91.9123 221.584 98.9364 215.593L67.5133 178.752C69.1024 177.397 70.8705 176.449 72.5923 175.882C74.2552 175.334 75.584 175.233 76.3319 175.233V223.655ZM98.6718 215.815C107.422 208.565 110.177 198.628 110.177 190.436H61.7556C61.7556 189.487 61.8982 187.58 62.8562 185.226C63.8712 182.732 65.5488 180.376 67.7779 178.529L98.6718 215.815ZM110.177 190.436C110.177 185.78 109.203 178.874 104.395 172.463L65.6578 201.516C62.1031 196.776 61.7556 192.168 61.7556 190.436H110.177ZM104.977 173.273C101.832 168.699 97.5493 165.191 92.5878 162.986L72.922 207.234C69.8404 205.864 67.0716 203.609 65.0757 200.706L104.977 173.273ZM93.5823 163.455C89.69 161.509 85.6748 160.488 81.8137 160.137L77.4298 208.359C75.8663 208.217 73.9399 207.771 71.9275 206.764L93.5823 163.455ZM81.8137 160.137C79.9735 159.969 78.1186 159.881 76.2536 159.881V208.302C76.5818 208.302 76.9723 208.318 77.4298 208.359L81.8137 160.137ZM76.2536 159.881H64.1909V208.302H76.2536V159.881ZM40.5175 179.018L37.2277 194.371L84.5744 204.517L87.8643 189.164L40.5175 179.018ZM65.9141 239.71L42.2182 234.744L36.1032 263.921H65.9141V239.71ZM85.6531 237.909L100.079 257.352L100.129 257.315L100.18 257.277L85.6531 237.909ZM86.358 227.882L72.1179 247.463L72.6163 247.825L73.1324 248.162L86.358 227.882ZM68.6556 226.629V202.418H48.993L44.9597 221.663L68.6556 226.629ZM58.7862 217.073V192.862H39.1062L35.0859 212.127L58.7862 217.073ZM89.8828 217.621L85.9927 241.518L85.9928 241.518L89.8828 217.621ZM95.6008 219.658L82.6468 240.112L82.8938 240.268L83.1445 240.418L95.6008 219.658ZM99.204 223.653L77.4188 234.215L77.4832 234.348L77.5492 234.48L99.204 223.653ZM99.7523 234.775L122.802 242.184L122.839 242.068L122.875 241.951L99.7523 234.775ZM97.6374 238.77L78.5713 223.849L78.5253 223.908L78.4798 223.967L97.6374 238.77ZM94.3476 241.668L81.8912 220.908L81.7025 221.021L81.5159 221.138L94.3476 241.668ZM89.9612 243.157L86.9582 219.133L65.7504 221.784V243.157H89.9612ZM89.9612 243.313H65.7504V261.774L83.5521 266.66L89.9612 243.313ZM96.0708 247.543L76.0037 261.088L76.1996 261.379L76.4038 261.663L96.0708 247.543ZM96.4625 262.661L75.0062 251.445L74.9052 251.638L74.8077 251.833L96.4625 262.661ZM84.9481 271.825L77.8612 248.675L77.8612 248.675L84.9481 271.825ZM47.1152 273L23.4149 268.054L17.3304 297.211H47.1152V273ZM60.9011 263.444L37.2277 258.371L30.9526 287.655H60.9011V263.444ZM83.2249 261.172L67.7779 242.529L67.6448 242.64L67.5133 242.752L83.2249 261.172ZM85.0264 250.99L65.0757 264.706L65.3584 265.117L65.6578 265.516L85.0264 250.99ZM82.7549 249.11L71.9275 270.764L72.4194 271.01L72.922 271.234L82.7549 249.11ZM79.6217 248.248L81.8137 224.137L81.8137 224.137L79.6217 248.248ZM64.1909 248.091V223.881H44.6185L40.5175 243.018L64.1909 248.091ZM65.9141 263.921H79.8567V215.499H65.9141V263.921ZM79.8567 263.921C86.6758 263.921 93.8143 262 100.079 257.352L71.2271 218.465C74.2542 216.219 77.5285 215.499 79.8567 215.499V263.921ZM100.18 257.277C109.061 250.616 112.37 240.913 112.37 232.347H63.9488C63.9488 230.841 64.2081 228.409 65.4604 225.63C66.7694 222.726 68.7846 220.296 71.1266 218.54L100.18 257.277ZM112.37 232.347C112.37 226.541 110.741 214.88 99.5836 207.603L73.1324 248.162C64.3769 242.452 63.9488 233.767 63.9488 232.347H112.37ZM100.598 208.302C93.9572 203.473 86.7831 202.418 81.6583 202.418V250.84C80.5021 250.84 76.4612 250.621 72.1179 247.463L100.598 208.302ZM81.6583 202.418H68.6556V250.84H81.6583V202.418ZM44.9597 221.663L42.2182 234.744L89.6101 244.676L92.3516 231.595L44.9597 221.663ZM58.7862 241.284H82.2849V192.862H58.7862V241.284ZM82.2849 241.284C84.0967 241.284 85.2951 241.404 85.9927 241.518L93.7729 193.725C89.9797 193.108 86.1128 192.862 82.2849 192.862V241.284ZM85.9928 241.518C85.727 241.474 84.3884 241.215 82.6468 240.112L108.555 199.204C103.68 196.117 98.5295 194.499 93.7729 193.725L85.9928 241.518ZM83.1445 240.418C80.4763 238.818 78.5316 236.51 77.4188 234.215L120.989 213.09C118.205 207.349 113.859 202.378 108.057 198.897L83.1445 240.418ZM77.5492 234.48C76.8198 233.021 76.5065 231.818 76.3708 231.114C76.2362 230.416 76.2464 230.057 76.2464 230.154H124.668C124.668 225.225 123.935 218.978 120.859 212.825L77.5492 234.48ZM76.2464 230.154C76.2464 229.258 76.3871 228.38 76.6294 227.599L122.875 241.951C124.057 238.142 124.668 234.183 124.668 230.154H76.2464ZM76.7029 227.367C77.1008 226.129 77.7381 224.913 78.5713 223.849L116.704 253.692C119.417 250.225 121.464 246.346 122.802 242.184L76.7029 227.367ZM78.4798 223.967C79.5242 222.615 80.739 221.599 81.8912 220.908L106.804 262.429C110.567 260.171 113.975 257.223 116.795 253.574L78.4798 223.967ZM81.5159 221.138C83.6361 219.813 85.6251 219.299 86.9582 219.133L92.9641 267.18C97.6393 266.596 102.553 265.091 107.179 262.199L81.5159 221.138ZM65.7504 243.157V243.313H114.172V243.157H65.7504ZM83.5521 266.66C82.5503 266.385 81.1749 265.843 79.7049 264.825C78.2075 263.788 76.9511 262.492 76.0037 261.088L116.138 233.998C111.174 226.643 104.036 222.07 96.3702 219.966L83.5521 266.66ZM76.4038 261.663C75.619 260.57 74.9877 259.312 74.5756 257.973C74.169 256.651 74.0532 255.505 74.0532 254.671H122.475C122.475 247.333 120.403 239.922 115.738 233.423L76.4038 261.663ZM74.0532 254.671C74.0532 254.451 74.1158 253.148 75.0062 251.445L117.919 273.876C121.211 267.578 122.475 260.948 122.475 254.671H74.0532ZM74.8077 251.833C75.0103 251.428 75.3083 250.944 75.7221 250.44C76.1376 249.935 76.601 249.494 77.0747 249.132L106.451 287.625C111.456 283.806 115.368 278.987 118.117 273.488L74.8077 251.833ZM77.0747 249.132C77.2845 248.972 77.4828 248.853 77.6442 248.771C77.8031 248.691 77.8862 248.667 77.8612 248.675L92.0349 294.975C97.14 293.413 102.025 291.003 106.451 287.625L77.0747 249.132ZM77.8612 248.675C77.7198 248.718 77.4278 248.789 76.8802 248.789V297.211C81.9723 297.211 87.0589 296.499 92.0349 294.975L77.8612 248.675ZM76.8802 248.789H47.1152V297.211H76.8802V248.789ZM70.8154 277.946L82.4864 222.019L35.0859 212.127L23.4149 268.054L70.8154 277.946ZM60.9011 287.655H76.3319V239.233H60.9011V287.655ZM76.3319 287.655C83.6588 287.655 91.9123 285.584 98.9364 279.593L67.5133 242.752C69.1024 241.397 70.8705 240.449 72.5923 239.882C74.2552 239.334 75.584 239.233 76.3319 239.233V287.655ZM98.6718 279.815C107.422 272.565 110.177 262.628 110.177 254.436H61.7556C61.7556 253.487 61.8982 251.58 62.8562 249.226C63.8712 246.732 65.5488 244.376 67.7779 242.529L98.6718 279.815ZM110.177 254.436C110.177 249.78 109.203 242.874 104.395 236.463L65.6578 265.516C62.1031 260.776 61.7556 256.168 61.7556 254.436H110.177ZM104.977 237.273C101.832 232.699 97.5493 229.191 92.5878 226.986L72.922 271.234C69.8404 269.864 67.0716 267.609 65.0757 264.706L104.977 237.273ZM93.5823 227.455C89.69 225.509 85.6748 224.488 81.8137 224.137L77.4298 272.359C75.8663 272.217 73.9399 271.771 71.9275 270.764L93.5823 227.455ZM81.8137 224.137C79.9735 223.969 78.1186 223.881 76.2536 223.881V272.302C76.5818 272.302 76.9723 272.318 77.4298 272.359L81.8137 224.137ZM76.2536 223.881H64.1909V272.302H76.2536V223.881ZM40.5175 243.018L37.2277 258.371L84.5744 268.517L87.8643 253.164L40.5175 243.018ZM64.5614 281.073V256.862H44.8815L40.8612 276.127L64.5614 281.073ZM76.9374 281.073L100.633 286.04L106.75 256.862H76.9374V281.073ZM67.3813 326.661L43.6855 321.693L37.5691 350.871H67.3813V326.661ZM94.4048 326.661L118.089 331.684L124.29 302.45H94.4048V326.661ZM92.2116 337V361.211H111.825L115.895 342.024L92.2116 337ZM52.8904 337L29.1902 332.054L23.1056 361.211H52.8904V337ZM64.5614 305.284H76.9374V256.862H64.5614V305.284ZM53.2416 276.106L43.6855 321.693L91.0771 331.628L100.633 286.04L53.2416 276.106ZM67.3813 350.871H94.4048V302.45H67.3813V350.871ZM70.721 321.637L68.5278 331.976L115.895 342.024L118.089 331.684L70.721 321.637ZM92.2116 312.789H52.8904V361.211H92.2116V312.789ZM76.5906 341.946L88.2617 286.019L40.8612 276.127L29.1902 332.054L76.5906 341.946ZM60.928 345.073V320.862H41.248L37.2278 340.127L60.928 345.073ZM103.617 345.073L127.337 349.925L133.282 320.862H103.617V345.073ZM101.502 355.412V379.623H121.262L125.222 360.264L101.502 355.412ZM71.1108 355.412V331.202H51.4398L47.4127 350.456L71.1108 355.412ZM68.6042 367.397L44.9062 362.44L38.8059 391.608H68.6042V367.397ZM96.7244 367.397L120.403 372.443L126.639 343.186H96.7244V367.397ZM94.6878 376.953V401.164H114.283L118.367 381.999L94.6878 376.953ZM66.5677 376.953V352.742H46.9405L42.8805 371.945L66.5677 376.953ZM63.6695 390.661L39.9824 385.652L33.8046 414.871H63.6695V390.661ZM94.5312 390.661L118.215 395.684L124.416 366.45H94.5312V390.661ZM92.3379 401V425.211H111.952L116.022 406.024L92.3379 401ZM49.257 401L25.5567 396.054L19.4722 425.211H49.257V401ZM60.928 369.284H103.617V320.862H60.928V369.284ZM79.8977 340.221L77.7828 350.561L125.222 360.264L127.337 349.925L79.8977 340.221ZM101.502 331.202H71.1108V379.623H101.502V331.202ZM47.4127 350.456L44.9062 362.44L92.3023 372.353L94.8088 360.369L47.4127 350.456ZM68.6042 391.608H96.7244V343.186H68.6042V391.608ZM73.0453 362.35L71.0088 371.907L118.367 381.999L120.403 372.443L73.0453 362.35ZM94.6878 352.742H66.5677V401.164H94.6878V352.742ZM42.8805 371.945L39.9824 385.652L87.3567 395.669L90.2548 381.961L42.8805 371.945ZM63.6695 414.871H94.5312V366.45H63.6695V414.871ZM70.8473 385.637L68.6541 395.976L116.022 406.024L118.215 395.684L70.8473 385.637ZM92.3379 376.789H49.257V425.211H92.3379V376.789ZM72.9572 405.946L84.6282 350.019L37.2278 340.127L25.5567 396.054L72.9572 405.946ZM87.8811 459.282H112.092V435.071H87.8811V459.282ZM87.7245 459.282V435.071H75.4146L68.162 445.018L87.7245 459.282ZM81.3015 464.687L90.7814 486.964L90.9805 486.88L91.1781 486.791L81.3015 464.687ZM55.2179 459.909L38.2037 477.133L38.2558 477.184L38.3083 477.236L55.2179 459.909ZM50.9098 428.655L73.7887 436.575L73.7887 436.575L50.9098 428.655ZM56.9412 417.924L38.494 402.244L38.4824 402.258L38.4709 402.271L56.9412 417.924ZM66.5756 410.483L56.1086 388.652L56.0497 388.68L55.9909 388.709L66.5756 410.483ZM96.1057 412.52L81.504 431.831L81.504 431.832L96.1057 412.52ZM101.197 418.708L79.5423 429.535L79.5882 429.627L79.6348 429.718L101.197 418.708ZM103.077 427.559V451.77H127.288V427.559H103.077ZM90.7793 427.559L66.5935 428.658L67.644 451.77H90.7793V427.559ZM87.5678 420.274L73.206 439.765L73.3743 439.889L73.5448 440.01L87.5678 420.274ZM71.1971 420.274L83.8597 440.91L83.9238 440.87L83.9877 440.83L71.1971 420.274ZM65.479 425.835L45.264 412.512L45.2271 412.568L45.1904 412.624L65.479 425.835ZM62.1892 433.433L85.5971 439.617L85.6113 439.563L85.6252 439.509L62.1892 433.433ZM61.7976 447.063L38.4399 453.433L38.529 453.76L38.6272 454.084L61.7976 447.063ZM64.0691 451.684L44.5215 465.969L44.8334 466.396L45.1637 466.808L64.0691 451.684ZM67.9856 454.817L57.1582 476.472L57.2988 476.542L57.4403 476.611L67.9856 454.817ZM79.8133 455.131L87.6837 478.026L87.886 477.957L88.0871 477.884L79.8133 455.131ZM84.1997 452.624L68.7003 434.025L68.505 434.188L68.3131 434.354L84.1997 452.624ZM87.2545 448.864L66.0561 437.169L65.9838 437.299L65.9132 437.431L87.2545 448.864ZM89.2911 443.929L112.518 450.761L121.648 419.719H89.2911V443.929ZM76.3668 443.929L52.6904 438.87L46.4362 468.14H76.3668V443.929ZM78.325 434.765V410.554H58.7409L54.6487 429.706L78.325 434.765ZM102.059 434.765L125.741 439.796L131.953 410.554H102.059V434.765ZM95.6357 465V489.211H115.244L119.318 470.031L95.6357 465ZM87.8811 465H63.6704V489.211H87.8811V465ZM87.8811 435.071H87.7245V483.493H87.8811V435.071ZM68.162 445.018C68.4355 444.643 69.462 443.459 71.425 442.582L91.1781 486.791C98.0497 483.721 103.358 478.934 107.287 473.546L68.162 445.018ZM71.8216 442.409C72.0564 442.309 72.3555 442.21 72.7005 442.14C73.0457 442.069 73.3631 442.042 73.6253 442.042V490.464C79.5514 490.464 85.3341 489.282 90.7814 486.964L71.8216 442.409ZM73.6253 442.042C71.764 442.042 70.9956 441.79 70.9599 441.778C70.9544 441.776 71.1063 441.829 71.3537 441.979C71.606 442.132 71.8763 442.336 72.1275 442.582L38.3083 477.236C48.4363 487.12 61.4016 490.464 73.6253 490.464V442.042ZM72.2322 442.684C72.5315 442.98 72.783 443.301 72.9735 443.608C73.1607 443.909 73.2369 444.112 73.2492 444.147C73.2634 444.188 73.0057 443.462 73.0057 441.58H24.5842C24.5842 453.845 27.9591 467.013 38.2037 477.133L72.2322 442.684ZM73.0057 441.58C73.0057 439.585 73.3073 437.966 73.7887 436.575L28.031 420.736C25.6925 427.491 24.5842 434.488 24.5842 441.58H73.0057ZM73.7887 436.575C74.2861 435.138 74.8625 434.225 75.4115 433.577L38.4709 402.271C33.7979 407.786 30.3534 414.027 28.031 420.736L73.7887 436.575ZM75.3883 433.604C75.844 433.068 76.3634 432.645 77.1604 432.257L55.9909 388.709C49.2683 391.976 43.3647 396.514 38.494 402.244L75.3883 433.604ZM77.0427 432.314C77.2382 432.22 77.858 431.952 79.3433 431.952V383.531C71.429 383.531 63.5371 385.09 56.1086 388.652L77.0427 432.314ZM79.3433 431.952C80.7044 431.952 81.6247 432.113 82.2158 432.274L94.9564 385.559C89.8034 384.153 84.5618 383.531 79.3433 383.531V431.952ZM82.2158 432.274C82.3437 432.309 82.3093 432.311 82.1581 432.238C82.0024 432.164 81.7706 432.033 81.504 431.831L110.707 393.208C105.851 389.535 100.48 387.065 94.9564 385.559L82.2158 432.274ZM81.504 431.832C81.0679 431.502 80.6517 431.105 80.2884 430.663C79.9277 430.225 79.6882 429.827 79.5423 429.535L122.852 407.88C120.008 402.191 115.953 397.174 110.707 393.208L81.504 431.832ZM79.6348 429.718C78.7654 428.015 78.8662 427.002 78.8662 427.559H127.288C127.288 421.223 126.135 414.308 122.759 407.697L79.6348 429.718ZM103.077 403.348H90.7793V451.77H103.077V403.348ZM114.965 426.459C114.619 418.837 111.896 407.86 101.591 400.538L73.5448 440.01C70.6599 437.96 68.7677 435.329 67.7055 432.919C66.7313 430.709 66.6123 429.072 66.5935 428.658L114.965 426.459ZM101.93 400.783C94.4176 395.248 86.0312 393.87 79.4216 393.87V442.292C79.705 442.292 76.7494 442.376 73.206 439.765L101.93 400.783ZM79.4216 393.87C72.3798 393.87 65.0838 395.563 58.4065 399.718L83.9877 440.83C83.0796 441.395 82.1366 441.787 81.2538 442.023C80.3904 442.253 79.7445 442.292 79.4216 442.292V393.87ZM58.5344 399.639C53.15 402.943 48.6881 407.317 45.264 412.512L85.694 439.159C85.5222 439.42 85.2686 439.743 84.9245 440.078C84.5792 440.413 84.2122 440.693 83.8597 440.91L58.5344 399.639ZM45.1904 412.624C42.1814 417.245 40.0839 422.225 38.7532 427.357L85.6252 439.509C85.694 439.244 85.7529 439.096 85.7775 439.039C85.8011 438.984 85.8013 438.995 85.7676 439.047L45.1904 412.624ZM38.7813 427.25C37.5569 431.886 36.8818 436.68 36.8818 441.58H85.3034C85.3034 441.153 85.3594 440.516 85.5971 439.617L38.7813 427.25ZM36.8818 441.58C36.8818 445.489 37.3595 449.472 38.4399 453.433L85.1553 440.692C85.2957 441.207 85.3034 441.534 85.3034 441.58H36.8818ZM38.6272 454.084C39.8835 458.23 41.8113 462.26 44.5215 465.969L83.6167 437.399C84.3426 438.393 84.756 439.342 84.9679 440.041L38.6272 454.084ZM45.1637 466.808C48.5008 470.98 52.611 474.198 57.1582 476.472L78.813 433.162C80.227 433.869 81.7262 434.999 82.9746 436.56L45.1637 466.808ZM57.4403 476.611C63.0604 479.33 68.7695 480.203 73.7819 480.203V431.781C74.3035 431.781 76.1484 431.871 78.5308 433.024L57.4403 476.611ZM73.7819 480.203C77.9812 480.203 82.7998 479.705 87.6837 478.026L71.9428 432.235C72.7475 431.958 73.3397 431.85 73.6282 431.809C73.9169 431.768 73.9848 431.781 73.7819 431.781V480.203ZM88.0871 477.884C92.1826 476.394 96.3308 474.159 100.086 470.894L68.3131 434.354C69.6665 433.178 70.8904 432.613 71.5394 432.377L88.0871 477.884ZM99.6991 471.223C103.383 468.154 106.369 464.454 108.596 460.297L65.9132 437.431C66.5735 436.199 67.5233 435.006 68.7003 434.025L99.6991 471.223ZM108.453 460.56C110.197 457.399 111.533 454.109 112.518 450.761L66.0641 437.098C66.0334 437.202 66.0128 437.253 66.0105 437.259C66.0083 437.264 66.0217 437.231 66.0561 437.169L108.453 460.56ZM89.2911 419.719H76.3668V468.14H89.2911V419.719ZM100.043 448.989L102.001 439.824L54.6487 429.706L52.6904 438.87L100.043 448.989ZM78.325 458.976H102.059V410.554H78.325V458.976ZM78.3764 429.734L71.9534 459.969L119.318 470.031L125.741 439.796L78.3764 429.734ZM95.6357 440.789H87.8811V489.211H95.6357V440.789ZM112.092 465V459.282H63.6704V465H112.092ZM98.5174 505.58L74.8217 500.612L74.8173 500.633L74.8129 500.654L98.5174 505.58ZM95.3059 516.232L73.0138 506.787L72.9455 506.948L72.8795 507.11L95.3059 516.232ZM90.2928 523.987L107.194 541.322L107.304 541.215L107.412 541.107L90.2928 523.987ZM82.6166 528.687L90.5091 551.575L90.6845 551.514L90.8589 551.451L82.6166 528.687ZM63.5043 529.392L58.3023 553.037L58.351 553.048L58.3997 553.058L63.5043 529.392ZM56.4547 526.65L43.3889 547.033L43.6908 547.226L43.9983 547.411L56.4547 526.65ZM51.4416 521.559L30.5473 533.79L30.7248 534.093L30.9109 534.39L51.4416 521.559ZM49.9534 509.574L73.7285 514.147L73.7442 514.065L73.7594 513.983L49.9534 509.574ZM50.7367 505.423L27.0458 500.432L27.0018 500.641L26.9615 500.851L50.7367 505.423ZM57.5513 473.073V448.862H37.9092L33.8604 468.082L57.5513 473.073ZM69.8489 473.073L93.5398 478.064L99.6912 448.862H69.8489V473.073ZM63.0343 505.423L86.6686 510.675L86.6976 510.544L86.7252 510.414L63.0343 505.423ZM62.6427 507.068L39.1547 501.196L38.9635 501.961L38.8224 502.737L62.6427 507.068ZM62.251 508.948L38.6602 503.504L38.4583 504.379L38.3218 505.266L62.251 508.948ZM61.9377 510.906L38.0563 506.926L37.908 507.816L37.8263 508.714L61.9377 510.906ZM62.251 514.822L39.024 521.654L39.2059 522.272L39.4205 522.88L62.251 514.822ZM63.8959 517.329L46.7763 534.449L47.0714 534.744L47.3765 535.028L63.8959 517.329ZM67.1074 519.209L58.4163 541.806L58.4163 541.806L67.1074 519.209ZM78.4651 519.052L87.4568 541.531L87.776 541.404L88.0915 541.267L78.4651 519.052ZM82.2249 516.311L63.5593 500.891L63.523 500.935L63.4868 500.979L82.2249 516.311ZM84.4965 511.924L61.5281 504.268L61.4228 504.584L61.3262 504.903L84.4965 511.924ZM86.0631 506.206L109.683 511.521L109.72 511.356L109.755 511.191L86.0631 506.206ZM93.0343 473.073V448.862H73.3875L69.3423 468.088L93.0343 473.073ZM105.332 473.073L129.028 478.041L135.145 448.862H105.332V473.073ZM74.8129 500.654C74.2298 503.46 73.5814 505.447 73.0138 506.787L117.598 525.678C119.641 520.856 121.134 515.741 122.222 510.505L74.8129 500.654ZM72.8795 507.11C72.7782 507.359 72.7308 507.415 72.7805 507.338C72.8337 507.255 72.9599 507.081 73.1732 506.867L107.412 541.107C112.057 536.462 115.415 531.053 117.732 525.355L72.8795 507.11ZM73.3913 506.652C73.6752 506.375 73.9497 506.173 74.1654 506.041C74.3753 505.913 74.4663 505.889 74.3742 505.922L90.8589 551.451C96.7874 549.305 102.392 546.004 107.194 541.322L73.3913 506.652ZM74.7241 505.798C74.8796 505.745 74.7333 505.813 74.1838 505.891C73.6357 505.969 72.783 506.042 71.5722 506.042V554.464C77.7084 554.464 84.222 553.743 90.5091 551.575L74.7241 505.798ZM71.5722 506.042C70.5785 506.042 69.6002 505.939 68.6088 505.725L58.3997 553.058C62.7347 553.993 67.135 554.464 71.5722 554.464V506.042ZM68.7063 505.746C68.5452 505.711 68.5049 505.69 68.5588 505.711C68.6151 505.733 68.7412 505.788 68.911 505.89L43.9983 547.411C48.5413 550.136 53.3813 551.954 58.3023 553.037L68.7063 505.746ZM69.5204 506.268C70.5566 506.932 71.4146 507.835 71.9723 508.727L30.9109 534.39C34.0795 539.46 38.2797 543.758 43.3889 547.033L69.5204 506.268ZM72.3359 509.328C73.7219 511.696 73.7725 513.539 73.7725 513.726H25.3509C25.3509 520.075 26.6548 527.14 30.5473 533.79L72.3359 509.328ZM73.7725 513.726C73.7725 513.82 73.7629 513.968 73.7285 514.147L26.1782 505.002C25.6217 507.896 25.3509 510.812 25.3509 513.726H73.7725ZM73.7594 513.983C74.0108 512.626 74.2616 511.296 74.5118 509.995L26.9615 500.851C26.6895 502.265 26.4182 503.703 26.1473 505.166L73.7594 513.983ZM74.4275 510.414L81.2421 478.064L33.8604 468.082L27.0458 500.432L74.4275 510.414ZM57.5513 497.284H69.8489V448.862H57.5513V497.284ZM46.1581 468.082L39.3435 500.432L86.7252 510.414L93.5398 478.064L46.1581 468.082ZM39.4 500.171C39.3541 500.378 39.276 500.711 39.1547 501.196L86.1306 512.94C86.3226 512.172 86.5056 511.408 86.6686 510.675L39.4 500.171ZM38.8224 502.737C38.7972 502.876 38.7474 503.126 38.6602 503.504L85.8418 514.392C86.068 513.412 86.2793 512.409 86.4629 511.399L38.8224 502.737ZM38.3218 505.266C38.2314 505.853 38.1429 506.406 38.0563 506.926L85.8191 514.886C85.9414 514.152 86.0617 513.4 86.1803 512.629L38.3218 505.266ZM37.8263 508.714C37.7221 509.861 37.6486 511.129 37.6486 512.473H86.0702C86.0702 512.683 86.0644 512.84 86.0596 512.937C86.0546 513.036 86.0497 513.091 86.0491 513.098L37.8263 508.714ZM37.6486 512.473C37.6486 516.13 38.3296 519.293 39.024 521.654L85.478 507.991C85.6502 508.576 86.0702 510.173 86.0702 512.473H37.6486ZM39.4205 522.88C41.1316 527.728 43.8851 531.557 46.7763 534.449L81.0156 500.209C82.3402 501.534 83.9971 503.692 85.0816 506.765L39.4205 522.88ZM47.3765 535.028C51.0853 538.49 55.1318 540.543 58.4163 541.806L75.7986 496.612C76.3677 496.831 78.2732 497.63 80.4154 499.63L47.3765 535.028ZM58.4163 541.806C63.5293 543.772 68.5168 544.203 72.3555 544.203V495.781C72.2416 495.781 72.4878 495.773 73.0117 495.851C73.5261 495.928 74.5172 496.119 75.7986 496.612L58.4163 541.806ZM72.3555 544.203C76.5855 544.203 81.995 543.716 87.4568 541.531L69.4735 496.573C70.726 496.072 71.6644 495.892 72.0814 495.828C72.5086 495.762 72.6298 495.781 72.3555 495.781V544.203ZM88.0915 541.267C92.666 539.285 97.234 536.2 100.963 531.642L63.4868 500.979C65.3359 498.719 67.3974 497.462 68.8387 496.837L88.0915 541.267ZM100.891 531.73C104.219 527.701 106.358 523.265 107.667 518.946L61.3262 504.903C61.5908 504.03 62.2151 502.518 63.5593 500.891L100.891 531.73ZM107.465 519.58C108.336 516.967 109.066 514.265 109.683 511.521L62.4428 500.892C62.1203 502.325 61.8057 503.435 61.5281 504.268L107.465 519.58ZM109.755 511.191L116.726 478.058L69.3423 468.088L62.371 501.221L109.755 511.191ZM93.0343 497.284H105.332V448.862H93.0343V497.284ZM81.6363 468.106L74.8217 500.612L122.213 510.547L129.028 478.041L81.6363 468.106ZM75.54 537.073V512.862H55.887L51.8465 532.095L75.54 537.073ZM87.916 537.073L111.603 542.082L117.783 512.862H87.916V537.073ZM76.0883 593V617.211H95.7144L99.7752 598.009L76.0883 593ZM63.7907 593L40.0971 588.022L33.9651 617.211H63.7907V593ZM75.54 561.284H87.916V512.862H75.54V561.284ZM64.2291 532.064L52.4015 587.991L99.7752 598.009L111.603 542.082L64.2291 532.064ZM76.0883 568.789H63.7907V617.211H76.0883V568.789ZM87.4843 597.978L99.2336 542.051L51.8465 532.095L40.0971 588.022L87.4843 597.978ZM73.4475 612.412L97.1433 617.38L103.26 588.202H73.4475V612.412ZM55.9018 612.412L32.218 607.389L26.0167 636.623H55.9018V612.412ZM58.095 602.073V577.862H38.4811L34.4112 597.049L58.095 602.073ZM104.779 602.073L128.463 607.097L134.664 577.862H104.779V602.073ZM102.586 612.412V636.623H122.2L126.27 617.436L102.586 612.412ZM85.8235 612.412V588.202H66.1616L62.1277 607.445L85.8235 612.412ZM76.2673 658V682.211H95.9292L99.9631 662.967L76.2673 658ZM63.8913 658L40.1956 653.033L34.0792 682.211H63.8913V658ZM73.4475 588.202H55.9018V636.623H73.4475V588.202ZM79.5856 617.436L81.7788 607.097L34.4112 597.049L32.218 607.389L79.5856 617.436ZM58.095 626.284H104.779V577.862H58.095V626.284ZM81.0953 597.049L78.9021 607.389L126.27 617.436L128.463 607.097L81.0953 597.049ZM102.586 588.202H85.8235V636.623H102.586V588.202ZM62.1277 607.445L52.5716 653.033L99.9631 662.967L109.519 617.38L62.1277 607.445ZM76.2673 633.789H63.8913V682.211H76.2673V633.789ZM87.5871 662.967L97.1433 617.38L49.7517 607.445L40.1956 653.033L87.5871 662.967ZM75.827 666.073V641.862H61.9965L54.9717 653.776L75.827 666.073ZM88.438 666.073L112.319 662.093L108.948 641.862H88.438V666.073ZM97.7592 722V746.211H126.339L121.641 718.02L97.7592 722ZM85.5398 722L61.5784 725.466L64.5792 746.211H85.5398V722ZM83.7383 709.546L107.7 706.08L104.699 685.335H83.7383V709.546ZM62.8244 709.546V685.335H48.7083L41.7548 697.619L62.8244 709.546ZM55.7748 722V746.211H69.8909L76.8444 733.926L55.7748 722ZM42.8505 722L21.9952 709.703L0.468825 746.211H42.8505V722ZM67.6808 700.381L46.3977 688.84L27.0112 724.592H67.6808V700.381ZM82.6417 700.381V724.592H110.019L106.671 697.42L82.6417 700.381ZM79.9001 678.136L103.929 675.174L101.31 653.925H79.9001V678.136ZM79.7435 678.136V653.925H65.3307L58.4604 666.595L79.7435 678.136ZM75.827 690.284H88.438V641.862H75.827V690.284ZM64.5566 670.053L73.8778 725.98L121.641 718.02L112.319 662.093L64.5566 670.053ZM97.7592 697.789H85.5398V746.211H97.7592V697.789ZM109.501 718.534L107.7 706.08L59.7769 713.012L61.5784 725.466L109.501 718.534ZM83.7383 685.335H62.8244V733.756H83.7383V685.335ZM41.7548 697.619L34.7052 710.074L76.8444 733.926L83.894 721.472L41.7548 697.619ZM55.7748 697.789H42.8505V746.211H55.7748V697.789ZM63.7058 734.297L96.6824 678.37L54.9717 653.776L21.9952 709.703L63.7058 734.297ZM67.6808 724.592H82.6417V676.17H67.6808V724.592ZM106.671 697.42L103.929 675.174L55.8711 681.097L58.6127 703.343L106.671 697.42ZM79.9001 653.925H79.7435V702.347H79.9001V653.925ZM58.4604 666.595L46.3977 688.84L88.9639 711.922L101.027 689.677L58.4604 666.595ZM65.8358 755.373L42.1369 750.421L36.0431 779.584H65.8358V755.373ZM81.9716 754.903L86.8768 778.612L87.266 778.532L87.6524 778.438L81.9716 754.903ZM85.9664 753.337L98.2831 774.18L98.4194 774.1L98.5547 774.018L85.9664 753.337ZM88.7862 750.595L68.3605 737.597L68.2798 737.724L68.2006 737.852L88.7862 750.595ZM89.0995 742.919L67.4447 753.746L67.8134 754.484L68.2314 755.194L89.0995 742.919ZM87.1413 740.804L75.2717 761.906L75.2717 761.906L87.1413 740.804ZM84.2431 739.864L87.6671 715.897L87.667 715.897L84.2431 739.864ZM69.1256 739.629V715.418H49.4509L45.4267 734.677L69.1256 739.629ZM58.7862 730.073V705.862H39.1062L35.0859 725.127L58.7862 730.073ZM85.4964 730.073V754.284H85.7486L86.0007 754.279L85.4964 730.073ZM92.311 730.778L86.2977 754.23L86.6458 754.319L86.9965 754.398L92.311 730.778ZM97.6374 733.285L82.2698 751.993L82.4729 752.16L82.6794 752.322L97.6374 733.285ZM101.006 737.828L123.354 728.516L123.354 728.516L101.006 737.828ZM101.241 750.125L78.4874 741.851L78.4874 741.851L101.241 750.125ZM98.5773 754.747L116.753 770.741L116.908 770.565L117.06 770.385L98.5773 754.747ZM94.5042 758.037L106.44 779.1L106.44 779.1L94.5042 758.037ZM89.3345 759.76L86.0039 735.779L65.1237 738.679V759.76H89.3345ZM89.3345 759.916H65.1237V777.62L81.9937 782.988L89.3345 759.916ZM93.9559 763.755L71.7027 773.292L71.7532 773.41L71.805 773.527L93.9559 763.755ZM94.8959 774.329L70.7788 772.201L70.7496 772.532L70.7294 772.864L94.8959 774.329ZM94.8959 783.102L70.7845 785.294L70.7892 785.346L70.7941 785.397L94.8959 783.102ZM95.5225 786V810.211H130.459L118.192 777.499L95.5225 786ZM83.5382 786L59.9474 791.444L64.2782 810.211H83.5382V786ZM83.1465 784.12L59.2651 788.1L59.2944 788.276L59.3262 788.451L83.1465 784.12ZM83.3032 776.601L107.366 779.274L107.37 779.238L107.374 779.203L83.3032 776.601ZM82.9899 767.593L60.6027 776.811L60.9395 777.629L61.3351 778.42L82.9899 767.593ZM81.345 765.478L66.5834 784.668L66.9235 784.929L67.2727 785.179L81.345 765.478ZM78.8384 764.46L73.8507 788.151L74.4538 788.278L75.0625 788.374L78.8384 764.46ZM63.9559 764.146V739.935H44.3295L40.2689 759.137L63.9559 764.146ZM59.3345 786V810.211H78.9609L83.0214 791.009L59.3345 786ZM47.1152 786L23.4149 781.054L17.3304 810.211H47.1152V786ZM65.8358 779.584H77.1935V731.163H65.8358V779.584ZM77.1935 779.584C80.3813 779.584 83.6252 779.285 86.8768 778.612L77.0664 731.195C77.1754 731.172 77.2459 731.164 77.2714 731.161C77.2963 731.159 77.2722 731.163 77.1935 731.163V779.584ZM87.6524 778.438C91.1193 777.601 94.7559 776.265 98.2831 774.18L73.6496 732.493C74.8792 731.766 75.8526 731.474 76.2908 731.368L87.6524 778.438ZM98.5547 774.018C102.71 771.489 106.512 767.958 109.372 763.339L68.2006 737.852C69.7027 735.425 71.6252 733.723 73.378 732.656L98.5547 774.018ZM109.212 763.593C112.77 758.002 114.094 751.984 114.094 746.522H65.672C65.672 744.193 66.2647 740.89 68.3605 737.597L109.212 763.593ZM114.094 746.522C114.094 742.588 113.473 736.603 109.968 730.644L68.2314 755.194C65.7702 751.01 65.672 747.427 65.672 746.522H114.094ZM110.754 732.092C108.339 727.261 104.466 722.771 99.0109 719.703L75.2717 761.906C71.4881 759.777 68.92 756.697 67.4447 753.746L110.754 732.092ZM99.0109 719.703C95.1888 717.553 91.2766 716.412 87.6671 715.897L80.8192 763.832C79.4029 763.629 77.4227 763.116 75.2717 761.906L99.0109 719.703ZM87.667 715.897C85.3462 715.565 83.0485 715.418 80.7967 715.418V763.84C80.8711 763.84 80.9088 763.842 80.9122 763.843C80.9154 763.843 80.8834 763.841 80.8192 763.832L87.667 715.897ZM80.7967 715.418H69.1256V763.84H80.7967V715.418ZM45.4267 734.677L42.1369 750.421L89.5348 760.325L92.8246 744.581L45.4267 734.677ZM58.7862 754.284H85.4964V705.862H58.7862V754.284ZM86.0007 754.279C86.3496 754.271 86.5388 754.287 86.5887 754.292C86.6371 754.297 86.5303 754.29 86.2977 754.23L98.3244 707.326C93.7973 706.165 89.2871 705.778 84.9921 705.868L86.0007 754.279ZM86.9965 754.398C85.8855 754.148 84.0932 753.491 82.2698 751.993L113.005 714.576C108.257 710.676 102.914 708.348 97.6256 707.158L86.9965 754.398ZM82.6794 752.322C80.5836 750.675 79.3101 748.707 78.6571 747.139L123.354 728.516C121.134 723.189 117.615 718.192 112.595 714.247L82.6794 752.322ZM78.6571 747.139C78.2544 746.173 78.088 745.427 78.0202 745.029C77.9532 744.636 77.9697 744.509 77.9697 744.721H126.391C126.391 739.816 125.702 734.152 123.354 728.516L78.6571 747.139ZM77.9697 744.721C77.9697 743.851 78.1253 742.847 78.4874 741.851L123.994 758.399C125.609 753.957 126.391 749.35 126.391 744.721H77.9697ZM78.4874 741.851C78.8074 740.971 79.3392 740.001 80.0952 739.108L117.06 770.385C120.113 766.777 122.42 762.726 123.994 758.399L78.4874 741.851ZM80.402 738.752C81.0987 737.961 81.8711 737.368 82.568 736.973L106.44 779.1C110.271 776.93 113.758 774.144 116.753 770.741L80.402 738.752ZM82.568 736.973C83.802 736.273 85.0227 735.915 86.0039 735.779L92.6652 783.74C97.4062 783.082 102.073 781.575 106.44 779.1L82.568 736.973ZM65.1237 759.76V759.916H113.545V759.76H65.1237ZM81.9937 782.988C80.7642 782.596 78.8078 781.763 76.7448 780.049C74.5874 778.258 72.8323 775.927 71.7027 773.292L116.209 754.217C112.072 744.564 104.117 739.213 96.6753 736.845L81.9937 782.988ZM71.805 773.527C71.033 771.777 70.9201 770.381 70.9201 769.786H119.342C119.342 764.7 118.445 759.283 116.107 753.982L71.805 773.527ZM70.9201 769.786C70.9201 770.102 70.8967 770.865 70.7788 772.201L119.013 776.457C119.208 774.242 119.342 771.976 119.342 769.786H70.9201ZM70.7294 772.864C70.5955 775.074 70.5284 777.286 70.5284 779.499H118.95C118.95 778.265 118.987 777.03 119.062 775.794L70.7294 772.864ZM70.5284 779.499C70.5284 781.422 70.6084 783.357 70.7845 785.294L119.007 780.91C118.974 780.549 118.95 780.082 118.95 779.499H70.5284ZM70.7941 785.397C71.0555 788.141 71.6404 791.267 72.8532 794.501L118.192 777.499C118.778 779.062 118.945 780.255 118.998 780.806L70.7941 785.397ZM95.5225 761.789H83.5382V810.211H95.5225V761.789ZM107.129 780.556C107.042 780.178 106.992 779.928 106.967 779.789L59.3262 788.451C59.5099 789.461 59.7212 790.464 59.9474 791.444L107.129 780.556ZM107.028 780.14C107.14 780.81 107.201 781.515 107.201 782.24H58.7791C58.7791 784.219 58.9445 786.176 59.2651 788.1L107.028 780.14ZM107.201 782.24C107.201 781.259 107.255 780.272 107.366 779.274L59.2405 773.927C58.9335 776.689 58.7791 779.462 58.7791 782.24H107.201ZM107.374 779.203C107.673 776.435 107.827 773.66 107.827 770.882H59.4057C59.4057 771.864 59.3512 772.901 59.2326 773.998L107.374 779.203ZM107.827 770.882C107.827 767.345 107.33 762.136 104.645 756.765L61.3351 778.42C59.4851 774.72 59.4057 771.704 59.4057 770.882H107.827ZM105.377 758.374C103.404 753.582 100.106 749.126 95.4172 745.777L67.2727 785.179C64.0462 782.874 61.8451 779.828 60.6027 776.811L105.377 758.374ZM96.1065 746.288C91.7047 742.902 86.9125 741.224 82.6144 740.545L75.0625 788.374C72.7487 788.009 69.6276 787.01 66.5834 784.668L96.1065 746.288ZM83.8261 740.768C80.9263 740.158 78.1282 739.935 75.5486 739.935V788.357C75.3711 788.357 74.7662 788.344 73.8507 788.151L83.8261 740.768ZM75.5486 739.935H63.9559V788.357H75.5486V739.935ZM40.2689 759.137L35.6475 780.991L83.0214 791.009L87.6429 769.155L40.2689 759.137ZM59.3345 761.789H47.1152V810.211H59.3345V761.789ZM70.8154 790.946L82.4864 735.019L35.0859 725.127L23.4149 781.054L70.8154 790.946Z" fill="#8FC1FF" mask="url(#path-1-outside-1_144_1319)"/>
</svg>
