<svg width="469" height="367" viewBox="0 0 469 367" fill="none" xmlns="http://www.w3.org/2000/svg">
<rect x="35.6994" y="180.565" width="356.402" height="175.096" rx="20.8005" transform="rotate(-25.4093 35.6994 180.565)" fill="white" stroke="#0022FF" stroke-width="27.9409"/>
<path d="M155.192 212.378C154.432 211.459 153.611 210.671 152.728 210.015C151.845 209.359 150.882 208.885 149.839 208.591C148.797 208.298 147.691 208.22 146.52 208.356C145.368 208.443 144.134 208.795 142.819 209.411C140.896 210.312 139.407 211.482 138.354 212.922C137.334 214.345 136.693 215.921 136.433 217.647C136.156 219.34 136.185 221.116 136.521 222.974C136.89 224.817 137.478 226.599 138.284 228.319C139.09 230.04 140.082 231.632 141.261 233.096C142.474 234.543 143.827 235.72 145.321 236.625C146.798 237.496 148.41 237.996 150.157 238.124C151.938 238.236 153.789 237.842 155.712 236.941C157.129 236.277 158.267 235.457 159.125 234.479C159.968 233.467 160.58 232.358 160.961 231.151C161.326 229.91 161.459 228.614 161.36 227.261C161.262 225.909 160.972 224.543 160.49 223.164L166.664 220.272C167.541 222.495 167.993 224.69 168.021 226.857C168.082 229.009 167.746 231.058 167.013 233.006C166.264 234.92 165.144 236.658 163.654 238.22C162.164 239.781 160.323 241.076 158.13 242.103C155.431 243.367 152.773 244.016 150.155 244.048C147.556 244.032 145.111 243.511 142.82 242.485C140.53 241.46 138.443 239.99 136.559 238.075C134.708 236.144 133.175 233.88 131.958 231.282C130.757 228.718 130.007 226.107 129.709 223.45C129.444 220.776 129.651 218.232 130.33 215.816C131.008 213.4 132.173 211.188 133.825 209.181C135.51 207.157 137.702 205.513 140.401 204.249C142.425 203.301 144.466 202.695 146.522 202.431C148.563 202.134 150.511 202.209 152.366 202.656C154.24 203.054 155.953 203.815 157.508 204.938C159.062 206.061 160.399 207.554 161.518 209.416L155.192 212.378ZM171.607 190.683L178.338 187.531L209.177 217.146L202.396 220.322L194.526 212.345L180.103 219.1L181.192 230.253L174.664 233.31L171.607 190.683ZM179.572 213.487L190.604 208.32L177.913 195.32L177.761 195.391L179.572 213.487ZM195.695 179.401L202.021 176.438L216.384 207.106L234.754 198.502L237.314 203.968L212.618 215.534L195.695 179.401ZM224.754 165.791L231.08 162.828L245.443 193.496L263.814 184.892L266.373 190.358L241.677 201.924L224.754 165.791ZM267.493 145.774L273.819 142.811L283.679 163.864C284.248 165.078 284.875 166.286 285.561 167.487C286.281 168.672 287.148 169.644 288.161 170.403C289.193 171.113 290.416 171.528 291.829 171.647C293.277 171.751 295.029 171.321 297.087 170.357C299.145 169.393 300.581 168.33 301.394 167.168C302.241 165.99 302.705 164.785 302.787 163.554C302.886 162.273 302.694 160.985 302.211 159.689C301.761 158.377 301.252 157.114 300.683 155.9L290.823 134.848L297.149 131.885L307.98 155.012C309.071 157.34 309.665 159.53 309.762 161.583C309.859 163.635 309.527 165.56 308.764 167.357C308.019 169.104 306.87 170.691 305.317 172.118C303.764 173.545 301.874 174.78 299.647 175.823C297.42 176.866 295.262 177.527 293.171 177.807C291.081 178.086 289.109 177.961 287.256 177.43C285.421 176.85 283.746 175.865 282.232 174.476C280.718 173.087 279.415 171.229 278.325 168.901L267.493 145.774ZM319.852 150.625C320.499 152.008 321.289 153.078 322.219 153.835C323.15 154.592 324.187 155.094 325.331 155.34C326.458 155.552 327.633 155.557 328.855 155.355C330.095 155.104 331.356 154.678 332.638 154.077C334.021 153.429 335.131 152.725 335.967 151.963C336.787 151.167 337.383 150.374 337.753 149.584C338.123 148.793 338.293 148.014 338.263 147.247C338.217 146.446 338.036 145.708 337.72 145.033C337.072 143.65 336.277 142.788 335.336 142.447C334.413 142.057 333.517 141.9 332.648 141.978C331.145 142.106 329.438 142.371 327.528 142.772C325.636 143.123 323.283 143.546 320.47 144.041C318.729 144.363 317.185 144.448 315.839 144.297C314.511 144.096 313.354 143.733 312.367 143.208C311.381 142.683 310.539 142.028 309.842 141.243C309.18 140.443 308.627 139.57 308.185 138.626C307.331 136.804 306.968 135.061 307.094 133.398C307.238 131.685 307.728 130.098 308.566 128.636C309.403 127.174 310.52 125.869 311.916 124.722C313.296 123.541 314.796 122.571 316.416 121.812C318.305 120.927 320.195 120.351 322.085 120.083C323.993 119.765 325.8 119.803 327.507 120.197C329.247 120.575 330.828 121.315 332.25 122.418C333.655 123.488 334.801 124.967 335.686 126.856L329.36 129.819C328.101 127.57 326.542 126.305 324.682 126.024C322.807 125.709 320.773 126.066 318.58 127.093C317.838 127.44 317.118 127.88 316.421 128.412C315.709 128.911 315.119 129.495 314.651 130.167C314.168 130.804 313.85 131.53 313.696 132.342C313.575 133.139 313.728 133.993 314.155 134.904C314.755 136.186 315.617 137.016 316.741 137.395C317.882 137.724 319.181 137.774 320.637 137.545C320.788 137.516 321.382 137.422 322.419 137.266C323.474 137.059 324.647 136.84 325.936 136.606C327.225 136.372 328.481 136.155 329.703 135.953C330.942 135.701 331.83 135.532 332.366 135.446C333.72 135.264 334.986 135.288 336.164 135.518C337.341 135.748 338.414 136.151 339.383 136.726C340.369 137.251 341.218 137.923 341.931 138.741C342.677 139.543 343.271 140.417 343.714 141.362C344.662 143.386 345.054 145.321 344.89 147.167C344.744 148.963 344.209 150.632 343.286 152.175C342.363 153.718 341.136 155.095 339.605 156.306C338.09 157.55 336.439 158.591 334.65 159.429C332.592 160.393 330.534 161.048 328.475 161.395C326.416 161.743 324.467 161.709 322.628 161.295C320.789 160.882 319.085 160.055 317.517 158.814C315.933 157.541 314.602 155.798 313.526 153.587L319.852 150.625Z" fill="#0022FF"/>
</svg>
