<svg width="471" height="411" viewBox="0 0 471 411" fill="none" xmlns="http://www.w3.org/2000/svg">
<rect x="81.3336" y="12.5294" width="392.157" height="186.239" rx="32.7161" transform="rotate(18.0067 81.3336 12.5294)" fill="#4192F5" stroke="#8FC1FF" stroke-width="13.8068"/>
<path d="M192.118 81.8802L203.442 85.5535C205.533 86.2319 207.228 87.1763 208.527 88.3868C209.826 89.5974 210.757 90.9847 211.321 92.5488C211.893 94.0874 212.14 95.7601 212.061 97.5668C212.008 99.3819 211.675 101.233 211.063 103.12C210.451 105.008 209.633 106.702 208.611 108.202C207.614 109.711 206.428 110.933 205.054 111.869C203.688 112.779 202.123 113.343 200.362 113.56C198.6 113.778 196.673 113.548 194.582 112.869L183.257 109.196L192.118 81.8802ZM189.305 106.845L194.011 108.371C195.873 108.975 197.469 109.225 198.799 109.121C200.164 109 201.318 108.613 202.262 107.961C203.24 107.292 204.035 106.408 204.645 105.309C205.289 104.193 205.834 102.946 206.281 101.569C206.727 100.192 207.014 98.8753 207.139 97.6194C207.298 96.3462 207.174 95.1643 206.767 94.0738C206.393 92.966 205.686 91.9754 204.644 91.102C203.636 90.2113 202.202 89.464 200.34 88.8601L195.634 87.3337L189.305 106.845ZM230.303 97.8604C228.849 97.3888 227.491 97.2726 226.23 97.5117C224.994 97.7592 223.883 98.2727 222.897 99.0523C221.92 99.8064 221.063 100.754 220.326 101.897C219.614 103.047 219.048 104.273 218.626 105.574C218.204 106.874 217.943 108.199 217.844 109.548C217.77 110.905 217.903 112.189 218.244 113.399C218.592 114.583 219.195 115.638 220.05 116.564C220.931 117.498 222.098 118.201 223.552 118.672C225.006 119.144 226.351 119.256 227.587 119.009C228.848 118.77 229.968 118.273 230.945 117.519C231.931 116.739 232.78 115.774 233.491 114.624C234.228 113.482 234.807 112.26 235.229 110.959C235.651 109.659 235.899 108.329 235.973 106.972C236.072 105.623 235.948 104.357 235.599 103.172C235.258 101.962 234.648 100.891 233.767 99.9564C232.911 99.0306 231.757 98.3319 230.303 97.8604ZM231.569 93.9581C233.609 94.6199 235.309 95.594 236.667 96.8804C238.051 98.175 239.094 99.6547 239.794 101.319C240.494 102.984 240.856 104.779 240.88 106.704C240.93 108.636 240.64 110.572 240.012 112.51C239.375 114.474 238.469 116.224 237.294 117.76C236.145 119.304 234.798 120.544 233.254 121.481C231.71 122.418 229.998 123.004 228.117 123.24C226.27 123.458 224.327 123.237 222.286 122.575C220.246 121.913 218.529 120.947 217.137 119.678C215.778 118.392 214.749 116.916 214.049 115.252C213.348 113.587 212.973 111.788 212.924 109.855C212.9 107.93 213.206 105.986 213.843 104.022C214.472 102.084 215.361 100.343 216.51 98.7987C217.685 97.2629 219.044 96.0266 220.589 95.0899C222.133 94.1531 223.832 93.5628 225.687 93.3188C227.568 93.0832 229.528 93.2962 231.569 93.9581ZM259.251 103.656L264.301 105.294L270.245 129.463L270.322 129.488L276.849 109.364L281.402 110.841L272.541 138.157L267.491 136.519L261.573 112.401L261.458 112.364L254.943 132.449L250.39 130.972L259.251 103.656ZM297.627 119.698C296.173 119.227 294.816 119.11 293.554 119.35C292.318 119.597 291.207 120.111 290.222 120.89C289.244 121.644 288.387 122.592 287.65 123.735C286.938 124.885 286.372 126.111 285.95 127.411C285.528 128.712 285.267 130.037 285.168 131.386C285.094 132.743 285.228 134.027 285.568 135.237C285.917 136.421 286.519 137.476 287.374 138.402C288.255 139.336 289.423 140.039 290.876 140.51C292.33 140.982 293.675 141.094 294.911 140.847C296.173 140.607 297.292 140.111 298.27 139.357C299.255 138.577 300.104 137.612 300.815 136.462C301.552 135.319 302.132 134.098 302.554 132.797C302.976 131.496 303.223 130.167 303.297 128.81C303.397 127.461 303.272 126.194 302.923 125.01C302.583 123.8 301.972 122.728 301.091 121.794C300.236 120.869 299.081 120.17 297.627 119.698ZM298.893 115.796C300.933 116.458 302.633 117.432 303.991 118.718C305.376 120.013 306.418 121.493 307.118 123.157C307.818 124.822 308.181 126.617 308.205 128.541C308.254 130.474 307.965 132.41 307.336 134.348C306.699 136.312 305.793 138.062 304.618 139.598C303.469 141.142 302.122 142.382 300.578 143.319C299.034 144.256 297.322 144.842 295.441 145.078C293.595 145.296 291.651 145.074 289.611 144.413C287.57 143.751 285.854 142.785 284.461 141.516C283.103 140.23 282.073 138.754 281.373 137.09C280.673 135.425 280.298 133.626 280.248 131.693C280.224 129.768 280.531 127.824 281.168 125.86C281.796 123.922 282.685 122.181 283.835 120.637C285.009 119.101 286.369 117.865 287.913 116.928C289.457 115.991 291.157 115.401 293.012 115.157C294.892 114.921 296.853 115.134 298.893 115.796ZM313.517 121.258L335.63 128.431L334.29 132.563L325.605 129.746L318.085 152.93L313.303 151.379L320.823 128.195L312.177 125.39L313.517 121.258ZM113.56 107.912L132.421 114.03L131.081 118.162L117.002 113.595L114.682 120.749L127.039 124.757L125.773 128.66L113.416 124.651L109.482 136.779L104.7 135.228L113.56 107.912ZM146.814 122.292C145.36 121.821 144.002 121.705 142.741 121.944C141.505 122.191 140.394 122.705 139.408 123.484C138.431 124.238 137.574 125.187 136.837 126.329C136.125 127.479 135.559 128.705 135.137 130.006C134.715 131.306 134.454 132.631 134.355 133.98C134.281 135.338 134.414 136.621 134.755 137.831C135.103 139.015 135.706 140.07 136.561 140.996C137.442 141.93 138.609 142.633 140.063 143.105C141.517 143.576 142.862 143.688 144.098 143.441C145.359 143.202 146.479 142.705 147.456 141.951C148.442 141.171 149.291 140.206 150.002 139.056C150.739 137.914 151.318 136.692 151.74 135.391C152.162 134.091 152.41 132.762 152.484 131.404C152.583 130.055 152.459 128.789 152.11 127.604C151.769 126.395 151.159 125.323 150.278 124.389C149.422 123.463 148.268 122.764 146.814 122.292ZM148.08 118.39C150.12 119.052 151.82 120.026 153.178 121.312C154.562 122.607 155.605 124.087 156.305 125.752C157.005 127.416 157.367 129.211 157.391 131.136C157.441 133.069 157.151 135.004 156.523 136.943C155.886 138.906 154.98 140.656 153.805 142.192C152.656 143.736 151.309 144.977 149.765 145.913C148.221 146.85 146.509 147.436 144.628 147.672C142.781 147.89 140.838 147.669 138.797 147.007C136.757 146.345 135.04 145.379 133.648 144.11C132.289 142.824 131.26 141.348 130.56 139.684C129.859 138.019 129.484 136.22 129.435 134.287C129.411 132.363 129.717 130.418 130.354 128.454C130.983 126.516 131.872 124.775 133.021 123.231C134.196 121.695 135.555 120.459 137.1 119.522C138.644 118.585 140.343 117.995 142.198 117.751C144.079 117.515 146.039 117.728 148.08 118.39ZM165.305 124.696L178.351 128.928C181.361 129.904 183.407 131.287 184.49 133.076C185.573 134.865 185.738 136.919 184.985 139.24C184.563 140.541 184.02 141.563 183.356 142.306C182.7 143.024 182.031 143.568 181.347 143.938C180.671 144.282 180.041 144.487 179.457 144.551C178.898 144.623 178.491 144.66 178.237 144.662L178.212 144.739C178.603 144.922 178.996 145.191 179.388 145.543C179.807 145.905 180.146 146.381 180.405 146.972C180.672 147.538 180.818 148.22 180.841 149.017C180.89 149.822 180.741 150.76 180.393 151.831C179.872 153.438 179.511 154.942 179.31 156.343C179.144 157.726 179.224 158.781 179.552 159.508L174.426 157.845C174.259 157.142 174.253 156.422 174.408 155.683C174.589 154.952 174.787 154.255 175.002 153.592C175.407 152.342 175.678 151.246 175.815 150.304C175.96 149.336 175.923 148.493 175.705 147.774C175.496 147.029 175.079 146.401 174.456 145.889C173.859 145.385 173.011 144.955 171.915 144.599L164.875 142.316L161.227 153.563L156.445 152.012L165.305 124.696ZM166.054 138.681L173.897 141.225C175.427 141.722 176.704 141.741 177.726 141.283C178.756 140.8 179.508 139.832 179.979 138.378C180.26 137.511 180.36 136.768 180.279 136.15C180.206 135.506 179.99 134.956 179.63 134.501C179.295 134.055 178.852 133.685 178.298 133.393C177.77 133.109 177.2 132.868 176.588 132.669L168.822 130.15L166.054 138.681ZM207.216 168.481L204.156 167.488L204.471 164.039C202.724 165.079 201.122 165.673 199.665 165.82C198.208 165.968 196.65 165.773 194.993 165.235C192.952 164.573 191.236 163.607 189.843 162.338C188.485 161.052 187.455 159.576 186.755 157.912C186.055 156.247 185.68 154.448 185.63 152.515C185.606 150.591 185.913 148.646 186.55 146.682C187.178 144.744 188.067 143.003 189.217 141.459C190.391 139.923 191.751 138.687 193.295 137.75C194.839 136.813 196.538 136.223 198.393 135.979C200.274 135.743 202.234 135.956 204.275 136.618C205.754 137.098 207.091 137.757 208.285 138.595C209.512 139.416 210.521 140.392 211.31 141.522C212.108 142.626 212.66 143.876 212.968 145.273C213.276 146.67 213.272 148.162 212.954 149.75L208.286 148.236C208.448 147.302 208.42 146.433 208.202 145.63C208.017 144.809 207.68 144.065 207.192 143.399C206.703 142.733 206.1 142.157 205.384 141.671C204.668 141.185 203.876 140.802 203.009 140.52C201.555 140.049 200.198 139.933 198.936 140.172C197.7 140.419 196.589 140.933 195.604 141.712C194.626 142.466 193.769 143.415 193.032 144.557C192.32 145.707 191.754 146.933 191.332 148.234C190.91 149.534 190.649 150.859 190.55 152.208C190.476 153.566 190.609 154.849 190.95 156.059C191.299 157.243 191.901 158.298 192.756 159.224C193.637 160.158 194.805 160.861 196.258 161.333C197.474 161.755 198.608 161.954 199.659 161.928C200.719 161.877 201.671 161.636 202.515 161.206C203.393 160.758 204.151 160.115 204.789 159.279C205.427 158.443 205.944 157.455 206.342 156.316L199.073 153.958L200.252 150.324L211.882 154.096L207.216 168.481ZM221.272 142.85L240.936 149.229L239.596 153.361L224.714 148.533L222.393 155.687L236.166 160.155L234.9 164.057L221.127 159.59L218.534 167.585L233.684 172.5L232.343 176.631L212.411 170.166L221.272 142.85ZM242.768 149.823L264.881 156.996L263.541 161.127L254.856 158.31L247.336 181.495L242.554 179.943L250.074 156.759L241.428 153.955L242.768 149.823ZM280.426 180.389L275.558 160.459L281.106 162.258L284.365 176.846L295.452 166.912L300.808 168.649L285.208 181.94L281.733 192.652L276.951 191.101L280.426 180.389ZM314.078 176.548C312.625 176.076 311.267 175.96 310.006 176.199C308.77 176.447 307.659 176.96 306.673 177.74C305.695 178.494 304.838 179.442 304.101 180.584C303.39 181.735 302.823 182.96 302.401 184.261C301.979 185.562 301.719 186.887 301.619 188.236C301.546 189.593 301.679 190.877 302.019 192.086C302.368 193.271 302.97 194.326 303.826 195.252C304.707 196.186 305.874 196.888 307.328 197.36C308.781 197.832 310.126 197.944 311.362 197.696C312.624 197.457 313.743 196.96 314.721 196.206C315.707 195.427 316.555 194.462 317.267 193.311C318.004 192.169 318.583 190.948 319.005 189.647C319.427 188.346 319.675 187.017 319.749 185.66C319.848 184.311 319.723 183.044 319.374 181.86C319.034 180.65 318.423 179.578 317.542 178.644C316.687 177.718 315.532 177.019 314.078 176.548ZM315.344 172.646C317.385 173.307 319.084 174.282 320.443 175.568C321.827 176.863 322.869 178.342 323.569 180.007C324.27 181.672 324.632 183.466 324.656 185.391C324.706 187.324 324.416 189.26 323.787 191.198C323.15 193.162 322.244 194.912 321.07 196.448C319.92 197.992 318.574 199.232 317.03 200.169C315.485 201.105 313.773 201.692 311.893 201.927C310.046 202.146 308.102 201.924 306.062 201.262C304.022 200.6 302.305 199.635 300.913 198.366C299.554 197.079 298.525 195.604 297.824 193.939C297.124 192.274 296.749 190.476 296.7 188.543C296.675 186.618 296.982 184.674 297.619 182.71C298.248 180.771 299.137 179.03 300.286 177.486C301.461 175.95 302.82 174.714 304.364 173.777C305.908 172.841 307.608 172.25 309.463 172.006C311.343 171.771 313.304 171.984 315.344 172.646ZM332.264 178.853L337.046 180.404L331.884 196.319C331.586 197.237 331.322 198.18 331.092 199.149C330.888 200.126 330.866 201.063 331.026 201.96C331.22 202.841 331.659 203.66 332.343 204.417C333.053 205.183 334.186 205.818 335.742 206.323C337.298 206.828 338.575 206.974 339.574 206.763C340.598 206.559 341.435 206.154 342.083 205.547C342.764 204.922 343.297 204.151 343.679 203.232C344.087 202.321 344.44 201.407 344.738 200.488L349.9 184.573L354.683 186.125L349.011 203.608C348.441 205.368 347.676 206.812 346.719 207.939C345.761 209.066 344.64 209.914 343.356 210.484C342.106 211.037 340.722 211.307 339.204 211.294C337.686 211.28 336.085 211.001 334.402 210.455C332.718 209.909 331.258 209.196 330.022 208.315C328.785 207.435 327.81 206.4 327.097 205.21C326.417 204.003 326.02 202.662 325.907 201.188C325.793 199.713 326.022 198.096 326.593 196.336L332.264 178.853ZM360.179 187.908L373.225 192.139C376.235 193.115 378.281 194.498 379.364 196.287C380.447 198.076 380.612 200.131 379.859 202.452C379.437 203.752 378.894 204.774 378.23 205.517C377.575 206.235 376.905 206.779 376.221 207.149C375.546 207.494 374.916 207.698 374.331 207.762C373.772 207.834 373.365 207.872 373.111 207.874L373.086 207.95C373.478 208.133 373.87 208.402 374.263 208.755C374.681 209.116 375.02 209.592 375.279 210.184C375.547 210.75 375.692 211.431 375.715 212.228C375.764 213.033 375.615 213.971 375.268 215.042C374.746 216.649 374.385 218.153 374.185 219.554C374.018 220.937 374.098 221.992 374.427 222.719L369.3 221.056C369.133 220.353 369.127 219.633 369.283 218.894C369.463 218.163 369.661 217.466 369.876 216.803C370.282 215.553 370.553 214.457 370.689 213.515C370.834 212.547 370.797 211.704 370.58 210.985C370.37 210.24 369.954 209.612 369.331 209.1C368.733 208.596 367.886 208.166 366.789 207.81L359.75 205.527L356.101 216.775L351.319 215.223L360.179 187.908ZM360.929 201.892L368.771 204.436C370.302 204.933 371.578 204.952 372.6 204.494C373.631 204.011 374.382 203.043 374.853 201.589C375.135 200.722 375.235 199.979 375.153 199.361C375.08 198.717 374.864 198.168 374.504 197.713C374.17 197.266 373.726 196.896 373.172 196.604C372.644 196.32 372.074 196.079 371.462 195.88L363.696 193.361L360.929 201.892ZM165.668 176.327L187.781 183.5L186.44 187.632L177.756 184.815L170.236 207.999L165.453 206.448L172.974 183.264L164.327 180.459L165.668 176.327ZM190.947 184.527L195.729 186.078L186.869 213.394L182.087 211.843L190.947 184.527ZM217.218 202.647C217.271 201.79 217.226 200.972 217.084 200.193C216.942 199.414 216.669 198.691 216.265 198.025C215.861 197.358 215.318 196.773 214.636 196.27C213.987 195.75 213.165 195.328 212.171 195.005C210.717 194.534 209.359 194.418 208.098 194.657C206.862 194.904 205.751 195.418 204.765 196.197C203.788 196.951 202.93 197.9 202.193 199.042C201.482 200.192 200.915 201.418 200.493 202.719C200.071 204.019 199.811 205.344 199.711 206.693C199.638 208.051 199.771 209.334 200.111 210.544C200.46 211.728 201.062 212.783 201.918 213.709C202.799 214.643 203.966 215.346 205.42 215.818C206.491 216.165 207.493 216.293 208.425 216.2C209.365 216.082 210.232 215.8 211.025 215.352C211.827 214.88 212.534 214.263 213.147 213.504C213.76 212.744 214.279 211.884 214.703 210.922L219.371 212.436C218.739 214.035 217.898 215.411 216.848 216.565C215.822 217.726 214.638 218.639 213.296 219.302C211.961 219.941 210.518 220.304 208.967 220.393C207.416 220.482 205.812 220.258 204.154 219.72C202.114 219.058 200.397 218.092 199.005 216.823C197.646 215.537 196.617 214.061 195.916 212.397C195.216 210.732 194.841 208.933 194.792 207C194.768 205.076 195.074 203.131 195.711 201.167C196.34 199.229 197.229 197.488 198.378 195.944C199.553 194.408 200.912 193.172 202.456 192.235C204 191.298 205.7 190.708 207.555 190.464C209.435 190.228 211.396 190.441 213.436 191.103C214.967 191.6 216.337 192.284 217.548 193.156C218.768 194.002 219.755 194.999 220.511 196.146C221.3 197.276 221.827 198.518 222.093 199.873C222.358 201.227 222.327 202.669 222 204.198L217.218 202.647ZM229.205 196.937L233.987 198.488L229.954 210.922L246.153 202.434L252.045 204.345L237.604 211.712L243.949 231.909L237.981 229.973L233.26 214.024L228.105 216.622L225.127 225.804L220.344 224.253L229.205 196.937ZM255.395 205.432L275.059 211.81L273.719 215.942L258.837 211.115L256.516 218.269L270.289 222.737L269.023 226.639L255.25 222.171L252.657 230.167L267.807 235.081L266.467 239.213L246.534 232.748L255.395 205.432ZM276.891 212.405L299.004 219.577L297.664 223.709L288.979 220.892L281.459 244.076L276.677 242.525L284.197 219.341L275.551 216.537L276.891 212.405Z" fill="white"/>
</svg>
