<svg width="576" height="228" viewBox="0 0 576 228" fill="none" xmlns="http://www.w3.org/2000/svg">
<mask id="path-1-outside-1_144_1432" maskUnits="userSpaceOnUse" x="0" y="0" width="576" height="228" fill="black">
<rect fill="white" width="576" height="228"/>
<path d="M41.818 24.072H47.6207L35.5887 80.0507H69.2953L68.1007 85H28.6767L41.818 24.072ZM87.4807 24.072H128.355L127.246 29.0213H92.2593L87.566 51.0373H120.249L119.139 55.9867H86.542L81.422 80.0507H117.262L116.153 85H74.51L87.4807 24.072ZM129.995 24.072H177.611L176.587 29.0213H155.681L143.478 85H137.675L149.878 29.0213H128.971L129.995 24.072ZM180.569 41.3947C181.536 41.1102 182.333 40.712 182.959 40.2C183.641 39.6311 184.182 38.9769 184.58 38.2373C185.035 37.4978 185.405 36.7013 185.689 35.848C185.974 34.9378 186.23 34.0276 186.457 33.1173H182.873L184.921 24.072H192.089L189.273 36.0187C188.932 37.384 188.505 38.5502 187.993 39.5173C187.538 40.4276 186.941 41.224 186.201 41.9067C185.462 42.5893 184.58 43.1582 183.556 43.6133C182.532 44.0684 181.309 44.4667 179.887 44.808L180.569 41.3947ZM240.245 41.8213C240.245 39.1476 239.875 36.9289 239.135 35.1653C238.453 33.3449 237.429 31.8942 236.063 30.8133C234.698 29.6756 233.02 28.8791 231.029 28.424C229.038 27.9689 226.734 27.7413 224.117 27.7413C222.239 27.7413 220.362 27.9689 218.485 28.424C216.664 28.8791 215.014 29.6187 213.535 30.6427C212.056 31.6098 210.862 32.8613 209.951 34.3973C209.041 35.9333 208.586 37.7822 208.586 39.944C208.586 41.5369 208.87 42.9022 209.439 44.04C210.065 45.1209 210.833 46.0596 211.743 46.856C212.71 47.5956 213.82 48.2213 215.071 48.7333C216.323 49.1884 217.574 49.6151 218.826 50.0133L225.311 51.976C227.416 52.6018 229.436 53.2844 231.37 54.024C233.361 54.7636 235.125 55.7022 236.661 56.84C238.197 57.9778 239.42 59.4 240.33 61.1067C241.24 62.8133 241.695 64.9467 241.695 67.5067C241.695 69.0427 241.382 70.8916 240.757 73.0533C240.188 75.1582 239.05 77.2062 237.343 79.1973C235.637 81.1316 233.247 82.7813 230.175 84.1467C227.103 85.512 223.093 86.1947 218.143 86.1947C214.73 86.1947 211.573 85.7964 208.671 85C205.827 84.1467 203.352 82.8667 201.247 81.16C199.199 79.3964 197.635 77.1778 196.554 74.504C195.473 71.8302 195.018 68.6444 195.189 64.9467H200.991C200.821 67.9049 201.105 70.4364 201.845 72.5413C202.641 74.5893 203.807 76.2676 205.343 77.576C206.936 78.8844 208.842 79.8516 211.061 80.4773C213.336 81.0462 215.839 81.3307 218.57 81.3307C220.561 81.3307 222.581 81.0747 224.629 80.5627C226.677 80.0507 228.526 79.2827 230.175 78.2587C231.882 77.1778 233.247 75.8124 234.271 74.1627C235.352 72.5129 235.893 70.5502 235.893 68.2747C235.893 66.1129 235.409 64.3778 234.442 63.0693C233.532 61.704 232.337 60.5947 230.858 59.7413C229.379 58.888 227.758 58.2053 225.994 57.6933C224.23 57.1813 222.495 56.6693 220.789 56.1573L214.815 54.3653C211.231 53.3413 208.33 51.72 206.111 49.5013C203.893 47.2258 202.783 44.1253 202.783 40.2C202.783 37.128 203.381 34.5111 204.575 32.3493C205.827 30.1307 207.448 28.3387 209.439 26.9733C211.487 25.5511 213.791 24.4987 216.351 23.816C218.968 23.1333 221.642 22.792 224.373 22.792C227.445 22.792 230.346 23.1333 233.077 23.816C235.807 24.4418 238.14 25.5227 240.074 27.0587C242.065 28.5378 243.601 30.5004 244.682 32.9467C245.763 35.336 246.218 38.2942 246.047 41.8213H240.245ZM285.318 24.072H291.121L279.089 80.0507H312.795L311.601 85H272.177L285.318 24.072ZM330.895 24.072H336.698L323.813 85H318.01L330.895 24.072ZM382.495 41.8213C382.495 39.1476 382.125 36.9289 381.385 35.1653C380.703 33.3449 379.679 31.8942 378.313 30.8133C376.948 29.6756 375.27 28.8791 373.279 28.424C371.288 27.9689 368.984 27.7413 366.367 27.7413C364.489 27.7413 362.612 27.9689 360.735 28.424C358.914 28.8791 357.264 29.6187 355.785 30.6427C354.306 31.6098 353.112 32.8613 352.201 34.3973C351.291 35.9333 350.836 37.7822 350.836 39.944C350.836 41.5369 351.12 42.9022 351.689 44.04C352.315 45.1209 353.083 46.0596 353.993 46.856C354.96 47.5956 356.07 48.2213 357.321 48.7333C358.573 49.1884 359.824 49.6151 361.076 50.0133L367.561 51.976C369.666 52.6018 371.686 53.2844 373.62 54.024C375.611 54.7636 377.375 55.7022 378.911 56.84C380.447 57.9778 381.67 59.4 382.58 61.1067C383.49 62.8133 383.945 64.9467 383.945 67.5067C383.945 69.0427 383.632 70.8916 383.007 73.0533C382.438 75.1582 381.3 77.2062 379.593 79.1973C377.887 81.1316 375.497 82.7813 372.425 84.1467C369.353 85.512 365.343 86.1947 360.393 86.1947C356.98 86.1947 353.823 85.7964 350.921 85C348.077 84.1467 345.602 82.8667 343.497 81.16C341.449 79.3964 339.885 77.1778 338.804 74.504C337.723 71.8302 337.268 68.6444 337.439 64.9467H343.241C343.071 67.9049 343.355 70.4364 344.095 72.5413C344.891 74.5893 346.057 76.2676 347.593 77.576C349.186 78.8844 351.092 79.8516 353.311 80.4773C355.586 81.0462 358.089 81.3307 360.82 81.3307C362.811 81.3307 364.831 81.0747 366.879 80.5627C368.927 80.0507 370.776 79.2827 372.425 78.2587C374.132 77.1778 375.497 75.8124 376.521 74.1627C377.602 72.5129 378.143 70.5502 378.143 68.2747C378.143 66.1129 377.659 64.3778 376.692 63.0693C375.782 61.704 374.587 60.5947 373.108 59.7413C371.629 58.888 370.008 58.2053 368.244 57.6933C366.48 57.1813 364.745 56.6693 363.039 56.1573L357.065 54.3653C353.481 53.3413 350.58 51.72 348.361 49.5013C346.143 47.2258 345.033 44.1253 345.033 40.2C345.033 37.128 345.631 34.5111 346.825 32.3493C348.077 30.1307 349.698 28.3387 351.689 26.9733C353.737 25.5511 356.041 24.4987 358.601 23.816C361.218 23.1333 363.892 22.792 366.623 22.792C369.695 22.792 372.596 23.1333 375.327 23.816C378.057 24.4418 380.39 25.5227 382.324 27.0587C384.315 28.5378 385.851 30.5004 386.932 32.9467C388.013 35.336 388.468 38.2942 388.297 41.8213H382.495ZM397.162 24.072H444.778L443.754 29.0213H422.847L410.645 85H404.842L417.045 29.0213H396.138L397.162 24.072ZM451.064 24.072H491.939L490.829 29.0213H455.843L451.149 51.0373H483.832L482.723 55.9867H450.125L445.005 80.0507H480.845L479.736 85H438.093L451.064 24.072ZM499.808 24.072H506.379L530.699 78.5147H530.869L542.133 24.072H547.765L534.453 85H528.053L503.733 30.5573H503.563L492.213 85H486.667L499.808 24.072ZM239.079 84.072H286.695L285.671 89.0213H264.764L252.561 145H246.759L258.961 89.0213H238.055L239.079 84.072ZM307.487 146.195C303.505 146.195 299.95 145.569 296.821 144.317C293.749 143.066 291.132 141.331 288.97 139.112C286.865 136.836 285.244 134.106 284.106 130.92C283.025 127.734 282.485 124.207 282.485 120.339C282.485 115.446 283.224 110.753 284.703 106.259C286.182 101.764 288.344 97.7822 291.189 94.312C294.033 90.7849 297.503 87.9973 301.599 85.9493C305.695 83.8444 310.36 82.792 315.594 82.792C319.462 82.792 322.961 83.4178 326.09 84.6693C329.219 85.864 331.864 87.5707 334.026 89.7893C336.245 92.008 337.923 94.6818 339.061 97.8107C340.255 100.94 340.853 104.438 340.853 108.307C340.853 113.256 340.113 118.035 338.634 122.643C337.212 127.194 335.078 131.233 332.234 134.76C329.39 138.23 325.891 141.018 321.738 143.123C317.642 145.171 312.892 146.195 307.487 146.195ZM335.05 109.757C335.05 106.572 334.652 103.642 333.855 100.968C333.116 98.2942 331.921 95.9902 330.271 94.056C328.678 92.0649 326.659 90.5289 324.213 89.448C321.766 88.3102 318.865 87.7413 315.509 87.7413C310.901 87.7413 306.89 88.7084 303.477 90.6427C300.12 92.52 297.304 95.0231 295.029 98.152C292.753 101.224 291.046 104.751 289.909 108.733C288.828 112.659 288.287 116.698 288.287 120.851C288.287 123.98 288.742 126.796 289.653 129.299C290.563 131.802 291.871 133.964 293.578 135.784C295.342 137.548 297.475 138.913 299.978 139.88C302.481 140.847 305.297 141.331 308.426 141.331C312.579 141.331 316.277 140.392 319.519 138.515C322.819 136.637 325.606 134.22 327.882 131.261C330.214 128.246 331.978 124.861 333.173 121.107C334.424 117.295 335.05 113.512 335.05 109.757ZM180.753 144.072H186.726L194.492 200.051H194.662L225.894 144.072H232.209L197.052 205H190.31L180.753 144.072ZM239.187 144.072H244.99L232.104 205H226.302L239.187 144.072ZM257.933 144.072H264.504L288.824 198.515H288.994L300.258 144.072H305.89L292.578 205H286.178L261.858 150.557H261.688L250.338 205H244.792L257.933 144.072ZM355.904 144.072H362.987L332.438 180.424L327.062 205H321.174L326.72 179.827L310.507 144.072H316.651L330.39 174.963L355.904 144.072ZM367.443 144.072H373.246L361.214 200.051H394.92L393.726 205H354.302L367.443 144.072Z"/>
</mask>
<path d="M41.818 24.072H47.6207L35.5887 80.0507H69.2953L68.1007 85H28.6767L41.818 24.072ZM87.4807 24.072H128.355L127.246 29.0213H92.2593L87.566 51.0373H120.249L119.139 55.9867H86.542L81.422 80.0507H117.262L116.153 85H74.51L87.4807 24.072ZM129.995 24.072H177.611L176.587 29.0213H155.681L143.478 85H137.675L149.878 29.0213H128.971L129.995 24.072ZM180.569 41.3947C181.536 41.1102 182.333 40.712 182.959 40.2C183.641 39.6311 184.182 38.9769 184.58 38.2373C185.035 37.4978 185.405 36.7013 185.689 35.848C185.974 34.9378 186.23 34.0276 186.457 33.1173H182.873L184.921 24.072H192.089L189.273 36.0187C188.932 37.384 188.505 38.5502 187.993 39.5173C187.538 40.4276 186.941 41.224 186.201 41.9067C185.462 42.5893 184.58 43.1582 183.556 43.6133C182.532 44.0684 181.309 44.4667 179.887 44.808L180.569 41.3947ZM240.245 41.8213C240.245 39.1476 239.875 36.9289 239.135 35.1653C238.453 33.3449 237.429 31.8942 236.063 30.8133C234.698 29.6756 233.02 28.8791 231.029 28.424C229.038 27.9689 226.734 27.7413 224.117 27.7413C222.239 27.7413 220.362 27.9689 218.485 28.424C216.664 28.8791 215.014 29.6187 213.535 30.6427C212.056 31.6098 210.862 32.8613 209.951 34.3973C209.041 35.9333 208.586 37.7822 208.586 39.944C208.586 41.5369 208.87 42.9022 209.439 44.04C210.065 45.1209 210.833 46.0596 211.743 46.856C212.71 47.5956 213.82 48.2213 215.071 48.7333C216.323 49.1884 217.574 49.6151 218.826 50.0133L225.311 51.976C227.416 52.6018 229.436 53.2844 231.37 54.024C233.361 54.7636 235.125 55.7022 236.661 56.84C238.197 57.9778 239.42 59.4 240.33 61.1067C241.24 62.8133 241.695 64.9467 241.695 67.5067C241.695 69.0427 241.382 70.8916 240.757 73.0533C240.188 75.1582 239.05 77.2062 237.343 79.1973C235.637 81.1316 233.247 82.7813 230.175 84.1467C227.103 85.512 223.093 86.1947 218.143 86.1947C214.73 86.1947 211.573 85.7964 208.671 85C205.827 84.1467 203.352 82.8667 201.247 81.16C199.199 79.3964 197.635 77.1778 196.554 74.504C195.473 71.8302 195.018 68.6444 195.189 64.9467H200.991C200.821 67.9049 201.105 70.4364 201.845 72.5413C202.641 74.5893 203.807 76.2676 205.343 77.576C206.936 78.8844 208.842 79.8516 211.061 80.4773C213.336 81.0462 215.839 81.3307 218.57 81.3307C220.561 81.3307 222.581 81.0747 224.629 80.5627C226.677 80.0507 228.526 79.2827 230.175 78.2587C231.882 77.1778 233.247 75.8124 234.271 74.1627C235.352 72.5129 235.893 70.5502 235.893 68.2747C235.893 66.1129 235.409 64.3778 234.442 63.0693C233.532 61.704 232.337 60.5947 230.858 59.7413C229.379 58.888 227.758 58.2053 225.994 57.6933C224.23 57.1813 222.495 56.6693 220.789 56.1573L214.815 54.3653C211.231 53.3413 208.33 51.72 206.111 49.5013C203.893 47.2258 202.783 44.1253 202.783 40.2C202.783 37.128 203.381 34.5111 204.575 32.3493C205.827 30.1307 207.448 28.3387 209.439 26.9733C211.487 25.5511 213.791 24.4987 216.351 23.816C218.968 23.1333 221.642 22.792 224.373 22.792C227.445 22.792 230.346 23.1333 233.077 23.816C235.807 24.4418 238.14 25.5227 240.074 27.0587C242.065 28.5378 243.601 30.5004 244.682 32.9467C245.763 35.336 246.218 38.2942 246.047 41.8213H240.245ZM285.318 24.072H291.121L279.089 80.0507H312.795L311.601 85H272.177L285.318 24.072ZM330.895 24.072H336.698L323.813 85H318.01L330.895 24.072ZM382.495 41.8213C382.495 39.1476 382.125 36.9289 381.385 35.1653C380.703 33.3449 379.679 31.8942 378.313 30.8133C376.948 29.6756 375.27 28.8791 373.279 28.424C371.288 27.9689 368.984 27.7413 366.367 27.7413C364.489 27.7413 362.612 27.9689 360.735 28.424C358.914 28.8791 357.264 29.6187 355.785 30.6427C354.306 31.6098 353.112 32.8613 352.201 34.3973C351.291 35.9333 350.836 37.7822 350.836 39.944C350.836 41.5369 351.12 42.9022 351.689 44.04C352.315 45.1209 353.083 46.0596 353.993 46.856C354.96 47.5956 356.07 48.2213 357.321 48.7333C358.573 49.1884 359.824 49.6151 361.076 50.0133L367.561 51.976C369.666 52.6018 371.686 53.2844 373.62 54.024C375.611 54.7636 377.375 55.7022 378.911 56.84C380.447 57.9778 381.67 59.4 382.58 61.1067C383.49 62.8133 383.945 64.9467 383.945 67.5067C383.945 69.0427 383.632 70.8916 383.007 73.0533C382.438 75.1582 381.3 77.2062 379.593 79.1973C377.887 81.1316 375.497 82.7813 372.425 84.1467C369.353 85.512 365.343 86.1947 360.393 86.1947C356.98 86.1947 353.823 85.7964 350.921 85C348.077 84.1467 345.602 82.8667 343.497 81.16C341.449 79.3964 339.885 77.1778 338.804 74.504C337.723 71.8302 337.268 68.6444 337.439 64.9467H343.241C343.071 67.9049 343.355 70.4364 344.095 72.5413C344.891 74.5893 346.057 76.2676 347.593 77.576C349.186 78.8844 351.092 79.8516 353.311 80.4773C355.586 81.0462 358.089 81.3307 360.82 81.3307C362.811 81.3307 364.831 81.0747 366.879 80.5627C368.927 80.0507 370.776 79.2827 372.425 78.2587C374.132 77.1778 375.497 75.8124 376.521 74.1627C377.602 72.5129 378.143 70.5502 378.143 68.2747C378.143 66.1129 377.659 64.3778 376.692 63.0693C375.782 61.704 374.587 60.5947 373.108 59.7413C371.629 58.888 370.008 58.2053 368.244 57.6933C366.48 57.1813 364.745 56.6693 363.039 56.1573L357.065 54.3653C353.481 53.3413 350.58 51.72 348.361 49.5013C346.143 47.2258 345.033 44.1253 345.033 40.2C345.033 37.128 345.631 34.5111 346.825 32.3493C348.077 30.1307 349.698 28.3387 351.689 26.9733C353.737 25.5511 356.041 24.4987 358.601 23.816C361.218 23.1333 363.892 22.792 366.623 22.792C369.695 22.792 372.596 23.1333 375.327 23.816C378.057 24.4418 380.39 25.5227 382.324 27.0587C384.315 28.5378 385.851 30.5004 386.932 32.9467C388.013 35.336 388.468 38.2942 388.297 41.8213H382.495ZM397.162 24.072H444.778L443.754 29.0213H422.847L410.645 85H404.842L417.045 29.0213H396.138L397.162 24.072ZM451.064 24.072H491.939L490.829 29.0213H455.843L451.149 51.0373H483.832L482.723 55.9867H450.125L445.005 80.0507H480.845L479.736 85H438.093L451.064 24.072ZM499.808 24.072H506.379L530.699 78.5147H530.869L542.133 24.072H547.765L534.453 85H528.053L503.733 30.5573H503.563L492.213 85H486.667L499.808 24.072ZM239.079 84.072H286.695L285.671 89.0213H264.764L252.561 145H246.759L258.961 89.0213H238.055L239.079 84.072ZM307.487 146.195C303.505 146.195 299.95 145.569 296.821 144.317C293.749 143.066 291.132 141.331 288.97 139.112C286.865 136.836 285.244 134.106 284.106 130.92C283.025 127.734 282.485 124.207 282.485 120.339C282.485 115.446 283.224 110.753 284.703 106.259C286.182 101.764 288.344 97.7822 291.189 94.312C294.033 90.7849 297.503 87.9973 301.599 85.9493C305.695 83.8444 310.36 82.792 315.594 82.792C319.462 82.792 322.961 83.4178 326.09 84.6693C329.219 85.864 331.864 87.5707 334.026 89.7893C336.245 92.008 337.923 94.6818 339.061 97.8107C340.255 100.94 340.853 104.438 340.853 108.307C340.853 113.256 340.113 118.035 338.634 122.643C337.212 127.194 335.078 131.233 332.234 134.76C329.39 138.23 325.891 141.018 321.738 143.123C317.642 145.171 312.892 146.195 307.487 146.195ZM335.05 109.757C335.05 106.572 334.652 103.642 333.855 100.968C333.116 98.2942 331.921 95.9902 330.271 94.056C328.678 92.0649 326.659 90.5289 324.213 89.448C321.766 88.3102 318.865 87.7413 315.509 87.7413C310.901 87.7413 306.89 88.7084 303.477 90.6427C300.12 92.52 297.304 95.0231 295.029 98.152C292.753 101.224 291.046 104.751 289.909 108.733C288.828 112.659 288.287 116.698 288.287 120.851C288.287 123.98 288.742 126.796 289.653 129.299C290.563 131.802 291.871 133.964 293.578 135.784C295.342 137.548 297.475 138.913 299.978 139.88C302.481 140.847 305.297 141.331 308.426 141.331C312.579 141.331 316.277 140.392 319.519 138.515C322.819 136.637 325.606 134.22 327.882 131.261C330.214 128.246 331.978 124.861 333.173 121.107C334.424 117.295 335.05 113.512 335.05 109.757ZM180.753 144.072H186.726L194.492 200.051H194.662L225.894 144.072H232.209L197.052 205H190.31L180.753 144.072ZM239.187 144.072H244.99L232.104 205H226.302L239.187 144.072ZM257.933 144.072H264.504L288.824 198.515H288.994L300.258 144.072H305.89L292.578 205H286.178L261.858 150.557H261.688L250.338 205H244.792L257.933 144.072ZM355.904 144.072H362.987L332.438 180.424L327.062 205H321.174L326.72 179.827L310.507 144.072H316.651L330.39 174.963L355.904 144.072ZM367.443 144.072H373.246L361.214 200.051H394.92L393.726 205H354.302L367.443 144.072Z" fill="#0022FF"/>
<path d="M41.818 24.072V1.40533H23.519L19.6609 19.293L41.818 24.072ZM47.6207 24.072L69.7812 28.8352L75.677 1.40533H47.6207V24.072ZM35.5887 80.0507L13.4281 75.2875L7.53237 102.717H35.5887V80.0507ZM69.2953 80.0507L91.3292 85.3692L98.0843 57.384H69.2953V80.0507ZM68.1007 85V107.667H85.947L90.1345 90.3185L68.1007 85ZM28.6767 85L6.51952 80.221L0.59987 107.667H28.6767V85ZM41.818 46.7387H47.6207V1.40533H41.818V46.7387ZM25.4601 19.3088L13.4281 75.2875L57.7492 84.8138L69.7812 28.8352L25.4601 19.3088ZM35.5887 102.717H69.2953V57.384H35.5887V102.717ZM47.2615 74.7321L46.0668 79.6815L90.1345 90.3185L91.3292 85.3692L47.2615 74.7321ZM68.1007 62.3333H28.6767V107.667H68.1007V62.3333ZM50.8338 89.779L63.9751 28.851L19.6609 19.293L6.51952 80.221L50.8338 89.779ZM87.4807 24.072V1.40533H69.1315L65.3108 19.3524L87.4807 24.072ZM128.355 24.072L150.473 29.0295L156.665 1.40533H128.355V24.072ZM127.246 29.0213V51.688H145.395L149.364 33.9788L127.246 29.0213ZM92.2593 29.0213V6.35466H73.9154L70.0908 24.2955L92.2593 29.0213ZM87.566 51.0373L65.3975 46.3115L59.558 73.704H87.566V51.0373ZM120.249 51.0373L142.367 55.9948L148.558 28.3707H120.249V51.0373ZM119.139 55.9867V78.6533H137.288L141.257 60.9441L119.139 55.9867ZM86.542 55.9867V33.32H68.1907L64.3716 51.2696L86.542 55.9867ZM81.422 80.0507L59.2516 75.3336L53.4253 102.717H81.422V80.0507ZM117.262 80.0507L139.38 85.0081L145.572 57.384H117.262V80.0507ZM116.153 85V107.667H134.301L138.271 89.9575L116.153 85ZM74.51 85L52.3401 80.2804L46.51 107.667H74.51V85ZM87.4807 46.7387H128.355V1.40533H87.4807V46.7387ZM106.237 19.1145L105.128 24.0639L149.364 33.9788L150.473 29.0295L106.237 19.1145ZM127.246 6.35466H92.2593V51.688H127.246V6.35466ZM70.0908 24.2955L65.3975 46.3115L109.735 55.7632L114.428 33.7472L70.0908 24.2955ZM87.566 73.704H120.249V28.3707H87.566V73.704ZM98.1308 46.0799L97.0214 51.0292L141.257 60.9441L142.367 55.9948L98.1308 46.0799ZM119.139 33.32H86.542V78.6533H119.139V33.32ZM64.3716 51.2696L59.2516 75.3336L103.592 84.7678L108.712 60.7038L64.3716 51.2696ZM81.422 102.717H117.262V57.384H81.422V102.717ZM95.1441 75.0932L94.0348 80.0425L138.271 89.9575L139.38 85.0081L95.1441 75.0932ZM116.153 62.3333H74.51V107.667H116.153V62.3333ZM96.6799 89.7196L109.651 28.7916L65.3108 19.3524L52.3401 80.2804L96.6799 89.7196ZM129.995 24.072V1.40533H111.538L107.799 19.4796L129.995 24.072ZM177.611 24.072L199.808 28.6644L205.448 1.40533H177.611V24.072ZM176.587 29.0213V51.688H195.044L198.784 33.6137L176.587 29.0213ZM155.681 29.0213V6.35466H137.423L133.534 24.1936L155.681 29.0213ZM143.478 85V107.667H161.736L165.625 89.8277L143.478 85ZM137.675 85L115.529 80.1723L109.535 107.667H137.675V85ZM149.878 29.0213L172.025 33.849L178.018 6.35466H149.878V29.0213ZM128.971 29.0213L106.775 24.4289L101.135 51.688H128.971V29.0213ZM129.995 46.7387H177.611V1.40533H129.995V46.7387ZM155.415 19.4796L154.391 24.4289L198.784 33.6137L199.808 28.6644L155.415 19.4796ZM176.587 6.35466H155.681V51.688H176.587V6.35466ZM133.534 24.1936L121.331 80.1723L165.625 89.8277L177.827 33.849L133.534 24.1936ZM143.478 62.3333H137.675V107.667H143.478V62.3333ZM159.822 89.8277L172.025 33.849L127.731 24.1936L115.529 80.1723L159.822 89.8277ZM149.878 6.35466H128.971V51.688H149.878V6.35466ZM151.168 33.6137L152.192 28.6644L107.799 19.4796L106.775 24.4289L151.168 33.6137ZM180.569 41.3947L174.174 19.649L161.03 23.5149L158.343 36.9494L180.569 41.3947ZM182.959 40.2L197.312 57.743L197.391 57.6784L197.47 57.613L182.959 40.2ZM184.58 38.2373L165.276 26.3578L164.933 26.915L164.623 27.4911L184.58 38.2373ZM185.689 35.848L207.193 43.0158L207.26 42.813L207.324 42.6089L185.689 35.848ZM186.457 33.1173L208.447 38.6148L215.488 10.4507H186.457V33.1173ZM182.873 33.1173L160.766 28.1119L154.501 55.784H182.873V33.1173ZM184.921 24.072V1.40533H166.813L162.814 19.0666L184.921 24.072ZM192.089 24.072L214.151 29.2723L220.72 1.40533H192.089V24.072ZM189.273 36.0187L211.263 41.5161L211.3 41.3678L211.335 41.219L189.273 36.0187ZM187.993 39.5173L167.961 28.9118L167.838 29.1448L167.72 29.3805L187.993 39.5173ZM186.201 41.9067L201.576 58.5622L201.576 58.5622L186.201 41.9067ZM183.556 43.6133L192.762 64.3264L192.762 64.3264L183.556 43.6133ZM179.887 44.808L157.66 40.3627L150.708 75.1211L185.176 66.8488L179.887 44.808ZM186.965 63.1403C190.145 62.2051 193.84 60.5841 197.312 57.743L168.605 22.657C170.826 20.8399 172.928 20.0154 174.174 19.649L186.965 63.1403ZM197.47 57.613C200.246 55.299 202.688 52.4185 204.537 48.9836L164.623 27.4911C165.676 25.5353 167.036 23.9632 168.448 22.787L197.47 57.613ZM203.884 50.1169C205.283 47.8441 206.378 45.4597 207.193 43.0158L164.186 28.6802C164.432 27.9429 164.787 27.1514 165.276 26.3578L203.884 50.1169ZM207.324 42.6089C207.737 41.2879 208.112 39.9564 208.447 38.6148L164.467 27.6199C164.348 28.0987 164.211 28.5877 164.054 29.0871L207.324 42.6089ZM186.457 10.4507H182.873V55.784H186.457V10.4507ZM204.98 38.1227L207.028 29.0774L162.814 19.0666L160.766 28.1119L204.98 38.1227ZM184.921 46.7387H192.089V1.40533H184.921V46.7387ZM170.027 18.8717L167.211 30.8183L211.335 41.219L214.151 29.2723L170.027 18.8717ZM167.283 30.5212C167.283 30.5212 167.284 30.5207 167.284 30.5197C167.284 30.5187 167.284 30.5172 167.285 30.5153C167.286 30.5113 167.288 30.5053 167.29 30.4974C167.294 30.4816 167.301 30.4573 167.311 30.4251C167.33 30.3613 167.362 30.2614 167.411 30.1295C167.505 29.8724 167.676 29.4496 167.961 28.9118L208.026 50.1228C209.597 47.1546 210.597 44.1796 211.263 41.5161L167.283 30.5212ZM167.72 29.3805C168.476 27.8674 169.53 26.4483 170.827 25.2511L201.576 58.5622C204.352 55.9997 206.6 52.9877 208.267 49.6542L167.72 29.3805ZM170.827 25.2511C172.102 24.0742 173.365 23.3383 174.35 22.9003L192.762 64.3264C195.795 62.9781 198.822 61.1045 201.576 58.5622L170.827 25.2511ZM174.35 22.9003C174.648 22.7679 174.828 22.7087 174.853 22.7002C174.882 22.691 174.803 22.7177 174.597 22.7672L185.176 66.8488C187.56 66.2767 190.162 65.482 192.762 64.3264L174.35 22.9003ZM202.113 49.2533L202.796 45.84L158.343 36.9494L157.66 40.3627L202.113 49.2533ZM240.245 41.8213H217.578V64.488H240.245V41.8213ZM239.135 35.1653L217.912 43.1241L218.064 43.5307L218.232 43.9311L239.135 35.1653ZM236.063 30.8133L221.552 48.2263L221.771 48.4085L221.994 48.585L236.063 30.8133ZM231.029 28.424L236.079 6.3272L236.079 6.32719L231.029 28.424ZM218.485 28.424L213.144 6.39538L213.066 6.41446L212.987 6.4341L218.485 28.424ZM213.535 30.6427L225.94 49.614L226.191 49.4498L226.437 49.279L213.535 30.6427ZM209.951 34.3973L190.451 22.8418L190.451 22.8418L209.951 34.3973ZM209.439 44.04L189.166 54.1768L189.476 54.7969L189.823 55.3968L209.439 44.04ZM211.743 46.856L196.817 63.9144L197.38 64.407L197.974 64.8614L211.743 46.856ZM215.071 48.7333L206.489 69.7124L206.904 69.8821L207.325 70.0353L215.071 48.7333ZM218.826 50.0133L211.953 71.613L212.107 71.6617L212.26 71.7083L218.826 50.0133ZM225.311 51.976L218.746 73.671L218.799 73.687L218.852 73.7028L225.311 51.976ZM231.37 54.024L223.275 75.1958L223.376 75.2346L223.478 75.2723L231.37 54.024ZM236.661 56.84L223.169 75.054L223.169 75.054L236.661 56.84ZM240.33 61.1067L220.33 71.7733L220.33 71.7733L240.33 61.1067ZM240.757 73.0533L218.984 66.7507L218.928 66.9445L218.875 67.1394L240.757 73.0533ZM237.343 79.1973L254.34 94.1941L254.447 94.0721L254.553 93.9486L237.343 79.1973ZM230.175 84.1467L239.381 104.86L239.381 104.86L230.175 84.1467ZM208.671 85L202.158 106.711L202.414 106.787L202.671 106.858L208.671 85ZM201.247 81.16L186.457 98.3361L186.711 98.5551L186.972 98.7665L201.247 81.16ZM196.554 74.504L175.54 82.9992L175.54 82.9992L196.554 74.504ZM195.189 64.9467V42.28H173.544L172.546 63.9016L195.189 64.9467ZM200.991 64.9467L223.62 66.2522L225.003 42.28H200.991V64.9467ZM201.845 72.5413L180.46 80.055L180.584 80.408L180.719 80.7568L201.845 72.5413ZM205.343 77.576L190.645 94.8308L190.799 94.9624L190.956 95.0911L205.343 77.576ZM211.061 80.4773L204.908 102.293L205.234 102.385L205.563 102.467L211.061 80.4773ZM224.629 80.5627L219.131 58.5728L219.131 58.5728L224.629 80.5627ZM230.175 78.2587L242.129 97.5172L242.216 97.4629L242.303 97.4079L230.175 78.2587ZM234.271 74.1627L215.312 61.7407L215.159 61.9731L215.013 62.2091L234.271 74.1627ZM234.442 63.0693L215.582 75.6425L215.887 76.1L216.214 76.5422L234.442 63.0693ZM230.858 59.7413L219.531 79.3749L219.531 79.3749L230.858 59.7413ZM225.994 57.6933L219.674 79.4612L219.674 79.4612L225.994 57.6933ZM220.789 56.1573L227.302 34.4466L227.302 34.4466L220.789 56.1573ZM214.815 54.3653L221.329 32.6546L221.186 32.6118L221.042 32.5708L214.815 54.3653ZM206.111 49.5013L189.882 65.3249L189.982 65.4276L190.084 65.5291L206.111 49.5013ZM204.575 32.3493L184.833 21.2127L184.784 21.299L184.737 21.3858L204.575 32.3493ZM209.439 26.9733L222.258 45.6672L222.313 45.6293L222.368 45.591L209.439 26.9733ZM216.351 23.816L210.63 1.88334L210.57 1.89884L210.511 1.91467L216.351 23.816ZM233.077 23.816L227.579 45.8059L227.796 45.8601L228.013 45.9099L233.077 23.816ZM240.074 27.0587L225.978 44.8092L226.264 45.0364L226.557 45.2542L240.074 27.0587ZM244.682 32.9467L223.949 42.1077L223.989 42.1986L224.03 42.2891L244.682 32.9467ZM246.047 41.8213V64.488H267.644L268.688 42.9168L246.047 41.8213ZM262.911 41.8213C262.911 37.2521 262.307 31.8093 260.038 26.3995L218.232 43.9311C217.817 42.9412 217.664 42.205 217.609 41.8784C217.555 41.5519 217.578 41.5072 217.578 41.8213H262.911ZM260.359 27.2065C258.401 21.987 255.097 16.9716 250.133 13.0416L221.994 48.585C219.761 46.8168 218.504 44.7027 217.912 43.1241L260.359 27.2065ZM250.574 13.4003C246.085 9.65932 241.028 7.45821 236.079 6.3272L225.978 50.5208C225.012 50.3 223.311 49.6918 221.552 48.2263L250.574 13.4003ZM236.079 6.32719C232.044 5.40493 227.984 5.07466 224.117 5.07466V50.408C225.483 50.408 226.031 50.5328 225.978 50.5208L236.079 6.32719ZM224.117 5.07466C220.389 5.07466 216.719 5.52873 213.144 6.39538L223.825 50.4526C224.005 50.409 224.09 50.408 224.117 50.408V5.07466ZM212.987 6.4341C208.632 7.52281 204.454 9.36093 200.633 12.0063L226.437 49.279C225.575 49.8764 224.696 50.2354 223.982 50.4139L212.987 6.4341ZM201.131 11.6714C196.72 14.5555 193.11 18.3558 190.451 22.8418L229.451 45.9529C228.613 47.3669 227.393 48.664 225.94 49.614L201.131 11.6714ZM190.451 22.8418C187.071 28.5465 185.919 34.5736 185.919 39.944H231.253C231.253 40.9909 231.011 43.3202 229.451 45.9528L190.451 22.8418ZM185.919 39.944C185.919 44.1893 186.677 49.1988 189.166 54.1768L229.713 33.9032C231.064 36.6056 231.253 38.8845 231.253 39.944H185.919ZM189.823 55.3968C191.649 58.5509 193.982 61.4335 196.817 63.9144L226.669 29.7976C227.684 30.6856 228.481 31.6908 229.056 32.6832L189.823 55.3968ZM197.974 64.8614C200.696 66.9427 203.587 68.5252 206.489 69.7124L223.654 27.7543C224.053 27.9175 224.725 28.2484 225.512 28.8506L197.974 64.8614ZM207.325 70.0353C208.862 70.5941 210.405 71.1202 211.953 71.613L225.699 28.4137C224.744 28.11 223.784 27.7828 222.818 27.4313L207.325 70.0353ZM212.26 71.7083L218.746 73.671L231.877 30.281L225.392 28.3184L212.26 71.7083ZM218.852 73.7028C220.438 74.1742 221.91 74.6739 223.275 75.1958L239.465 32.8522C236.962 31.895 234.395 31.0293 231.771 30.2492L218.852 73.7028ZM223.478 75.2723C223.688 75.3505 223.526 75.3183 223.169 75.054L250.153 38.626C246.724 36.0861 243.034 34.1766 239.262 32.7757L223.478 75.2723ZM223.169 75.054C221.969 74.1655 220.983 72.9976 220.33 71.7733L260.33 50.44C257.857 45.8024 254.424 41.7901 250.152 38.626L223.169 75.054ZM220.33 71.7733C219.015 69.3075 219.029 67.508 219.029 67.5067H264.362C264.362 62.3853 263.466 56.3192 260.33 50.44L220.33 71.7733ZM219.029 67.5067C219.029 67.1253 219.048 66.8294 219.066 66.631C219.085 66.4318 219.104 66.3066 219.112 66.2632C219.124 66.1891 219.103 66.3403 218.984 66.7507L262.529 79.356C263.5 76.0043 264.362 71.9147 264.362 67.5067H219.029ZM218.875 67.1394C219.347 65.394 220.083 64.5045 220.134 64.4461L254.553 93.9486C258.017 89.908 261.029 84.9225 262.638 78.9673L218.875 67.1394ZM220.347 64.2006C220.854 63.6262 221.258 63.326 221.392 63.233C221.52 63.1451 221.416 63.2352 220.97 63.4336L239.381 104.86C244.566 102.555 249.928 99.1937 254.34 94.1941L220.347 64.2006ZM220.97 63.4336C221.476 63.2087 221.579 63.2491 221.06 63.3374C220.546 63.4249 219.606 63.528 218.143 63.528V108.861C224.893 108.861 232.377 107.973 239.381 104.86L220.97 63.4336ZM218.143 63.528C216.49 63.528 215.376 63.3353 214.672 63.1419L202.671 106.858C207.769 108.258 212.97 108.861 218.143 108.861V63.528ZM215.185 63.2893C215.021 63.2401 215.006 63.2205 215.096 63.2671C215.19 63.3157 215.344 63.4085 215.523 63.5535L186.972 98.7665C191.583 102.505 196.756 105.09 202.158 106.711L215.185 63.2893ZM216.038 63.9839C216.429 64.3206 216.778 64.7081 217.063 65.1112C217.343 65.509 217.497 65.8328 217.568 66.0088L175.54 82.9992C177.881 88.7906 181.49 94.059 186.457 98.3361L216.038 63.9839ZM217.568 66.0088C217.789 66.554 217.839 66.8887 217.841 66.9038C217.842 66.9103 217.832 66.8417 217.825 66.6882C217.819 66.5344 217.817 66.3046 217.831 65.9917L172.546 63.9016C172.266 69.9694 172.94 76.57 175.54 82.9992L217.568 66.0088ZM195.189 87.6133H200.991V42.28H195.189V87.6133ZM178.362 63.6411C178.073 68.6625 178.458 74.3585 180.46 80.055L223.23 65.0277C223.5 65.7964 223.579 66.335 223.602 66.5331C223.623 66.7268 223.597 66.6532 223.62 66.2522L178.362 63.6411ZM180.719 80.7568C182.752 85.9846 186.001 90.8752 190.645 94.8308L220.042 60.3212C221.613 61.6599 222.53 63.1941 222.97 64.3259L180.719 80.7568ZM190.956 95.0911C195.238 98.6089 200.034 100.918 204.908 102.293L217.214 58.6618C217.65 58.7849 218.634 59.16 219.731 60.0609L190.956 95.0911ZM205.563 102.467C209.902 103.552 214.281 103.997 218.57 103.997V58.664C217.397 58.664 216.77 58.5405 216.558 58.4874L205.563 102.467ZM218.57 103.997C222.522 103.997 226.388 103.487 230.126 102.553L219.131 58.5728C218.773 58.6623 218.6 58.664 218.57 58.664V103.997ZM230.126 102.553C234.257 101.52 238.315 99.8842 242.129 97.5172L218.222 59.0002C218.736 58.6811 219.097 58.5814 219.131 58.5728L230.126 102.553ZM242.303 97.4079C246.779 94.5731 250.629 90.7902 253.53 86.1162L215.013 62.2091C215.866 60.8347 216.985 59.7824 218.047 59.1094L242.303 97.4079ZM253.231 86.5846C257.086 80.7016 258.559 74.2678 258.559 68.2747H213.226C213.226 66.8327 213.619 64.3242 215.312 61.7407L253.231 86.5846ZM258.559 68.2747C258.559 62.8448 257.337 55.91 252.67 49.5965L216.214 76.5422C213.482 72.8456 213.226 69.3809 213.226 68.2747H258.559ZM253.302 50.4961C250.378 46.1101 246.558 42.6308 242.185 40.1078L219.531 79.3749C218.116 78.5585 216.686 77.2979 215.582 75.6425L253.302 50.4961ZM242.185 40.1078C239.015 38.2788 235.695 36.9072 232.314 35.9255L219.674 79.4612C219.751 79.4834 219.768 79.493 219.737 79.4797C219.704 79.4662 219.632 79.4333 219.531 79.3749L242.185 40.1078ZM232.314 35.9255C230.613 35.4317 228.942 34.9387 227.302 34.4466L214.275 77.8681C216.048 78.4 217.848 78.931 219.674 79.4612L232.314 35.9255ZM227.302 34.4466L221.329 32.6546L208.302 76.0761L214.275 77.8681L227.302 34.4466ZM221.042 32.5708C220.732 32.4822 220.76 32.4559 221.009 32.5946C221.272 32.7418 221.688 33.0221 222.139 33.4736L190.084 65.5291C195.496 70.9418 201.997 74.2767 208.588 76.1599L221.042 32.5708ZM222.341 33.6777C223.586 34.9553 224.456 36.4325 224.957 37.8333C225.429 39.1532 225.45 40.0468 225.45 40.2H180.117C180.117 48.5693 182.613 57.87 189.882 65.3249L222.341 33.6777ZM225.45 40.2C225.45 40.0411 225.474 41.3946 224.414 43.3129L184.737 21.3858C181.287 27.6276 180.117 34.2148 180.117 40.2H225.45ZM224.318 43.4859C224.163 43.7592 223.912 44.1353 223.538 44.5487C223.161 44.9655 222.725 45.3467 222.258 45.6672L196.621 8.27947C191.618 11.71 187.689 16.1498 184.833 21.2127L224.318 43.4859ZM222.368 45.591C222.266 45.6619 222.177 45.7092 222.121 45.7348C222.067 45.7595 222.082 45.7466 222.192 45.7173L210.511 1.91467C205.576 3.23076 200.845 5.34535 196.51 8.35562L222.368 45.591ZM222.073 45.7487C222.803 45.5581 223.554 45.4587 224.373 45.4587V0.125327C219.73 0.125327 215.133 0.708584 210.63 1.88334L222.073 45.7487ZM224.373 45.4587C225.759 45.4587 226.802 45.6116 227.579 45.8059L238.574 1.8261C233.89 0.65508 229.131 0.125327 224.373 0.125327V45.4587ZM228.013 45.9099C227.891 45.8819 227.028 45.643 225.978 44.8092L254.17 9.30816C249.252 5.40234 243.724 3.00168 238.14 1.72206L228.013 45.9099ZM226.557 45.2542C225.918 44.7794 225.344 44.2166 224.869 43.6097C224.4 43.0101 224.112 42.476 223.949 42.1077L265.415 23.7856C262.878 18.0439 258.972 12.8608 253.591 8.86312L226.557 45.2542ZM224.03 42.2891C223.612 41.3644 223.473 40.6791 223.431 40.404C223.391 40.1414 223.432 40.2177 223.407 40.7258L268.688 42.9168C268.974 36.9885 268.317 30.1997 265.334 23.6042L224.03 42.2891ZM246.047 19.1547H240.245V64.488H246.047V19.1547ZM285.318 24.072V1.40533H267.019L263.161 19.293L285.318 24.072ZM291.121 24.072L313.281 28.8352L319.177 1.40533H291.121V24.072ZM279.089 80.0507L256.928 75.2875L251.032 102.717H279.089V80.0507ZM312.795 80.0507L334.829 85.3692L341.584 57.384H312.795V80.0507ZM311.601 85V107.667H329.447L333.635 90.3185L311.601 85ZM272.177 85L250.02 80.221L244.1 107.667H272.177V85ZM285.318 46.7387H291.121V1.40533H285.318V46.7387ZM268.96 19.3088L256.928 75.2875L301.249 84.8138L313.281 28.8352L268.96 19.3088ZM279.089 102.717H312.795V57.384H279.089V102.717ZM290.761 74.7321L289.567 79.6815L333.635 90.3185L334.829 85.3692L290.761 74.7321ZM311.601 62.3333H272.177V107.667H311.601V62.3333ZM294.334 89.779L307.475 28.851L263.161 19.293L250.02 80.221L294.334 89.779ZM330.895 24.072V1.40533H312.521L308.719 19.3821L330.895 24.072ZM336.698 24.072L358.874 28.7619L364.66 1.40533H336.698V24.072ZM323.813 85V107.667H342.187L345.989 89.6899L323.813 85ZM318.01 85L295.834 80.3101L290.048 107.667H318.01V85ZM330.895 46.7387H336.698V1.40533H330.895V46.7387ZM314.522 19.3821L301.637 80.3101L345.989 89.6899L358.874 28.7619L314.522 19.3821ZM323.813 62.3333H318.01V107.667H323.813V62.3333ZM340.186 89.6899L353.072 28.7619L308.719 19.3821L295.834 80.3101L340.186 89.6899ZM382.495 41.8213H359.828V64.488H382.495V41.8213ZM381.385 35.1653L360.162 43.1241L360.314 43.5307L360.482 43.9311L381.385 35.1653ZM378.313 30.8133L363.802 48.2263L364.021 48.4085L364.244 48.585L378.313 30.8133ZM373.279 28.424L378.329 6.3272L378.329 6.32719L373.279 28.424ZM360.735 28.424L355.394 6.39538L355.316 6.41446L355.237 6.4341L360.735 28.424ZM355.785 30.6427L368.19 49.614L368.441 49.4498L368.687 49.279L355.785 30.6427ZM352.201 34.3973L332.701 22.8418L332.701 22.8418L352.201 34.3973ZM351.689 44.04L331.416 54.1768L331.726 54.7969L332.073 55.3968L351.689 44.04ZM353.993 46.856L339.067 63.9144L339.63 64.407L340.224 64.8614L353.993 46.856ZM357.321 48.7333L348.739 69.7124L349.154 69.8821L349.575 70.0353L357.321 48.7333ZM361.076 50.0133L354.203 71.613L354.357 71.6617L354.51 71.7083L361.076 50.0133ZM367.561 51.976L360.996 73.671L361.049 73.687L361.102 73.7028L367.561 51.976ZM373.62 54.024L365.525 75.1958L365.626 75.2346L365.728 75.2723L373.62 54.024ZM378.911 56.84L365.419 75.054L365.419 75.054L378.911 56.84ZM382.58 61.1067L362.58 71.7733L362.58 71.7733L382.58 61.1067ZM383.007 73.0533L361.234 66.7507L361.178 66.9445L361.125 67.1394L383.007 73.0533ZM379.593 79.1973L396.59 94.1941L396.697 94.0721L396.803 93.9486L379.593 79.1973ZM372.425 84.1467L381.631 104.86L381.631 104.86L372.425 84.1467ZM350.921 85L344.408 106.711L344.664 106.787L344.921 106.858L350.921 85ZM343.497 81.16L328.707 98.3361L328.961 98.5551L329.222 98.7665L343.497 81.16ZM338.804 74.504L317.79 82.9992L317.79 82.9992L338.804 74.504ZM337.439 64.9467V42.28H315.794L314.796 63.9016L337.439 64.9467ZM343.241 64.9467L365.87 66.2522L367.253 42.28H343.241V64.9467ZM344.095 72.5413L322.71 80.055L322.834 80.408L322.969 80.7568L344.095 72.5413ZM347.593 77.576L332.895 94.8308L333.049 94.9624L333.206 95.0911L347.593 77.576ZM353.311 80.4773L347.158 102.293L347.484 102.385L347.813 102.467L353.311 80.4773ZM366.879 80.5627L361.381 58.5728L361.381 58.5728L366.879 80.5627ZM372.425 78.2587L384.379 97.5172L384.466 97.4629L384.553 97.4079L372.425 78.2587ZM376.521 74.1627L357.562 61.7407L357.409 61.9731L357.263 62.2091L376.521 74.1627ZM376.692 63.0693L357.832 75.6425L358.137 76.1L358.464 76.5422L376.692 63.0693ZM373.108 59.7413L361.781 79.3749L361.781 79.3749L373.108 59.7413ZM368.244 57.6933L361.924 79.4612L361.924 79.4612L368.244 57.6933ZM363.039 56.1573L369.552 34.4466L369.552 34.4466L363.039 56.1573ZM357.065 54.3653L363.579 32.6546L363.436 32.6118L363.292 32.5708L357.065 54.3653ZM348.361 49.5013L332.132 65.3249L332.232 65.4276L332.334 65.5291L348.361 49.5013ZM346.825 32.3493L327.083 21.2127L327.034 21.299L326.987 21.3858L346.825 32.3493ZM351.689 26.9733L364.508 45.6672L364.563 45.6293L364.618 45.591L351.689 26.9733ZM358.601 23.816L352.88 1.88334L352.82 1.89884L352.761 1.91467L358.601 23.816ZM375.327 23.816L369.829 45.8059L370.046 45.8601L370.263 45.9099L375.327 23.816ZM382.324 27.0587L368.228 44.8092L368.514 45.0364L368.807 45.2542L382.324 27.0587ZM386.932 32.9467L366.199 42.1077L366.239 42.1986L366.28 42.2891L386.932 32.9467ZM388.297 41.8213V64.488H409.894L410.938 42.9168L388.297 41.8213ZM405.161 41.8213C405.161 37.2521 404.557 31.8093 402.288 26.3995L360.482 43.9311C360.067 42.9412 359.914 42.205 359.859 41.8784C359.805 41.5519 359.828 41.5072 359.828 41.8213H405.161ZM402.609 27.2065C400.651 21.987 397.347 16.9716 392.383 13.0416L364.244 48.585C362.011 46.8168 360.754 44.7027 360.162 43.1241L402.609 27.2065ZM392.824 13.4003C388.335 9.65932 383.278 7.45821 378.329 6.3272L368.228 50.5208C367.262 50.3 365.561 49.6918 363.802 48.2263L392.824 13.4003ZM378.329 6.32719C374.294 5.40493 370.234 5.07466 366.367 5.07466V50.408C367.733 50.408 368.281 50.5328 368.228 50.5208L378.329 6.32719ZM366.367 5.07466C362.639 5.07466 358.969 5.52873 355.394 6.39538L366.075 50.4526C366.255 50.409 366.34 50.408 366.367 50.408V5.07466ZM355.237 6.4341C350.882 7.52281 346.704 9.36093 342.883 12.0063L368.687 49.279C367.825 49.8764 366.946 50.2354 366.232 50.4139L355.237 6.4341ZM343.381 11.6714C338.97 14.5555 335.36 18.3558 332.701 22.8418L371.701 45.9529C370.863 47.3669 369.643 48.664 368.19 49.614L343.381 11.6714ZM332.701 22.8418C329.321 28.5465 328.169 34.5736 328.169 39.944H373.503C373.503 40.9909 373.261 43.3202 371.701 45.9528L332.701 22.8418ZM328.169 39.944C328.169 44.1893 328.927 49.1988 331.416 54.1768L371.963 33.9032C373.314 36.6056 373.503 38.8845 373.503 39.944H328.169ZM332.073 55.3968C333.899 58.5509 336.232 61.4335 339.067 63.9144L368.919 29.7976C369.934 30.6856 370.731 31.6908 371.306 32.6832L332.073 55.3968ZM340.224 64.8614C342.946 66.9427 345.837 68.5252 348.739 69.7124L365.904 27.7543C366.303 27.9175 366.975 28.2484 367.762 28.8506L340.224 64.8614ZM349.575 70.0353C351.112 70.5941 352.655 71.1202 354.203 71.613L367.949 28.4137C366.994 28.11 366.034 27.7828 365.068 27.4313L349.575 70.0353ZM354.51 71.7083L360.996 73.671L374.127 30.281L367.642 28.3184L354.51 71.7083ZM361.102 73.7028C362.688 74.1742 364.16 74.6739 365.525 75.1958L381.715 32.8522C379.212 31.895 376.645 31.0293 374.021 30.2492L361.102 73.7028ZM365.728 75.2723C365.938 75.3505 365.776 75.3183 365.419 75.054L392.403 38.626C388.974 36.0861 385.284 34.1766 381.512 32.7757L365.728 75.2723ZM365.419 75.054C364.219 74.1655 363.233 72.9976 362.58 71.7733L402.58 50.44C400.107 45.8024 396.674 41.7901 392.402 38.626L365.419 75.054ZM362.58 71.7733C361.265 69.3075 361.279 67.508 361.279 67.5067H406.612C406.612 62.3853 405.716 56.3192 402.58 50.44L362.58 71.7733ZM361.279 67.5067C361.279 67.1253 361.298 66.8294 361.316 66.631C361.335 66.4318 361.354 66.3066 361.362 66.2632C361.374 66.1891 361.353 66.3403 361.234 66.7507L404.779 79.356C405.75 76.0043 406.612 71.9147 406.612 67.5067H361.279ZM361.125 67.1394C361.597 65.394 362.333 64.5045 362.384 64.4461L396.803 93.9486C400.267 89.908 403.279 84.9225 404.888 78.9673L361.125 67.1394ZM362.597 64.2006C363.104 63.6262 363.508 63.326 363.642 63.233C363.77 63.1451 363.666 63.2352 363.22 63.4336L381.631 104.86C386.816 102.555 392.178 99.1937 396.59 94.1941L362.597 64.2006ZM363.22 63.4336C363.726 63.2087 363.829 63.2491 363.31 63.3374C362.796 63.4249 361.856 63.528 360.393 63.528V108.861C367.143 108.861 374.627 107.973 381.631 104.86L363.22 63.4336ZM360.393 63.528C358.74 63.528 357.626 63.3353 356.922 63.1419L344.921 106.858C350.019 108.258 355.22 108.861 360.393 108.861V63.528ZM357.435 63.2893C357.271 63.2401 357.256 63.2205 357.346 63.2671C357.44 63.3157 357.594 63.4085 357.773 63.5535L329.222 98.7665C333.833 102.505 339.006 105.09 344.408 106.711L357.435 63.2893ZM358.288 63.9839C358.679 64.3206 359.028 64.7081 359.313 65.1112C359.593 65.509 359.747 65.8328 359.818 66.0088L317.79 82.9992C320.131 88.7906 323.74 94.059 328.707 98.3361L358.288 63.9839ZM359.818 66.0088C360.039 66.554 360.089 66.8887 360.091 66.9038C360.092 66.9103 360.082 66.8417 360.075 66.6882C360.069 66.5344 360.067 66.3046 360.081 65.9917L314.796 63.9016C314.516 69.9694 315.19 76.57 317.79 82.9992L359.818 66.0088ZM337.439 87.6133H343.241V42.28H337.439V87.6133ZM320.612 63.6411C320.323 68.6625 320.708 74.3585 322.71 80.055L365.48 65.0277C365.75 65.7964 365.829 66.335 365.852 66.5331C365.873 66.7268 365.847 66.6532 365.87 66.2522L320.612 63.6411ZM322.969 80.7568C325.002 85.9846 328.251 90.8752 332.895 94.8308L362.292 60.3212C363.863 61.6599 364.78 63.1941 365.22 64.3259L322.969 80.7568ZM333.206 95.0911C337.488 98.6089 342.284 100.918 347.158 102.293L359.464 58.6618C359.9 58.7849 360.884 59.16 361.981 60.0609L333.206 95.0911ZM347.813 102.467C352.152 103.552 356.531 103.997 360.82 103.997V58.664C359.647 58.664 359.02 58.5405 358.808 58.4874L347.813 102.467ZM360.82 103.997C364.772 103.997 368.638 103.487 372.376 102.553L361.381 58.5728C361.023 58.6623 360.85 58.664 360.82 58.664V103.997ZM372.376 102.553C376.507 101.52 380.565 99.8842 384.379 97.5172L360.472 59.0002C360.986 58.6811 361.347 58.5814 361.381 58.5728L372.376 102.553ZM384.553 97.4079C389.029 94.5731 392.879 90.7902 395.78 86.1162L357.263 62.2091C358.116 60.8347 359.235 59.7824 360.297 59.1094L384.553 97.4079ZM395.481 86.5846C399.336 80.7016 400.809 74.2678 400.809 68.2747H355.476C355.476 66.8327 355.869 64.3242 357.562 61.7407L395.481 86.5846ZM400.809 68.2747C400.809 62.8448 399.587 55.91 394.92 49.5965L358.464 76.5422C355.732 72.8456 355.476 69.3809 355.476 68.2747H400.809ZM395.552 50.4961C392.628 46.1101 388.808 42.6308 384.435 40.1078L361.781 79.3749C360.366 78.5585 358.936 77.2979 357.832 75.6425L395.552 50.4961ZM384.435 40.1078C381.265 38.2788 377.945 36.9072 374.564 35.9255L361.924 79.4612C362.001 79.4834 362.018 79.493 361.987 79.4797C361.954 79.4662 361.882 79.4333 361.781 79.3749L384.435 40.1078ZM374.564 35.9255C372.863 35.4317 371.192 34.9387 369.552 34.4466L356.525 77.8681C358.298 78.4 360.098 78.931 361.924 79.4612L374.564 35.9255ZM369.552 34.4466L363.579 32.6546L350.552 76.0761L356.525 77.8681L369.552 34.4466ZM363.292 32.5708C362.982 32.4822 363.01 32.4559 363.259 32.5946C363.522 32.7418 363.938 33.0221 364.389 33.4736L332.334 65.5291C337.746 70.9418 344.247 74.2767 350.838 76.1599L363.292 32.5708ZM364.591 33.6777C365.836 34.9553 366.706 36.4325 367.207 37.8333C367.679 39.1532 367.7 40.0468 367.7 40.2H322.367C322.367 48.5693 324.863 57.87 332.132 65.3249L364.591 33.6777ZM367.7 40.2C367.7 40.0411 367.724 41.3946 366.664 43.3129L326.987 21.3858C323.537 27.6276 322.367 34.2148 322.367 40.2H367.7ZM366.568 43.4859C366.413 43.7592 366.162 44.1353 365.788 44.5487C365.411 44.9655 364.975 45.3467 364.508 45.6672L338.871 8.27947C333.868 11.71 329.939 16.1498 327.083 21.2127L366.568 43.4859ZM364.618 45.591C364.516 45.6619 364.427 45.7092 364.371 45.7348C364.317 45.7595 364.332 45.7466 364.442 45.7173L352.761 1.91467C347.826 3.23076 343.095 5.34535 338.76 8.35562L364.618 45.591ZM364.323 45.7487C365.053 45.5581 365.804 45.4587 366.623 45.4587V0.125327C361.98 0.125327 357.383 0.708584 352.88 1.88334L364.323 45.7487ZM366.623 45.4587C368.009 45.4587 369.052 45.6116 369.829 45.8059L380.824 1.8261C376.14 0.65508 371.381 0.125327 366.623 0.125327V45.4587ZM370.263 45.9099C370.141 45.8819 369.278 45.643 368.228 44.8092L396.42 9.30816C391.502 5.40234 385.974 3.00168 380.39 1.72206L370.263 45.9099ZM368.807 45.2542C368.168 44.7794 367.594 44.2166 367.119 43.6097C366.65 43.0101 366.362 42.476 366.199 42.1077L407.665 23.7856C405.128 18.0439 401.222 12.8608 395.841 8.86312L368.807 45.2542ZM366.28 42.2891C365.862 41.3644 365.723 40.6791 365.681 40.404C365.641 40.1414 365.682 40.2177 365.657 40.7258L410.938 42.9168C411.224 36.9885 410.567 30.1997 407.584 23.6042L366.28 42.2891ZM388.297 19.1547H382.495V64.488H388.297V19.1547ZM397.162 24.072V1.40533H378.705L374.965 19.4796L397.162 24.072ZM444.778 24.072L466.975 28.6644L472.614 1.40533H444.778V24.072ZM443.754 29.0213V51.688H462.211L465.951 33.6137L443.754 29.0213ZM422.847 29.0213V6.35466H404.589L400.701 24.1936L422.847 29.0213ZM410.645 85V107.667H428.903L432.791 89.8277L410.645 85ZM404.842 85L382.695 80.1723L376.702 107.667H404.842V85ZM417.045 29.0213L439.191 33.849L445.185 6.35466H417.045V29.0213ZM396.138 29.0213L373.941 24.4289L368.302 51.688H396.138V29.0213ZM397.162 46.7387H444.778V1.40533H397.162V46.7387ZM422.581 19.4796L421.557 24.4289L465.951 33.6137L466.975 28.6644L422.581 19.4796ZM443.754 6.35466H422.847V51.688H443.754V6.35466ZM400.701 24.1936L388.498 80.1723L432.791 89.8277L444.994 33.849L400.701 24.1936ZM410.645 62.3333H404.842V107.667H410.645V62.3333ZM426.989 89.8277L439.191 33.849L394.898 24.1936L382.695 80.1723L426.989 89.8277ZM417.045 6.35466H396.138V51.688H417.045V6.35466ZM418.335 33.6137L419.359 28.6644L374.965 19.4796L373.941 24.4289L418.335 33.6137ZM451.064 24.072V1.40533H432.715L428.894 19.3524L451.064 24.072ZM491.939 24.072L514.057 29.0295L520.248 1.40533H491.939V24.072ZM490.829 29.0213V51.688H508.978L512.947 33.9788L490.829 29.0213ZM455.843 29.0213V6.35466H437.499L433.674 24.2955L455.843 29.0213ZM451.149 51.0373L428.981 46.3115L423.141 73.704H451.149V51.0373ZM483.832 51.0373L505.95 55.9948L512.142 28.3707H483.832V51.0373ZM482.723 55.9867V78.6533H500.871L504.841 60.9441L482.723 55.9867ZM450.125 55.9867V33.32H431.774L427.955 51.2696L450.125 55.9867ZM445.005 80.0507L422.835 75.3336L417.009 102.717H445.005V80.0507ZM480.845 80.0507L502.963 85.0081L509.155 57.384H480.845V80.0507ZM479.736 85V107.667H497.885L501.854 89.9575L479.736 85ZM438.093 85L415.923 80.2804L410.093 107.667H438.093V85ZM451.064 46.7387H491.939V1.40533H451.064V46.7387ZM469.821 19.1145L468.711 24.0639L512.947 33.9788L514.057 29.0295L469.821 19.1145ZM490.829 6.35466H455.843V51.688H490.829V6.35466ZM433.674 24.2955L428.981 46.3115L473.318 55.7632L478.011 33.7472L433.674 24.2955ZM451.149 73.704H483.832V28.3707H451.149V73.704ZM461.714 46.0799L460.605 51.0292L504.841 60.9441L505.95 55.9948L461.714 46.0799ZM482.723 33.32H450.125V78.6533H482.723V33.32ZM427.955 51.2696L422.835 75.3336L467.176 84.7678L472.296 60.7038L427.955 51.2696ZM445.005 102.717H480.845V57.384H445.005V102.717ZM458.727 75.0932L457.618 80.0425L501.854 89.9575L502.963 85.0081L458.727 75.0932ZM479.736 62.3333H438.093V107.667H479.736V62.3333ZM460.263 89.7196L473.234 28.7916L428.894 19.3524L415.923 80.2804L460.263 89.7196ZM499.808 24.072V1.40533H481.509L477.651 19.293L499.808 24.072ZM506.379 24.072L527.074 14.8271L521.079 1.40533H506.379V24.072ZM530.699 78.5147L510.003 87.7596L515.999 101.181H530.699V78.5147ZM530.869 78.5147V101.181H549.326L553.066 83.1071L530.869 78.5147ZM542.133 24.072V1.40533H523.676L519.937 19.4796L542.133 24.072ZM547.765 24.072L569.91 28.9102L575.919 1.40533H547.765V24.072ZM534.453 85V107.667H552.702L556.598 89.8382L534.453 85ZM528.053 85L507.358 94.2449L513.353 107.667H528.053V85ZM503.733 30.5573L524.429 21.3124L518.433 7.89066H503.733V30.5573ZM503.563 30.5573V7.89066H485.134L481.373 25.9316L503.563 30.5573ZM492.213 85V107.667H510.642L514.403 89.6257L492.213 85ZM486.667 85L464.51 80.221L458.59 107.667H486.667V85ZM499.808 46.7387H506.379V1.40533H499.808V46.7387ZM485.683 33.3169L510.003 87.7596L551.394 69.2697L527.074 14.8271L485.683 33.3169ZM530.699 101.181H530.869V55.848H530.699V101.181ZM553.066 83.1071L564.33 28.6644L519.937 19.4796L508.673 73.9223L553.066 83.1071ZM542.133 46.7387H547.765V1.40533H542.133V46.7387ZM525.621 19.2337L512.309 80.1618L556.598 89.8382L569.91 28.9102L525.621 19.2337ZM534.453 62.3333H528.053V107.667H534.453V62.3333ZM548.749 75.7551L524.429 21.3124L483.038 39.8022L507.358 94.2449L548.749 75.7551ZM503.733 7.89066H503.563V53.224H503.733V7.89066ZM481.373 25.9316L470.024 80.3743L514.403 89.6257L525.752 35.1831L481.373 25.9316ZM492.213 62.3333H486.667V107.667H492.213V62.3333ZM508.824 89.779L521.965 28.851L477.651 19.293L464.51 80.221L508.824 89.779ZM239.079 84.072V61.4053H220.622L216.882 79.4796L239.079 84.072ZM286.695 84.072L308.891 88.6644L314.531 61.4053H286.695V84.072ZM285.671 89.0213V111.688H304.128L307.867 93.6137L285.671 89.0213ZM264.764 89.0213V66.3547H246.506L242.617 84.1936L264.764 89.0213ZM252.561 145V167.667H270.819L274.708 149.828L252.561 145ZM246.759 145L224.612 140.172L218.619 167.667H246.759V145ZM258.961 89.0213L281.108 93.849L287.101 66.3547H258.961V89.0213ZM238.055 89.0213L215.858 84.4289L210.218 111.688H238.055V89.0213ZM239.079 106.739H286.695V61.4053H239.079V106.739ZM264.498 79.4796L263.474 84.4289L307.867 93.6137L308.891 88.6644L264.498 79.4796ZM285.671 66.3547H264.764V111.688H285.671V66.3547ZM242.617 84.1936L230.415 140.172L274.708 149.828L286.911 93.849L242.617 84.1936ZM252.561 122.333H246.759V167.667H252.561V122.333ZM268.905 149.828L281.108 93.849L236.815 84.1936L224.612 140.172L268.905 149.828ZM258.961 66.3547H238.055V111.688H258.961V66.3547ZM260.251 93.6137L261.275 88.6644L216.882 79.4796L215.858 84.4289L260.251 93.6137ZM296.821 144.317L288.269 165.309L288.335 165.336L288.402 165.363L296.821 144.317ZM288.97 139.112L272.33 154.504L272.53 154.72L272.735 154.93L288.97 139.112ZM284.106 130.92L262.641 138.203L262.699 138.374L262.76 138.544L284.106 130.92ZM284.703 106.259L306.234 113.345L306.234 113.345L284.703 106.259ZM291.189 94.312L308.719 108.681L308.776 108.611L308.833 108.541L291.189 94.312ZM301.599 85.9493L311.736 106.223L311.848 106.167L311.96 106.11L301.599 85.9493ZM326.09 84.6693L317.672 105.715L317.838 105.781L318.005 105.845L326.09 84.6693ZM334.026 89.7893L317.791 105.608L317.894 105.713L317.998 105.817L334.026 89.7893ZM339.061 97.8107L317.759 105.557L317.82 105.727L317.885 105.896L339.061 97.8107ZM338.634 122.643L317.052 115.715L317.025 115.798L316.999 115.882L338.634 122.643ZM332.234 134.76L349.764 149.129L349.821 149.059L349.878 148.989L332.234 134.76ZM321.738 143.123L331.875 163.396L331.93 163.369L331.985 163.341L321.738 143.123ZM333.855 100.968L312.009 107.011L312.068 107.225L312.132 107.439L333.855 100.968ZM330.271 94.056L312.572 108.216L312.794 108.494L313.026 108.765L330.271 94.056ZM324.213 89.448L314.653 110L314.852 110.093L315.052 110.181L324.213 89.448ZM303.477 90.6427L314.541 110.425L314.597 110.394L314.652 110.363L303.477 90.6427ZM295.029 98.152L313.243 111.644L313.302 111.564L313.36 111.484L295.029 98.152ZM289.909 108.733L268.114 102.506L268.084 102.611L268.055 102.716L289.909 108.733ZM289.653 129.299L310.955 121.552L310.955 121.552L289.653 129.299ZM293.578 135.784L277.042 151.287L277.292 151.553L277.55 151.812L293.578 135.784ZM299.978 139.88L291.809 161.023L291.809 161.023L299.978 139.88ZM319.519 138.515L308.31 118.814L308.236 118.856L308.162 118.898L319.519 138.515ZM327.882 131.261L309.954 117.392L309.935 117.417L309.916 117.441L327.882 131.261ZM333.173 121.107L311.637 114.035L311.605 114.135L311.573 114.234L333.173 121.107ZM307.487 123.528C305.875 123.528 305.251 123.277 305.239 123.272L288.402 165.363C294.648 167.861 301.136 168.861 307.487 168.861V123.528ZM305.373 123.326C305.259 123.279 305.183 123.242 305.138 123.219C305.094 123.196 305.077 123.184 305.08 123.186C305.083 123.188 305.1 123.2 305.126 123.221C305.152 123.243 305.179 123.268 305.205 123.294L272.735 154.93C277.226 159.539 282.515 162.965 288.269 165.309L305.373 123.326ZM305.61 123.72C305.665 123.78 305.683 123.814 305.665 123.785C305.646 123.752 305.562 123.605 305.452 123.296L262.76 138.544C264.832 144.345 267.966 149.785 272.33 154.504L305.61 123.72ZM305.571 123.637C305.395 123.119 305.151 122.095 305.151 120.339H259.818C259.818 126.319 260.655 132.349 262.641 138.203L305.571 123.637ZM305.151 120.339C305.151 117.771 305.533 115.475 306.234 113.345L263.173 99.1726C260.916 106.031 259.818 113.122 259.818 120.339H305.151ZM306.234 113.345C306.888 111.358 307.74 109.875 308.719 108.681L273.658 79.943C268.948 85.6896 265.477 92.1712 263.173 99.1726L306.234 113.345ZM308.833 108.541C309.615 107.571 310.515 106.834 311.736 106.223L291.462 65.6756C284.492 69.161 278.452 73.9984 273.545 80.0829L308.833 108.541ZM311.96 106.11C312.437 105.865 313.468 105.459 315.594 105.459V60.1253C307.253 60.1253 298.954 61.8243 291.239 65.7889L311.96 106.11ZM315.594 105.459C317.001 105.459 317.586 105.681 317.672 105.715L334.508 63.6239C328.336 61.155 321.924 60.1253 315.594 60.1253V105.459ZM318.005 105.845C318.191 105.916 318.214 105.945 318.132 105.892C318.094 105.867 318.041 105.83 317.978 105.778C317.914 105.727 317.851 105.669 317.791 105.608L350.261 73.9711C345.621 69.2097 340.124 65.765 334.175 63.4937L318.005 105.845ZM317.998 105.817C317.952 105.771 317.905 105.718 317.859 105.661C317.813 105.603 317.777 105.551 317.75 105.509C317.693 105.417 317.707 105.415 317.759 105.557L360.363 90.0645C358.164 84.017 354.756 78.4641 350.054 73.7616L317.998 105.817ZM317.885 105.896C317.954 106.076 318.186 106.779 318.186 108.307H363.519C363.519 102.097 362.557 95.8031 360.236 89.7254L317.885 105.896ZM318.186 108.307C318.186 110.959 317.796 113.397 317.052 115.715L360.216 129.57C362.43 122.672 363.519 115.553 363.519 108.307H318.186ZM316.999 115.882C316.381 117.859 315.554 119.335 314.59 120.531L349.878 148.989C354.602 143.131 358.042 136.529 360.269 129.404L316.999 115.882ZM314.704 120.391C313.93 121.335 312.944 122.168 311.491 122.905L331.985 163.341C338.838 159.868 344.849 155.125 349.764 149.129L314.704 120.391ZM311.601 122.849C311.172 123.064 310.004 123.528 307.487 123.528V168.861C315.78 168.861 324.112 167.278 331.875 163.396L311.601 122.849ZM357.717 109.757C357.717 104.685 357.082 99.5443 355.579 94.4972L312.132 107.439C312.221 107.739 312.383 108.458 312.383 109.757H357.717ZM355.702 94.9254C354.161 89.3562 351.505 84.0219 347.517 79.3465L313.026 108.765C312.709 108.394 312.462 108.014 312.282 107.669C312.106 107.328 312.031 107.09 312.009 107.011L355.702 94.9254ZM347.971 79.8963C343.99 74.9195 338.985 71.1946 333.374 68.7151L315.052 110.181C314.742 110.044 314.314 109.813 313.84 109.452C313.362 109.089 312.931 108.665 312.572 108.216L347.971 79.8963ZM333.772 68.8956C327.693 66.0683 321.383 65.0747 315.509 65.0747V110.408C316.348 110.408 315.84 110.552 314.653 110L333.772 68.8956ZM315.509 65.0747C307.671 65.0747 299.675 66.7439 292.302 70.9222L314.652 110.363C314.429 110.489 314.299 110.516 314.358 110.502C314.435 110.483 314.789 110.408 315.509 110.408V65.0747ZM292.412 70.8601C286.178 74.347 280.888 79.0575 276.697 84.8201L313.36 111.484C313.72 110.989 314.063 110.693 314.541 110.425L292.412 70.8601ZM276.815 84.6602C272.789 90.0948 269.937 96.126 268.114 102.506L311.703 114.96C312.156 113.376 312.717 112.353 313.243 111.644L276.815 84.6602ZM268.055 102.716C266.424 108.641 265.621 114.706 265.621 120.851H310.954C310.954 118.69 311.232 116.677 311.762 114.751L268.055 102.716ZM265.621 120.851C265.621 126.17 266.395 131.667 268.351 137.045L310.955 121.552C311.09 121.924 310.954 121.79 310.954 120.851H265.621ZM268.351 137.045C270.237 142.232 273.1 147.082 277.042 151.287L310.114 120.281C310.355 120.538 310.555 120.807 310.708 121.06C310.859 121.31 310.932 121.489 310.955 121.552L268.351 137.045ZM277.55 151.812C281.714 155.976 286.585 159.005 291.809 161.023L308.147 118.737C308.227 118.767 308.435 118.857 308.719 119.039C309.007 119.224 309.314 119.465 309.606 119.756L277.55 151.812ZM291.809 161.023C297.312 163.15 302.96 163.997 308.426 163.997V118.664C308.027 118.664 307.831 118.633 307.803 118.628C307.781 118.624 307.91 118.645 308.147 118.737L291.809 161.023ZM308.426 163.997C316.124 163.997 323.818 162.217 330.876 158.131L308.162 118.898C308.263 118.84 308.371 118.787 308.48 118.743C308.589 118.699 308.678 118.672 308.737 118.657C308.864 118.625 308.786 118.664 308.426 118.664V163.997ZM330.729 158.216C336.603 154.873 341.702 150.472 345.848 145.081L309.916 117.441C309.511 117.967 309.035 118.401 308.31 118.814L330.729 158.216ZM345.81 145.13C349.821 139.946 352.8 134.177 354.772 127.979L311.573 114.234C311.156 115.546 310.608 116.547 309.954 117.392L345.81 145.13ZM354.708 128.178C356.658 122.241 357.717 116.074 357.717 109.757H312.383C312.383 110.95 312.191 112.35 311.637 114.035L354.708 128.178ZM180.753 144.072V121.405H154.254L158.36 147.585L180.753 144.072ZM186.726 144.072L209.178 140.958L206.466 121.405H186.726V144.072ZM194.492 200.051L172.04 203.165L174.752 222.717H194.492V200.051ZM194.662 200.051V222.717H207.972L214.457 211.094L194.662 200.051ZM225.894 144.072V121.405H212.585L206.1 133.028L225.894 144.072ZM232.209 144.072L251.842 155.401L271.458 121.405H232.209V144.072ZM197.052 205V227.667H210.142L216.684 216.329L197.052 205ZM190.31 205L167.917 208.513L170.922 227.667H190.31V205ZM180.753 166.739H186.726V121.405H180.753V166.739ZM164.275 147.186L172.04 203.165L216.943 196.936L209.178 140.958L164.275 147.186ZM194.492 222.717H194.662V177.384H194.492V222.717ZM214.457 211.094L245.689 155.116L206.1 133.028L174.868 189.007L214.457 211.094ZM225.894 166.739H232.209V121.405H225.894V166.739ZM212.576 132.743L177.419 193.671L216.684 216.329L251.842 155.401L212.576 132.743ZM197.052 182.333H190.31V227.667H197.052V182.333ZM212.703 201.487L203.146 140.559L158.36 147.585L167.917 208.513L212.703 201.487ZM239.187 144.072V121.405H220.813L217.011 139.382L239.187 144.072ZM244.99 144.072L267.166 148.762L272.951 121.405H244.99V144.072ZM232.104 205V227.667H250.479L254.281 209.69L232.104 205ZM226.302 205L204.125 200.31L198.34 227.667H226.302V205ZM239.187 166.739H244.99V121.405H239.187V166.739ZM222.813 139.382L209.928 200.31L254.281 209.69L267.166 148.762L222.813 139.382ZM232.104 182.333H226.302V227.667H232.104V182.333ZM248.478 209.69L261.363 148.762L217.011 139.382L204.125 200.31L248.478 209.69ZM257.933 144.072V121.405H239.634L235.776 139.293L257.933 144.072ZM264.504 144.072L285.199 134.827L279.204 121.405H264.504V144.072ZM288.824 198.515L268.128 207.76L274.124 221.181H288.824V198.515ZM288.994 198.515V221.181H307.451L311.191 203.107L288.994 198.515ZM300.258 144.072V121.405H281.801L278.062 139.48L300.258 144.072ZM305.89 144.072L328.035 148.91L334.044 121.405H305.89V144.072ZM292.578 205V227.667H310.827L314.723 209.838L292.578 205ZM286.178 205L265.483 214.245L271.478 227.667H286.178V205ZM261.858 150.557L282.554 141.312L276.558 127.891H261.858V150.557ZM261.688 150.557V127.891H243.259L239.498 145.932L261.688 150.557ZM250.338 205V227.667H268.767L272.528 209.626L250.338 205ZM244.792 205L222.635 200.221L216.715 227.667H244.792V205ZM257.933 166.739H264.504V121.405H257.933V166.739ZM243.808 153.317L268.128 207.76L309.519 189.27L285.199 134.827L243.808 153.317ZM288.824 221.181H288.994V175.848H288.824V221.181ZM311.191 203.107L322.455 148.664L278.062 139.48L266.798 193.922L311.191 203.107ZM300.258 166.739H305.89V121.405H300.258V166.739ZM283.746 139.234L270.434 200.162L314.723 209.838L328.035 148.91L283.746 139.234ZM292.578 182.333H286.178V227.667H292.578V182.333ZM306.874 195.755L282.554 141.312L241.163 159.802L265.483 214.245L306.874 195.755ZM261.858 127.891H261.688V173.224H261.858V127.891ZM239.498 145.932L228.149 200.374L272.528 209.626L283.877 155.183L239.498 145.932ZM250.338 182.333H244.792V227.667H250.338V182.333ZM266.949 209.779L280.09 148.851L235.776 139.293L222.635 200.221L266.949 209.779ZM355.904 144.072V121.405H345.227L338.428 129.637L355.904 144.072ZM362.987 144.072L380.34 158.655L411.643 121.405H362.987V144.072ZM332.438 180.424L315.085 165.841L311.489 170.12L310.295 175.58L332.438 180.424ZM327.062 205V227.667H345.306L349.205 209.844L327.062 205ZM321.174 205L299.038 200.123L292.969 227.667H321.174V205ZM326.72 179.827L348.856 184.704L350.479 177.337L347.364 170.466L326.72 179.827ZM310.507 144.072V121.405H275.34L289.864 153.433L310.507 144.072ZM316.651 144.072L337.362 134.861L331.377 121.405H316.651V144.072ZM330.39 174.963L309.679 184.174L324.554 217.621L347.866 189.397L330.39 174.963ZM355.904 166.739H362.987V121.405H355.904V166.739ZM345.634 129.489L315.085 165.841L349.79 195.007L380.34 158.655L345.634 129.489ZM310.295 175.58L304.919 200.156L349.205 209.844L354.581 185.268L310.295 175.58ZM327.062 182.333H321.174V227.667H327.062V182.333ZM343.309 209.877L348.856 184.704L304.585 174.949L299.038 200.123L343.309 209.877ZM347.364 170.466L331.15 134.711L289.864 153.433L306.077 189.188L347.364 170.466ZM310.507 166.739H316.651V121.405H310.507V166.739ZM295.94 153.283L309.679 184.174L351.1 165.752L337.362 134.861L295.94 153.283ZM347.866 189.397L373.381 158.507L338.428 129.637L312.914 160.528L347.866 189.397ZM367.443 144.072V121.405H349.144L345.286 139.293L367.443 144.072ZM373.246 144.072L395.406 148.835L401.302 121.405H373.246V144.072ZM361.214 200.051L339.053 195.287L333.157 222.717H361.214V200.051ZM394.92 200.051L416.954 205.369L423.709 177.384H394.92V200.051ZM393.726 205V227.667H411.572L415.76 210.319L393.726 205ZM354.302 205L332.145 200.221L326.225 227.667H354.302V205ZM367.443 166.739H373.246V121.405H367.443V166.739ZM351.085 139.309L339.053 195.287L383.374 204.814L395.406 148.835L351.085 139.309ZM361.214 222.717H394.92V177.384H361.214V222.717ZM372.886 194.732L371.692 199.681L415.76 210.319L416.954 205.369L372.886 194.732ZM393.726 182.333H354.302V227.667H393.726V182.333ZM376.459 209.779L389.6 148.851L345.286 139.293L332.145 200.221L376.459 209.779Z" fill="#8FC1FF" mask="url(#path-1-outside-1_144_1432)"/>
</svg>
