<svg width="418" height="176" viewBox="0 0 418 176" fill="none" xmlns="http://www.w3.org/2000/svg">
<mask id="path-1-outside-1_144_1320" maskUnits="userSpaceOnUse" x="0" y="0" width="418" height="176" fill="black">
<rect fill="white" width="418" height="176"/>
<path d="M87.0421 32.5913H91.6926C92.3787 32.5913 93.0394 32.5405 93.6747 32.4389C94.31 32.3372 94.8691 32.1466 95.3519 31.8671C95.8347 31.5622 96.2159 31.1429 96.4954 30.6092C96.8004 30.0756 96.9529 29.3767 96.9529 28.5127C96.9529 27.6487 96.8004 26.9499 96.4954 26.4162C96.2159 25.8826 95.8347 25.476 95.3519 25.1964C94.8691 24.8915 94.31 24.6882 93.6747 24.5865C93.0394 24.4849 92.3787 24.4341 91.6926 24.4341H87.0421V32.5913ZM81.0576 19.7837H93.3316C95.0342 19.7837 96.4827 20.0378 97.6771 20.546C98.8715 21.0289 99.8371 21.6769 100.574 22.49C101.336 23.3032 101.883 24.2308 102.213 25.2727C102.569 26.3146 102.747 27.3946 102.747 28.5127C102.747 29.6054 102.569 30.6854 102.213 31.7528C101.883 32.7946 101.336 33.7222 100.574 34.5354C99.8371 35.3486 98.8715 36.0093 97.6771 36.5175C96.4827 37.0003 95.0342 37.2418 93.3316 37.2418H87.0421V47H81.0576V19.7837ZM106.482 19.7837H112.467V41.9684H125.732V47H106.482V19.7837ZM135.939 36.4794H142.991L139.56 26.4924H139.484L135.939 36.4794ZM136.511 19.7837H142.648L152.825 47H146.612L144.553 40.9392H134.376L132.241 47H126.219L136.511 19.7837ZM159.395 36.4032L149.408 19.7837H156.117L162.482 30.533L168.81 19.7837H175.481L165.379 36.5556V47H159.395V36.4032ZM208.045 43.9124C206.978 45.2847 205.796 46.2503 204.5 46.8094C203.204 47.3431 201.896 47.6099 200.574 47.6099C198.49 47.6099 196.61 47.2541 194.933 46.5426C193.281 45.8056 191.883 44.8019 190.74 43.5313C189.596 42.2606 188.72 40.774 188.11 39.0714C187.5 37.3434 187.195 35.4883 187.195 33.5062C187.195 31.4732 187.5 29.5927 188.11 27.8647C188.72 26.1113 189.596 24.5865 190.74 23.2905C191.883 21.9945 193.281 20.978 194.933 20.2411C196.61 19.5041 198.49 19.1357 200.574 19.1357C201.972 19.1357 203.319 19.3517 204.615 19.7837C205.936 20.1903 207.118 20.8001 208.16 21.6133C209.227 22.4265 210.104 23.4303 210.79 24.6247C211.476 25.819 211.895 27.1913 212.048 28.7414H206.33C205.974 27.2167 205.288 26.0732 204.272 25.3108C203.255 24.5484 202.023 24.1672 200.574 24.1672C199.227 24.1672 198.084 24.4341 197.144 24.9677C196.203 25.476 195.441 26.1748 194.857 27.0642C194.272 27.9282 193.84 28.9193 193.561 30.0374C193.306 31.1556 193.179 32.3118 193.179 33.5062C193.179 34.6497 193.306 35.7679 193.561 36.8606C193.84 37.9279 194.272 38.8935 194.857 39.7576C195.441 40.6216 196.203 41.3204 197.144 41.8541C198.084 42.3623 199.227 42.6164 200.574 42.6164C202.556 42.6164 204.081 42.1209 205.148 41.1298C206.241 40.1133 206.876 38.6521 207.054 36.7462H201.032V32.2864H212.467V47H208.655L208.045 43.9124ZM240.4 36.7081C240.4 40.3929 239.37 43.1374 237.312 44.9416C235.254 46.7205 232.408 47.6099 228.774 47.6099C225.089 47.6099 222.23 46.7205 220.197 44.9416C218.19 43.1628 217.186 40.4183 217.186 36.7081V19.7837H223.17V36.7081C223.17 37.4451 223.234 38.1693 223.361 38.8808C223.488 39.5924 223.755 40.2277 224.161 40.7867C224.568 41.3204 225.127 41.7651 225.839 42.1209C226.576 42.4512 227.554 42.6164 228.774 42.6164C230.908 42.6164 232.382 42.1463 233.195 41.206C234.009 40.2404 234.415 38.7411 234.415 36.7081V19.7837H240.4V36.7081ZM245.554 19.7837H251.538V47H245.554V19.7837ZM262.818 24.8153H254.661V19.7837H276.96V24.8153H268.803V47H262.818V24.8153ZM283.46 36.4794H290.512L287.082 26.4924H287.005L283.46 36.4794ZM284.032 19.7837H290.169L300.347 47H294.133L292.075 40.9392H281.898L279.763 47H273.74L284.032 19.7837ZM308.678 32.0958H315.234C316.607 32.0958 317.636 31.7909 318.322 31.181C319.008 30.5711 319.351 29.58 319.351 28.2078C319.351 26.8863 319.008 25.9334 318.322 25.3489C317.636 24.739 316.607 24.4341 315.234 24.4341H308.678V32.0958ZM302.694 19.7837H317.369C318.589 19.7837 319.682 19.987 320.647 20.3936C321.638 20.7747 322.477 21.3084 323.163 21.9945C323.875 22.6806 324.408 23.4811 324.764 24.396C325.145 25.2854 325.336 26.251 325.336 27.2929C325.336 28.8939 324.993 30.2788 324.307 31.4478C323.646 32.6168 322.553 33.5062 321.028 34.1161V34.1923C321.765 34.3956 322.375 34.7133 322.858 35.1453C323.341 35.5519 323.735 36.0474 324.04 36.6319C324.345 37.1909 324.561 37.8135 324.688 38.4997C324.84 39.1858 324.942 39.8719 324.993 40.558C325.018 40.99 325.044 41.4983 325.069 42.0828C325.094 42.6672 325.132 43.2644 325.183 43.8743C325.26 44.4842 325.361 45.0687 325.488 45.6277C325.641 46.1614 325.857 46.6188 326.136 47H320.152C319.821 46.136 319.618 45.1068 319.542 43.9124C319.466 42.7181 319.351 41.5745 319.199 40.4818C318.995 39.0587 318.563 38.0168 317.903 37.3561C317.242 36.6954 316.162 36.365 314.663 36.365H308.678V47H302.694V19.7837ZM171.191 85.4794H178.242L174.812 75.4924H174.736L171.191 85.4794ZM171.762 68.7837H177.899L188.077 96H181.864L179.805 89.9392H169.628L167.493 96H161.47L171.762 68.7837ZM190.424 68.7837H196.37L207.729 87.0422H207.806V68.7837H213.409V96H207.425L196.103 77.7795H196.027V96H190.424V68.7837ZM224.662 90.9684H229.999C230.863 90.9684 231.701 90.8286 232.514 90.5491C233.327 90.2696 234.052 89.8122 234.687 89.1769C235.322 88.5161 235.831 87.6648 236.212 86.6229C236.593 85.581 236.784 84.3104 236.784 82.8111C236.784 81.4389 236.644 80.2064 236.364 79.1137C236.11 77.9955 235.678 77.0426 235.068 76.2548C234.458 75.467 233.645 74.8699 232.629 74.4633C231.638 74.0313 230.405 73.8153 228.931 73.8153H224.662V90.9684ZM218.677 68.7837H230.418C232.171 68.7837 233.798 69.0632 235.297 69.6223C236.822 70.1813 238.13 71.0199 239.223 72.1381C240.341 73.2562 241.205 74.6539 241.815 76.331C242.45 78.0082 242.768 79.9777 242.768 82.2394C242.768 84.2215 242.514 86.0512 242.006 87.7284C241.497 89.4056 240.722 90.8541 239.681 92.0738C238.664 93.2936 237.381 94.2593 235.831 94.9708C234.306 95.6569 232.502 96 230.418 96H218.677V68.7837ZM24.5232 139.968H29.8597C30.7238 139.968 31.5624 139.829 32.3755 139.549C33.1887 139.27 33.913 138.812 34.5483 138.177C35.1836 137.516 35.6918 136.665 36.073 135.623C36.4542 134.581 36.6448 133.31 36.6448 131.811C36.6448 130.439 36.505 129.206 36.2255 128.114C35.9713 126.996 35.5393 126.043 34.9295 125.255C34.3196 124.467 33.5064 123.87 32.4899 123.463C31.4988 123.031 30.2663 122.815 28.7924 122.815H24.5232V139.968ZM18.5387 117.784H30.279C32.0325 117.784 33.6588 118.063 35.1582 118.622C36.6829 119.181 37.9916 120.02 39.0843 121.138C40.2025 122.256 41.0665 123.654 41.6764 125.331C42.3117 127.008 42.6293 128.978 42.6293 131.239C42.6293 133.221 42.3752 135.051 41.867 136.728C41.3587 138.406 40.5836 139.854 39.5417 141.074C38.5253 142.294 37.242 143.259 35.6918 143.971C34.1671 144.657 32.3628 145 30.279 145H18.5387V117.784ZM52.7768 130.096H59.3331C60.7053 130.096 61.7345 129.791 62.4207 129.181C63.1068 128.571 63.4499 127.58 63.4499 126.208C63.4499 124.886 63.1068 123.933 62.4207 123.349C61.7345 122.739 60.7053 122.434 59.3331 122.434H52.7768V130.096ZM46.7922 117.784H61.4677C62.6875 117.784 63.7802 117.987 64.7459 118.394C65.7369 118.775 66.5755 119.308 67.2617 119.995C67.9732 120.681 68.5069 121.481 68.8626 122.396C69.2438 123.285 69.4344 124.251 69.4344 125.293C69.4344 126.894 69.0913 128.279 68.4052 129.448C67.7445 130.617 66.6518 131.506 65.127 132.116V132.192C65.864 132.396 66.4739 132.713 66.9567 133.145C67.4395 133.552 67.8334 134.047 68.1384 134.632C68.4433 135.191 68.6593 135.814 68.7864 136.5C68.9389 137.186 69.0405 137.872 69.0913 138.558C69.1167 138.99 69.1422 139.498 69.1676 140.083C69.193 140.667 69.2311 141.264 69.2819 141.874C69.3582 142.484 69.4598 143.069 69.5869 143.628C69.7393 144.161 69.9553 144.619 70.2349 145H64.2503C63.92 144.136 63.7167 143.107 63.6404 141.912C63.5642 140.718 63.4498 139.575 63.2974 138.482C63.0941 137.059 62.6621 136.017 62.0014 135.356C61.3406 134.695 60.2606 134.365 58.7613 134.365H52.7768V145H46.7922V117.784ZM74.3013 117.784H80.2858V145H74.3013V117.784ZM85.5432 117.784H91.4896L102.849 136.042H102.925V117.784H108.528V145H102.544L91.2228 126.78H91.1465V145H85.5432V117.784ZM113.797 117.784H119.781V129.067L130.416 117.784H137.887L127.252 128.533L138.917 145H131.407L123.212 132.764L119.781 136.233V145H113.797V117.784ZM157.899 128.8H163.96C165.027 128.8 165.904 128.546 166.59 128.037C167.276 127.529 167.62 126.703 167.62 125.56C167.62 124.924 167.505 124.404 167.276 123.997C167.048 123.59 166.743 123.273 166.362 123.044C165.98 122.815 165.536 122.663 165.027 122.587C164.545 122.485 164.036 122.434 163.503 122.434H157.899V128.8ZM151.915 117.784H164.723C166.019 117.784 167.2 117.898 168.268 118.127C169.335 118.355 170.25 118.737 171.012 119.27C171.774 119.779 172.359 120.465 172.765 121.329C173.197 122.193 173.413 123.26 173.413 124.531C173.413 125.903 173.096 127.046 172.461 127.961C171.851 128.876 170.936 129.626 169.716 130.21C171.393 130.693 172.638 131.544 173.452 132.764C174.29 133.958 174.71 135.407 174.71 137.11C174.71 138.482 174.443 139.676 173.909 140.693C173.375 141.684 172.651 142.497 171.736 143.132C170.847 143.768 169.818 144.238 168.649 144.543C167.505 144.848 166.324 145 165.104 145H151.915V117.784ZM157.899 140.35H164.303C164.888 140.35 165.447 140.299 165.98 140.197C166.514 140.07 166.984 139.879 167.391 139.625C167.797 139.346 168.115 138.977 168.344 138.52C168.598 138.063 168.725 137.478 168.725 136.766C168.725 135.369 168.331 134.378 167.543 133.793C166.756 133.183 165.714 132.878 164.418 132.878H157.899V140.35ZM201.853 134.708C201.853 138.393 200.824 141.137 198.766 142.942C196.708 144.72 193.861 145.61 190.227 145.61C186.543 145.61 183.684 144.72 181.651 142.942C179.643 141.163 178.64 138.418 178.64 134.708V117.784H184.624V134.708C184.624 135.445 184.688 136.169 184.815 136.881C184.942 137.592 185.209 138.228 185.615 138.787C186.022 139.32 186.581 139.765 187.292 140.121C188.029 140.451 189.008 140.616 190.227 140.616C192.362 140.616 193.836 140.146 194.649 139.206C195.462 138.24 195.869 136.741 195.869 134.708V117.784H201.853V134.708ZM212.992 128.8H219.053C220.12 128.8 220.997 128.546 221.683 128.037C222.369 127.529 222.712 126.703 222.712 125.56C222.712 124.924 222.598 124.404 222.369 123.997C222.14 123.59 221.835 123.273 221.454 123.044C221.073 122.815 220.628 122.663 220.12 122.587C219.637 122.485 219.129 122.434 218.595 122.434H212.992V128.8ZM207.007 117.784H219.815C221.111 117.784 222.293 117.898 223.36 118.127C224.427 118.355 225.342 118.737 226.105 119.27C226.867 119.779 227.451 120.465 227.858 121.329C228.29 122.193 228.506 123.26 228.506 124.531C228.506 125.903 228.188 127.046 227.553 127.961C226.943 128.876 226.028 129.626 224.809 130.21C226.486 130.693 227.731 131.544 228.544 132.764C229.383 133.958 229.802 135.407 229.802 137.11C229.802 138.482 229.535 139.676 229.002 140.693C228.468 141.684 227.744 142.497 226.829 143.132C225.939 143.768 224.91 144.238 223.741 144.543C222.598 144.848 221.416 145 220.196 145H207.007V117.784ZM212.992 140.35H219.396C219.98 140.35 220.539 140.299 221.073 140.197C221.607 140.07 222.077 139.879 222.483 139.625C222.89 139.346 223.208 138.977 223.436 138.52C223.691 138.063 223.818 137.478 223.818 136.766C223.818 135.369 223.424 134.378 222.636 133.793C221.848 133.183 220.806 132.878 219.51 132.878H212.992V140.35ZM239.831 128.8H245.892C246.959 128.8 247.836 128.546 248.522 128.037C249.208 127.529 249.551 126.703 249.551 125.56C249.551 124.924 249.437 124.404 249.208 123.997C248.979 123.59 248.674 123.273 248.293 123.044C247.912 122.815 247.467 122.663 246.959 122.587C246.476 122.485 245.968 122.434 245.434 122.434H239.831V128.8ZM233.846 117.784H246.654C247.95 117.784 249.132 117.898 250.199 118.127C251.266 118.355 252.181 118.737 252.944 119.27C253.706 119.779 254.291 120.465 254.697 121.329C255.129 122.193 255.345 123.26 255.345 124.531C255.345 125.903 255.027 127.046 254.392 127.961C253.782 128.876 252.867 129.626 251.648 130.21C253.325 130.693 254.57 131.544 255.383 132.764C256.222 133.958 256.641 135.407 256.641 137.11C256.641 138.482 256.374 139.676 255.841 140.693C255.307 141.684 254.583 142.497 253.668 143.132C252.778 143.768 251.749 144.238 250.58 144.543C249.437 144.848 248.255 145 247.035 145H233.846V117.784ZM239.831 140.35H246.235C246.819 140.35 247.378 140.299 247.912 140.197C248.446 140.07 248.916 139.879 249.322 139.625C249.729 139.346 250.047 138.977 250.275 138.52C250.53 138.063 250.657 137.478 250.657 136.766C250.657 135.369 250.263 134.378 249.475 133.793C248.687 133.183 247.645 132.878 246.349 132.878H239.831V140.35ZM260.686 117.784H266.67V139.968H279.935V145H260.686V117.784ZM283.281 117.784H303.636V122.815H289.265V128.647H302.454V133.298H289.265V139.968H303.941V145H283.281V117.784ZM324.63 122.815H316.473V117.784H338.772V122.815H330.614V145H324.63V122.815ZM341.91 117.784H362.265V122.815H347.894V128.647H361.083V133.298H347.894V139.968H362.57V145H341.91V117.784ZM373.488 134.479H380.54L377.11 124.492H377.033L373.488 134.479ZM374.06 117.784H380.197L390.375 145H384.161L382.103 138.939H371.926L369.791 145H363.768L374.06 117.784Z"/>
</mask>
<path d="M87.0421 32.5913H91.6926C92.3787 32.5913 93.0394 32.5405 93.6747 32.4389C94.31 32.3372 94.8691 32.1466 95.3519 31.8671C95.8347 31.5622 96.2159 31.1429 96.4954 30.6092C96.8004 30.0756 96.9529 29.3767 96.9529 28.5127C96.9529 27.6487 96.8004 26.9499 96.4954 26.4162C96.2159 25.8826 95.8347 25.476 95.3519 25.1964C94.8691 24.8915 94.31 24.6882 93.6747 24.5865C93.0394 24.4849 92.3787 24.4341 91.6926 24.4341H87.0421V32.5913ZM81.0576 19.7837H93.3316C95.0342 19.7837 96.4827 20.0378 97.6771 20.546C98.8715 21.0289 99.8371 21.6769 100.574 22.49C101.336 23.3032 101.883 24.2308 102.213 25.2727C102.569 26.3146 102.747 27.3946 102.747 28.5127C102.747 29.6054 102.569 30.6854 102.213 31.7528C101.883 32.7946 101.336 33.7222 100.574 34.5354C99.8371 35.3486 98.8715 36.0093 97.6771 36.5175C96.4827 37.0003 95.0342 37.2418 93.3316 37.2418H87.0421V47H81.0576V19.7837ZM106.482 19.7837H112.467V41.9684H125.732V47H106.482V19.7837ZM135.939 36.4794H142.991L139.56 26.4924H139.484L135.939 36.4794ZM136.511 19.7837H142.648L152.825 47H146.612L144.553 40.9392H134.376L132.241 47H126.219L136.511 19.7837ZM159.395 36.4032L149.408 19.7837H156.117L162.482 30.533L168.81 19.7837H175.481L165.379 36.5556V47H159.395V36.4032ZM208.045 43.9124C206.978 45.2847 205.796 46.2503 204.5 46.8094C203.204 47.3431 201.896 47.6099 200.574 47.6099C198.49 47.6099 196.61 47.2541 194.933 46.5426C193.281 45.8056 191.883 44.8019 190.74 43.5313C189.596 42.2606 188.72 40.774 188.11 39.0714C187.5 37.3434 187.195 35.4883 187.195 33.5062C187.195 31.4732 187.5 29.5927 188.11 27.8647C188.72 26.1113 189.596 24.5865 190.74 23.2905C191.883 21.9945 193.281 20.978 194.933 20.2411C196.61 19.5041 198.49 19.1357 200.574 19.1357C201.972 19.1357 203.319 19.3517 204.615 19.7837C205.936 20.1903 207.118 20.8001 208.16 21.6133C209.227 22.4265 210.104 23.4303 210.79 24.6247C211.476 25.819 211.895 27.1913 212.048 28.7414H206.33C205.974 27.2167 205.288 26.0732 204.272 25.3108C203.255 24.5484 202.023 24.1672 200.574 24.1672C199.227 24.1672 198.084 24.4341 197.144 24.9677C196.203 25.476 195.441 26.1748 194.857 27.0642C194.272 27.9282 193.84 28.9193 193.561 30.0374C193.306 31.1556 193.179 32.3118 193.179 33.5062C193.179 34.6497 193.306 35.7679 193.561 36.8606C193.84 37.9279 194.272 38.8935 194.857 39.7576C195.441 40.6216 196.203 41.3204 197.144 41.8541C198.084 42.3623 199.227 42.6164 200.574 42.6164C202.556 42.6164 204.081 42.1209 205.148 41.1298C206.241 40.1133 206.876 38.6521 207.054 36.7462H201.032V32.2864H212.467V47H208.655L208.045 43.9124ZM240.4 36.7081C240.4 40.3929 239.37 43.1374 237.312 44.9416C235.254 46.7205 232.408 47.6099 228.774 47.6099C225.089 47.6099 222.23 46.7205 220.197 44.9416C218.19 43.1628 217.186 40.4183 217.186 36.7081V19.7837H223.17V36.7081C223.17 37.4451 223.234 38.1693 223.361 38.8808C223.488 39.5924 223.755 40.2277 224.161 40.7867C224.568 41.3204 225.127 41.7651 225.839 42.1209C226.576 42.4512 227.554 42.6164 228.774 42.6164C230.908 42.6164 232.382 42.1463 233.195 41.206C234.009 40.2404 234.415 38.7411 234.415 36.7081V19.7837H240.4V36.7081ZM245.554 19.7837H251.538V47H245.554V19.7837ZM262.818 24.8153H254.661V19.7837H276.96V24.8153H268.803V47H262.818V24.8153ZM283.46 36.4794H290.512L287.082 26.4924H287.005L283.46 36.4794ZM284.032 19.7837H290.169L300.347 47H294.133L292.075 40.9392H281.898L279.763 47H273.74L284.032 19.7837ZM308.678 32.0958H315.234C316.607 32.0958 317.636 31.7909 318.322 31.181C319.008 30.5711 319.351 29.58 319.351 28.2078C319.351 26.8863 319.008 25.9334 318.322 25.3489C317.636 24.739 316.607 24.4341 315.234 24.4341H308.678V32.0958ZM302.694 19.7837H317.369C318.589 19.7837 319.682 19.987 320.647 20.3936C321.638 20.7747 322.477 21.3084 323.163 21.9945C323.875 22.6806 324.408 23.4811 324.764 24.396C325.145 25.2854 325.336 26.251 325.336 27.2929C325.336 28.8939 324.993 30.2788 324.307 31.4478C323.646 32.6168 322.553 33.5062 321.028 34.1161V34.1923C321.765 34.3956 322.375 34.7133 322.858 35.1453C323.341 35.5519 323.735 36.0474 324.04 36.6319C324.345 37.1909 324.561 37.8135 324.688 38.4997C324.84 39.1858 324.942 39.8719 324.993 40.558C325.018 40.99 325.044 41.4983 325.069 42.0828C325.094 42.6672 325.132 43.2644 325.183 43.8743C325.26 44.4842 325.361 45.0687 325.488 45.6277C325.641 46.1614 325.857 46.6188 326.136 47H320.152C319.821 46.136 319.618 45.1068 319.542 43.9124C319.466 42.7181 319.351 41.5745 319.199 40.4818C318.995 39.0587 318.563 38.0168 317.903 37.3561C317.242 36.6954 316.162 36.365 314.663 36.365H308.678V47H302.694V19.7837ZM171.191 85.4794H178.242L174.812 75.4924H174.736L171.191 85.4794ZM171.762 68.7837H177.899L188.077 96H181.864L179.805 89.9392H169.628L167.493 96H161.47L171.762 68.7837ZM190.424 68.7837H196.37L207.729 87.0422H207.806V68.7837H213.409V96H207.425L196.103 77.7795H196.027V96H190.424V68.7837ZM224.662 90.9684H229.999C230.863 90.9684 231.701 90.8286 232.514 90.5491C233.327 90.2696 234.052 89.8122 234.687 89.1769C235.322 88.5161 235.831 87.6648 236.212 86.6229C236.593 85.581 236.784 84.3104 236.784 82.8111C236.784 81.4389 236.644 80.2064 236.364 79.1137C236.11 77.9955 235.678 77.0426 235.068 76.2548C234.458 75.467 233.645 74.8699 232.629 74.4633C231.638 74.0313 230.405 73.8153 228.931 73.8153H224.662V90.9684ZM218.677 68.7837H230.418C232.171 68.7837 233.798 69.0632 235.297 69.6223C236.822 70.1813 238.13 71.0199 239.223 72.1381C240.341 73.2562 241.205 74.6539 241.815 76.331C242.45 78.0082 242.768 79.9777 242.768 82.2394C242.768 84.2215 242.514 86.0512 242.006 87.7284C241.497 89.4056 240.722 90.8541 239.681 92.0738C238.664 93.2936 237.381 94.2593 235.831 94.9708C234.306 95.6569 232.502 96 230.418 96H218.677V68.7837ZM24.5232 139.968H29.8597C30.7238 139.968 31.5624 139.829 32.3755 139.549C33.1887 139.27 33.913 138.812 34.5483 138.177C35.1836 137.516 35.6918 136.665 36.073 135.623C36.4542 134.581 36.6448 133.31 36.6448 131.811C36.6448 130.439 36.505 129.206 36.2255 128.114C35.9713 126.996 35.5393 126.043 34.9295 125.255C34.3196 124.467 33.5064 123.87 32.4899 123.463C31.4988 123.031 30.2663 122.815 28.7924 122.815H24.5232V139.968ZM18.5387 117.784H30.279C32.0325 117.784 33.6588 118.063 35.1582 118.622C36.6829 119.181 37.9916 120.02 39.0843 121.138C40.2025 122.256 41.0665 123.654 41.6764 125.331C42.3117 127.008 42.6293 128.978 42.6293 131.239C42.6293 133.221 42.3752 135.051 41.867 136.728C41.3587 138.406 40.5836 139.854 39.5417 141.074C38.5253 142.294 37.242 143.259 35.6918 143.971C34.1671 144.657 32.3628 145 30.279 145H18.5387V117.784ZM52.7768 130.096H59.3331C60.7053 130.096 61.7345 129.791 62.4207 129.181C63.1068 128.571 63.4499 127.58 63.4499 126.208C63.4499 124.886 63.1068 123.933 62.4207 123.349C61.7345 122.739 60.7053 122.434 59.3331 122.434H52.7768V130.096ZM46.7922 117.784H61.4677C62.6875 117.784 63.7802 117.987 64.7459 118.394C65.7369 118.775 66.5755 119.308 67.2617 119.995C67.9732 120.681 68.5069 121.481 68.8626 122.396C69.2438 123.285 69.4344 124.251 69.4344 125.293C69.4344 126.894 69.0913 128.279 68.4052 129.448C67.7445 130.617 66.6518 131.506 65.127 132.116V132.192C65.864 132.396 66.4739 132.713 66.9567 133.145C67.4395 133.552 67.8334 134.047 68.1384 134.632C68.4433 135.191 68.6593 135.814 68.7864 136.5C68.9389 137.186 69.0405 137.872 69.0913 138.558C69.1167 138.99 69.1422 139.498 69.1676 140.083C69.193 140.667 69.2311 141.264 69.2819 141.874C69.3582 142.484 69.4598 143.069 69.5869 143.628C69.7393 144.161 69.9553 144.619 70.2349 145H64.2503C63.92 144.136 63.7167 143.107 63.6404 141.912C63.5642 140.718 63.4498 139.575 63.2974 138.482C63.0941 137.059 62.6621 136.017 62.0014 135.356C61.3406 134.695 60.2606 134.365 58.7613 134.365H52.7768V145H46.7922V117.784ZM74.3013 117.784H80.2858V145H74.3013V117.784ZM85.5432 117.784H91.4896L102.849 136.042H102.925V117.784H108.528V145H102.544L91.2228 126.78H91.1465V145H85.5432V117.784ZM113.797 117.784H119.781V129.067L130.416 117.784H137.887L127.252 128.533L138.917 145H131.407L123.212 132.764L119.781 136.233V145H113.797V117.784ZM157.899 128.8H163.96C165.027 128.8 165.904 128.546 166.59 128.037C167.276 127.529 167.62 126.703 167.62 125.56C167.62 124.924 167.505 124.404 167.276 123.997C167.048 123.59 166.743 123.273 166.362 123.044C165.98 122.815 165.536 122.663 165.027 122.587C164.545 122.485 164.036 122.434 163.503 122.434H157.899V128.8ZM151.915 117.784H164.723C166.019 117.784 167.2 117.898 168.268 118.127C169.335 118.355 170.25 118.737 171.012 119.27C171.774 119.779 172.359 120.465 172.765 121.329C173.197 122.193 173.413 123.26 173.413 124.531C173.413 125.903 173.096 127.046 172.461 127.961C171.851 128.876 170.936 129.626 169.716 130.21C171.393 130.693 172.638 131.544 173.452 132.764C174.29 133.958 174.71 135.407 174.71 137.11C174.71 138.482 174.443 139.676 173.909 140.693C173.375 141.684 172.651 142.497 171.736 143.132C170.847 143.768 169.818 144.238 168.649 144.543C167.505 144.848 166.324 145 165.104 145H151.915V117.784ZM157.899 140.35H164.303C164.888 140.35 165.447 140.299 165.98 140.197C166.514 140.07 166.984 139.879 167.391 139.625C167.797 139.346 168.115 138.977 168.344 138.52C168.598 138.063 168.725 137.478 168.725 136.766C168.725 135.369 168.331 134.378 167.543 133.793C166.756 133.183 165.714 132.878 164.418 132.878H157.899V140.35ZM201.853 134.708C201.853 138.393 200.824 141.137 198.766 142.942C196.708 144.72 193.861 145.61 190.227 145.61C186.543 145.61 183.684 144.72 181.651 142.942C179.643 141.163 178.64 138.418 178.64 134.708V117.784H184.624V134.708C184.624 135.445 184.688 136.169 184.815 136.881C184.942 137.592 185.209 138.228 185.615 138.787C186.022 139.32 186.581 139.765 187.292 140.121C188.029 140.451 189.008 140.616 190.227 140.616C192.362 140.616 193.836 140.146 194.649 139.206C195.462 138.24 195.869 136.741 195.869 134.708V117.784H201.853V134.708ZM212.992 128.8H219.053C220.12 128.8 220.997 128.546 221.683 128.037C222.369 127.529 222.712 126.703 222.712 125.56C222.712 124.924 222.598 124.404 222.369 123.997C222.14 123.59 221.835 123.273 221.454 123.044C221.073 122.815 220.628 122.663 220.12 122.587C219.637 122.485 219.129 122.434 218.595 122.434H212.992V128.8ZM207.007 117.784H219.815C221.111 117.784 222.293 117.898 223.36 118.127C224.427 118.355 225.342 118.737 226.105 119.27C226.867 119.779 227.451 120.465 227.858 121.329C228.29 122.193 228.506 123.26 228.506 124.531C228.506 125.903 228.188 127.046 227.553 127.961C226.943 128.876 226.028 129.626 224.809 130.21C226.486 130.693 227.731 131.544 228.544 132.764C229.383 133.958 229.802 135.407 229.802 137.11C229.802 138.482 229.535 139.676 229.002 140.693C228.468 141.684 227.744 142.497 226.829 143.132C225.939 143.768 224.91 144.238 223.741 144.543C222.598 144.848 221.416 145 220.196 145H207.007V117.784ZM212.992 140.35H219.396C219.98 140.35 220.539 140.299 221.073 140.197C221.607 140.07 222.077 139.879 222.483 139.625C222.89 139.346 223.208 138.977 223.436 138.52C223.691 138.063 223.818 137.478 223.818 136.766C223.818 135.369 223.424 134.378 222.636 133.793C221.848 133.183 220.806 132.878 219.51 132.878H212.992V140.35ZM239.831 128.8H245.892C246.959 128.8 247.836 128.546 248.522 128.037C249.208 127.529 249.551 126.703 249.551 125.56C249.551 124.924 249.437 124.404 249.208 123.997C248.979 123.59 248.674 123.273 248.293 123.044C247.912 122.815 247.467 122.663 246.959 122.587C246.476 122.485 245.968 122.434 245.434 122.434H239.831V128.8ZM233.846 117.784H246.654C247.95 117.784 249.132 117.898 250.199 118.127C251.266 118.355 252.181 118.737 252.944 119.27C253.706 119.779 254.291 120.465 254.697 121.329C255.129 122.193 255.345 123.26 255.345 124.531C255.345 125.903 255.027 127.046 254.392 127.961C253.782 128.876 252.867 129.626 251.648 130.21C253.325 130.693 254.57 131.544 255.383 132.764C256.222 133.958 256.641 135.407 256.641 137.11C256.641 138.482 256.374 139.676 255.841 140.693C255.307 141.684 254.583 142.497 253.668 143.132C252.778 143.768 251.749 144.238 250.58 144.543C249.437 144.848 248.255 145 247.035 145H233.846V117.784ZM239.831 140.35H246.235C246.819 140.35 247.378 140.299 247.912 140.197C248.446 140.07 248.916 139.879 249.322 139.625C249.729 139.346 250.047 138.977 250.275 138.52C250.53 138.063 250.657 137.478 250.657 136.766C250.657 135.369 250.263 134.378 249.475 133.793C248.687 133.183 247.645 132.878 246.349 132.878H239.831V140.35ZM260.686 117.784H266.67V139.968H279.935V145H260.686V117.784ZM283.281 117.784H303.636V122.815H289.265V128.647H302.454V133.298H289.265V139.968H303.941V145H283.281V117.784ZM324.63 122.815H316.473V117.784H338.772V122.815H330.614V145H324.63V122.815ZM341.91 117.784H362.265V122.815H347.894V128.647H361.083V133.298H347.894V139.968H362.57V145H341.91V117.784ZM373.488 134.479H380.54L377.11 124.492H377.033L373.488 134.479ZM374.06 117.784H380.197L390.375 145H384.161L382.103 138.939H371.926L369.791 145H363.768L374.06 117.784Z" fill="white"/>
<path d="M87.0421 32.5913H68.5276V51.1059H87.0421V32.5913ZM93.6747 32.4389L90.7496 14.1569L90.7496 14.1569L93.6747 32.4389ZM95.3519 31.8671L104.628 47.8901L104.937 47.7114L105.239 47.5209L95.3519 31.8671ZM96.4954 30.6092L80.4203 21.4234L80.2521 21.7179L80.0947 22.0183L96.4954 30.6092ZM96.4954 26.4162L80.0947 35.0071L80.2521 35.3075L80.4203 35.602L96.4954 26.4162ZM95.3519 25.1964L85.4653 40.8502L85.7668 41.0407L86.0755 41.2194L95.3519 25.1964ZM93.6747 24.5865L90.7496 42.8685L90.7496 42.8685L93.6747 24.5865ZM87.0421 24.4341V5.91956H68.5276V24.4341H87.0421ZM81.0576 19.7837V1.26914H62.5431V19.7837H81.0576ZM97.6771 20.546L90.4276 37.5822L90.5823 37.648L90.7381 37.711L97.6771 20.546ZM100.574 22.49L86.8551 34.9229L86.9601 35.0388L87.067 35.1529L100.574 22.49ZM102.213 25.2727L84.5646 30.8686L84.6261 31.0627L84.6919 31.2555L102.213 25.2727ZM102.213 31.7528L84.6487 25.898L84.6057 26.0271L84.5646 26.1568L102.213 31.7528ZM100.574 34.5354L87.067 21.8725L86.9601 21.9866L86.8551 22.1025L100.574 34.5354ZM97.6771 36.5175L104.616 53.6825L104.772 53.6195L104.927 53.5537L97.6771 36.5175ZM87.0421 37.2418V18.7272H68.5276V37.2418H87.0421ZM87.0421 47V65.5145H105.557V47H87.0421ZM81.0576 47H62.5431V65.5145H81.0576V47ZM87.0421 51.1059H91.6926V14.0768H87.0421V51.1059ZM91.6926 51.1059C93.294 51.1059 94.9357 50.9871 96.5998 50.7209L90.7496 14.1569C91.1431 14.0939 91.4633 14.0768 91.6926 14.0768V51.1059ZM96.5998 50.7209C99.1345 50.3153 101.908 49.4647 104.628 47.8901L86.0755 15.8442C87.8297 14.8286 89.4855 14.3591 90.7496 14.1569L96.5998 50.7209ZM105.239 47.5209C108.63 45.3792 111.191 42.4555 112.896 39.2001L80.0947 22.0183C81.2408 19.8302 83.0399 17.7451 85.4653 16.2133L105.239 47.5209ZM112.571 39.795C114.993 35.5552 115.467 31.3596 115.467 28.5127H78.4383C78.4383 27.3938 78.6075 24.5959 80.4203 21.4234L112.571 39.795ZM115.467 28.5127C115.467 25.6658 114.993 21.4702 112.571 17.2304L80.4203 35.602C78.6075 32.4295 78.4383 29.6316 78.4383 28.5127H115.467ZM112.896 17.8254C111.127 14.4483 108.383 11.3473 104.628 9.17348L86.0755 41.2194C83.2864 39.6047 81.3046 37.3168 80.0947 35.0071L112.896 17.8254ZM105.239 9.54262C102.384 7.74005 99.3966 6.75203 96.5998 6.30455L90.7496 42.8685C89.2234 42.6243 87.3537 42.0429 85.4653 40.8502L105.239 9.54262ZM96.5998 6.30456C94.9357 6.0383 93.294 5.91956 91.6926 5.91956V42.9486C91.4633 42.9486 91.1431 42.9315 90.7496 42.8685L96.5998 6.30456ZM91.6926 5.91956H87.0421V42.9486H91.6926V5.91956ZM68.5276 24.4341V32.5913H105.557V24.4341H68.5276ZM81.0576 38.2982H93.3316V1.26914H81.0576V38.2982ZM93.3316 38.2982C93.2821 38.2982 92.1199 38.3024 90.4276 37.5822L104.927 3.50981C100.846 1.7732 96.7864 1.26914 93.3316 1.26914V38.2982ZM90.7381 37.711C89.792 37.3286 88.2916 36.5081 86.8551 34.9229L114.293 10.0572C111.383 6.84567 107.951 4.72915 104.616 3.38103L90.7381 37.711ZM87.067 35.1529C85.9773 33.9905 85.0867 32.5154 84.5646 30.8686L119.862 19.6768C118.679 15.9462 116.696 12.616 114.081 9.82722L87.067 35.1529ZM84.6919 31.2555C84.3797 30.341 84.2323 29.3976 84.2323 28.5127H121.261C121.261 25.3915 120.758 22.2881 119.734 19.2898L84.6919 31.2555ZM84.2323 28.5127C84.2323 27.5567 84.3941 26.662 84.6487 25.898L119.778 37.6076C120.744 34.7089 121.261 31.6541 121.261 28.5127H84.2323ZM84.5646 26.1568C85.0867 24.51 85.9773 23.035 87.067 21.8725L114.081 47.1982C116.696 44.4094 118.679 41.0793 119.862 37.3487L84.5646 26.1568ZM86.8551 22.1025C88.2152 20.6017 89.6033 19.8321 90.4276 19.4813L104.927 53.5537C108.14 52.1865 111.459 50.0955 114.293 46.9682L86.8551 22.1025ZM90.7381 19.3525C91.5554 19.0221 92.2226 18.8695 92.6512 18.7981C93.0767 18.7272 93.3201 18.7272 93.3316 18.7272V55.7563C96.6882 55.7563 100.632 55.2929 104.616 53.6825L90.7381 19.3525ZM93.3316 18.7272H87.0421V55.7563H93.3316V18.7272ZM68.5276 37.2418V47H105.557V37.2418H68.5276ZM87.0421 28.4855H81.0576V65.5145H87.0421V28.4855ZM99.5721 47V19.7837H62.5431V47H99.5721ZM106.482 19.7837V1.26914H87.9676V19.7837H106.482ZM112.467 19.7837H130.981V1.26914H112.467V19.7837ZM112.467 41.9684H93.9521V60.4829H112.467V41.9684ZM125.732 41.9684H144.246V23.4539H125.732V41.9684ZM125.732 47V65.5145H144.246V47H125.732ZM106.482 47H87.9676V65.5145H106.482V47ZM106.482 38.2982H112.467V1.26914H106.482V38.2982ZM93.9521 19.7837V41.9684H130.981V19.7837H93.9521ZM112.467 60.4829H125.732V23.4539H112.467V60.4829ZM107.217 41.9684V47H144.246V41.9684H107.217ZM125.732 28.4855H106.482V65.5145H125.732V28.4855ZM124.997 47V19.7837H87.9676V47H124.997ZM135.939 36.4794L118.491 30.2861L109.72 54.9939H135.939V36.4794ZM142.991 36.4794V54.9939H168.927L160.501 30.4644L142.991 36.4794ZM139.56 26.4924L157.07 20.4775L152.776 7.97793H139.56V26.4924ZM139.484 26.4924V7.97793H126.409L122.036 20.2991L139.484 26.4924ZM136.511 19.7837V1.26914H123.718L119.193 13.235L136.511 19.7837ZM142.648 19.7837L159.989 13.2988L155.491 1.26914H142.648V19.7837ZM152.825 47V65.5145H179.515L170.167 40.5151L152.825 47ZM146.612 47L129.081 52.9539L133.347 65.5145H146.612V47ZM144.553 40.9392L162.085 34.9853L157.819 22.4247H144.553V40.9392ZM134.376 40.9392V22.4247H121.267L116.913 34.7887L134.376 40.9392ZM132.241 47V65.5145H145.35L149.704 53.1505L132.241 47ZM126.219 47L108.901 40.4513L99.4233 65.5145H126.219V47ZM135.939 54.9939H142.991V17.9649H135.939V54.9939ZM160.501 30.4644L157.07 20.4775L122.05 32.5074L125.48 42.4944L160.501 30.4644ZM139.56 7.97793H139.484V45.007H139.56V7.97793ZM122.036 20.2991L118.491 30.2861L153.387 42.6727L156.932 32.6858L122.036 20.2991ZM136.511 38.2982H142.648V1.26914H136.511V38.2982ZM125.306 26.2686L135.483 53.4849L170.167 40.5151L159.989 13.2988L125.306 26.2686ZM152.825 28.4855H146.612V65.5145H152.825V28.4855ZM164.143 41.0461L162.085 34.9853L127.022 46.8932L129.081 52.9539L164.143 41.0461ZM144.553 22.4247H134.376V59.4537H144.553V22.4247ZM116.913 34.7887L114.778 40.8495L149.704 53.1505L151.839 47.0897L116.913 34.7887ZM132.241 28.4855H126.219V65.5145H132.241V28.4855ZM143.536 53.5487L153.828 26.3324L119.193 13.235L108.901 40.4513L143.536 53.5487ZM159.395 36.4032H177.909V31.2682L175.264 26.8668L159.395 36.4032ZM149.408 19.7837V1.26914H116.682L133.538 29.32L149.408 19.7837ZM156.117 19.7837L172.047 10.3496L166.67 1.26914H156.117V19.7837ZM162.482 30.533L146.552 39.9671L162.53 66.9487L178.438 39.9251L162.482 30.533ZM168.81 19.7837V1.26914H158.224L152.855 10.3915L168.81 19.7837ZM175.481 19.7837L191.341 29.3358L208.245 1.26914H175.481V19.7837ZM165.379 36.5556L149.519 27.0035L146.865 31.4108V36.5556H165.379ZM165.379 47V65.5145H183.894V47H165.379ZM159.395 47H140.88V65.5145H159.395V47ZM175.264 26.8668L165.277 10.2473L133.538 29.32L143.525 45.9395L175.264 26.8668ZM149.408 38.2982H156.117V1.26914H149.408V38.2982ZM140.186 29.2178L146.552 39.9671L178.413 21.0989L172.047 10.3496L140.186 29.2178ZM178.438 39.9251L184.765 29.1758L152.855 10.3915L146.527 21.1408L178.438 39.9251ZM168.81 38.2982H175.481V1.26914H168.81V38.2982ZM159.621 10.2315L149.519 27.0035L181.239 46.1078L191.341 29.3358L159.621 10.2315ZM146.865 36.5556V47H183.894V36.5556H146.865ZM165.379 28.4855H159.395V65.5145H165.379V28.4855ZM177.909 47V36.4032H140.88V47H177.909ZM208.045 43.9124L226.209 40.3246L218.345 0.513241L193.431 32.5456L208.045 43.9124ZM204.5 46.8094L211.55 63.9294L211.692 63.8707L211.834 63.8096L204.5 46.8094ZM194.933 46.5426L187.389 63.4506L187.545 63.5201L187.702 63.5867L194.933 46.5426ZM190.74 43.5313L204.502 31.1457L204.502 31.1457L190.74 43.5313ZM188.11 39.0714L170.651 45.2334L170.665 45.2743L170.68 45.315L188.11 39.0714ZM188.11 27.8647L205.569 34.0267L205.583 33.9869L205.597 33.9471L188.11 27.8647ZM190.74 23.2905L204.623 35.5401L204.623 35.5401L190.74 23.2905ZM194.933 20.2411L187.485 3.29068L187.437 3.31172L187.389 3.33304L194.933 20.2411ZM204.615 19.7837L198.76 37.3481L198.964 37.4161L199.17 37.4794L204.615 19.7837ZM208.16 21.6133L196.768 36.2086L196.853 36.275L196.939 36.3404L208.16 21.6133ZM210.79 24.6247L194.736 33.8472L194.736 33.8472L210.79 24.6247ZM212.048 28.7414V47.2559H232.473L230.473 26.9291L212.048 28.7414ZM206.33 28.7414L188.3 32.9485L191.638 47.2559H206.33V28.7414ZM204.272 25.3108L193.163 40.1224L193.163 40.1224L204.272 25.3108ZM197.144 24.9677L205.948 41.2551L206.116 41.164L206.283 41.0695L197.144 24.9677ZM194.857 27.0642L210.192 37.4381L210.261 37.3355L210.329 37.232L194.857 27.0642ZM193.561 30.0374L175.599 25.547L175.551 25.7401L175.506 25.9342L193.561 30.0374ZM193.561 36.8606L175.527 41.0544L175.585 41.3037L175.65 41.5514L193.561 36.8606ZM194.857 39.7576L179.521 50.1314L179.521 50.1314L194.857 39.7576ZM197.144 41.8541L188.005 57.9559L188.171 58.0504L188.34 58.1414L197.144 41.8541ZM205.148 41.1298L217.747 54.6971L217.753 54.6915L217.759 54.6859L205.148 41.1298ZM207.054 36.7462L225.489 38.4668L227.377 18.2317H207.054V36.7462ZM201.032 36.7462H182.517V55.2607H201.032V36.7462ZM201.032 32.2864V13.7719H182.517V32.2864H201.032ZM212.467 32.2864H230.982V13.7719H212.467V32.2864ZM212.467 47V65.5145H230.982V47H212.467ZM208.655 47L190.492 50.5879L193.44 65.5145H208.655V47ZM193.431 32.5456C193.839 32.0207 195.009 30.7399 197.167 29.8092L211.834 63.8096C216.583 61.7608 220.117 58.5487 222.66 55.2792L193.431 32.5456ZM197.451 29.6894C198.254 29.3589 199.333 29.0954 200.574 29.0954V66.1244C204.458 66.1244 208.155 65.3272 211.55 63.9294L197.451 29.6894ZM200.574 29.0954C200.62 29.0954 201.248 29.11 202.164 29.4985L187.702 63.5867C191.972 65.3982 196.361 66.1244 200.574 66.1244V29.0954ZM202.476 29.6345C203.051 29.8909 203.812 30.3795 204.502 31.1457L176.978 55.9168C179.955 59.2242 183.511 61.7204 187.389 63.4506L202.476 29.6345ZM204.502 31.1457C205.06 31.7668 205.385 32.3974 205.54 32.8278L170.68 45.315C172.054 49.1507 174.132 52.7545 176.978 55.9168L204.502 31.1457ZM205.569 32.9094C205.635 33.0987 205.673 33.2616 205.693 33.3809C205.712 33.4982 205.709 33.5454 205.709 33.5062H168.68C168.68 37.4157 169.287 41.3705 170.651 45.2334L205.569 32.9094ZM205.709 33.5062C205.709 33.4165 205.716 33.4322 205.699 33.5347C205.682 33.6399 205.645 33.8108 205.569 34.0267L170.651 21.7027C169.27 25.6144 168.68 29.6025 168.68 33.5062H205.709ZM205.597 33.9471C205.476 34.294 205.184 34.9037 204.623 35.5401L176.857 11.0409C174.008 14.2694 171.963 17.9286 170.623 21.7823L205.597 33.9471ZM204.623 35.5401C203.93 36.3256 203.132 36.8567 202.476 37.1491L187.389 3.33304C183.43 5.09936 179.837 7.66344 176.857 11.0409L204.623 35.5401ZM202.381 37.1915C201.409 37.6186 200.703 37.6502 200.574 37.6502V0.621138C196.278 0.621138 191.811 1.38961 187.485 3.29068L202.381 37.1915ZM200.574 37.6502C200.029 37.6502 199.396 37.5599 198.76 37.3481L210.47 2.21924C207.242 1.14339 203.915 0.621138 200.574 0.621138V37.6502ZM199.17 37.4794C198.438 37.2541 197.585 36.8456 196.768 36.2086L219.551 7.01805C216.651 4.75467 213.435 3.12641 210.06 2.08788L199.17 37.4794ZM196.939 36.3404C195.992 35.6189 195.245 34.7331 194.736 33.8472L226.844 15.4021C224.963 12.1274 222.462 9.23418 219.38 6.88629L196.939 36.3404ZM194.736 33.8472C193.955 32.4874 193.693 31.2721 193.622 30.5538L230.473 26.9291C230.098 23.1105 228.997 19.1507 226.844 15.4021L194.736 33.8472ZM212.048 10.2269H206.33V47.2559H212.048V10.2269ZM224.36 24.5344C223.253 19.7894 220.633 14.4383 215.38 10.4992L193.163 40.1224C189.944 37.708 188.696 34.644 188.3 32.9485L224.36 24.5344ZM215.38 10.4992C210.72 7.00397 205.443 5.65273 200.574 5.65273V42.6818C198.603 42.6818 195.79 42.0929 193.163 40.1224L215.38 10.4992ZM200.574 5.65273C196.801 5.65273 192.337 6.40684 188.005 8.86592L206.283 41.0695C203.83 42.4613 201.653 42.6818 200.574 42.6818V5.65273ZM188.34 8.68038C184.717 10.6389 181.658 13.4355 179.384 16.8965L210.329 37.232C209.224 38.9141 207.69 40.3131 205.948 41.2551L188.34 8.68038ZM179.521 16.6904C177.604 19.5252 176.348 22.5488 175.599 25.547L211.522 34.5279C211.332 35.2899 210.941 36.3313 210.192 37.4381L179.521 16.6904ZM175.506 25.9342C174.934 28.4535 174.665 30.9886 174.665 33.5062H211.694C211.694 33.635 211.679 33.8576 211.615 34.1406L175.506 25.9342ZM174.665 33.5062C174.665 36.034 174.947 38.5602 175.527 41.0544L211.594 32.6668C211.666 32.9755 211.694 33.2654 211.694 33.5062H174.665ZM175.65 41.5514C176.43 44.5274 177.697 47.4344 179.521 50.1314L210.192 29.3837C210.847 30.3527 211.251 31.3284 211.471 32.1698L175.65 41.5514ZM179.521 50.1314C181.762 53.4434 184.679 56.0682 188.005 57.9559L206.283 25.7522C207.728 26.5726 209.12 27.7998 210.192 29.3837L179.521 50.1314ZM188.34 58.1414C192.599 60.4435 196.937 61.1309 200.574 61.1309V24.1019C201.518 24.1019 203.569 24.2811 205.948 25.5667L188.34 58.1414ZM200.574 61.1309C205.519 61.1309 212.179 59.8669 217.747 54.6971L192.55 27.5625C195.983 24.3748 199.594 24.1019 200.574 24.1019V61.1309ZM217.759 54.6859C223.036 49.7771 225.011 43.5821 225.489 38.4668L188.62 35.0257C188.742 33.7222 189.447 30.4495 192.538 27.5737L217.759 54.6859ZM207.054 18.2317H201.032V55.2607H207.054V18.2317ZM219.546 36.7462V32.2864H182.517V36.7462H219.546ZM201.032 50.8009H212.467V13.7719H201.032V50.8009ZM193.953 32.2864V47H230.982V32.2864H193.953ZM212.467 28.4855H208.655V65.5145H212.467V28.4855ZM226.819 43.4121L226.209 40.3246L189.882 47.5003L190.492 50.5879L226.819 43.4121ZM237.312 44.9416L249.418 58.9499L249.467 58.9074L249.516 58.8646L237.312 44.9416ZM220.197 44.9416L207.918 58.7989L207.962 58.8372L208.005 58.8752L220.197 44.9416ZM217.186 19.7837V1.26914H198.671V19.7837H217.186ZM223.17 19.7837H241.685V1.26914H223.17V19.7837ZM223.361 38.8808L241.587 35.6262L241.587 35.6262L223.361 38.8808ZM224.161 40.7867L209.188 51.6765L209.309 51.8433L209.434 52.0073L224.161 40.7867ZM225.839 42.1209L217.559 58.6808L217.908 58.8556L218.265 59.0155L225.839 42.1209ZM233.195 41.206L247.199 53.3174L247.279 53.2251L247.357 53.1319L233.195 41.206ZM234.415 19.7837V1.26914H215.901V19.7837H234.415ZM240.4 19.7837H258.914V1.26914H240.4V19.7837ZM221.885 36.7081C221.885 36.878 221.856 36.1932 222.292 35.0292C222.772 33.7504 223.679 32.2713 225.108 31.0187L249.516 58.8646C256.845 52.4406 258.914 43.7843 258.914 36.7081H221.885ZM225.206 30.9333C226.275 30.0098 227.346 29.5101 228.111 29.2711C228.817 29.0507 229.112 29.0954 228.774 29.0954V66.1244C235.345 66.1244 243.008 64.4896 249.418 58.9499L225.206 30.9333ZM228.774 29.0954C227.933 29.0954 229.989 28.9078 232.389 31.008L208.005 58.8752C214.471 64.5331 222.245 66.1244 228.774 66.1244V29.0954ZM232.476 31.0844C233.972 32.4106 234.87 33.9419 235.327 35.1896C235.74 36.3207 235.7 36.9524 235.7 36.7081H198.671C198.671 43.6063 200.6 52.3144 207.918 58.7989L232.476 31.0844ZM235.7 36.7081V19.7837H198.671V36.7081H235.7ZM217.186 38.2982H223.17V1.26914H217.186V38.2982ZM204.656 19.7837V36.7081H241.685V19.7837H204.656ZM204.656 36.7081C204.656 38.5149 204.812 40.3289 205.135 42.1355L241.587 35.6262C241.656 36.0098 241.685 36.3752 241.685 36.7081H204.656ZM205.135 42.1355C205.731 45.4762 207.058 48.7475 209.188 51.6765L239.135 29.897C240.452 31.7079 241.245 33.7085 241.587 35.6262L205.135 42.1355ZM209.434 52.0073C211.844 55.1702 214.785 57.2937 217.559 58.6808L234.119 25.561C235.469 26.2365 237.292 27.4706 238.888 29.5661L209.434 52.0073ZM218.265 59.0155C222.283 60.8167 226.152 61.1309 228.774 61.1309V24.1019C228.972 24.1019 229.478 24.1133 230.207 24.2364C230.929 24.3582 232.065 24.6223 233.412 25.2262L218.265 59.0155ZM228.774 61.1309C232.605 61.1309 241.021 60.4604 247.199 53.3174L219.192 29.0947C221.502 26.4237 224.133 25.1739 225.854 24.6249C227.48 24.1063 228.601 24.1019 228.774 24.1019V61.1309ZM247.357 53.1319C252.253 47.3185 252.93 40.61 252.93 36.7081H215.901C215.901 36.5609 215.908 35.7408 216.241 34.5115C216.584 33.2454 217.351 31.2782 219.033 29.2802L247.357 53.1319ZM252.93 36.7081V19.7837H215.901V36.7081H252.93ZM234.415 38.2982H240.4V1.26914H234.415V38.2982ZM221.885 19.7837V36.7081H258.914V19.7837H221.885ZM245.554 19.7837V1.26914H227.039V19.7837H245.554ZM251.538 19.7837H270.053V1.26914H251.538V19.7837ZM251.538 47V65.5145H270.053V47H251.538ZM245.554 47H227.039V65.5145H245.554V47ZM245.554 38.2982H251.538V1.26914H245.554V38.2982ZM233.024 19.7837V47H270.053V19.7837H233.024ZM251.538 28.4855H245.554V65.5145H251.538V28.4855ZM264.068 47V19.7837H227.039V47H264.068ZM262.818 24.8153H281.333V6.30074H262.818V24.8153ZM254.661 24.8153H236.146V43.3298H254.661V24.8153ZM254.661 19.7837V1.26914H236.146V19.7837H254.661ZM276.96 19.7837H295.475V1.26914H276.96V19.7837ZM276.96 24.8153V43.3298H295.475V24.8153H276.96ZM268.803 24.8153V6.30074H250.288V24.8153H268.803ZM268.803 47V65.5145H287.317V47H268.803ZM262.818 47H244.304V65.5145H262.818V47ZM262.818 6.30074H254.661V43.3298H262.818V6.30074ZM273.175 24.8153V19.7837H236.146V24.8153H273.175ZM254.661 38.2982H276.96V1.26914H254.661V38.2982ZM258.446 19.7837V24.8153H295.475V19.7837H258.446ZM276.96 6.30074H268.803V43.3298H276.96V6.30074ZM250.288 24.8153V47H287.317V24.8153H250.288ZM268.803 28.4855H262.818V65.5145H268.803V28.4855ZM281.333 47V24.8153H244.304V47H281.333ZM283.46 36.4794L266.012 30.2861L257.242 54.9939H283.46V36.4794ZM290.512 36.4794V54.9939H316.449L308.022 30.4644L290.512 36.4794ZM287.082 26.4924L304.592 20.4775L300.298 7.97793H287.082V26.4924ZM287.005 26.4924V7.97793H273.931L269.557 20.2991L287.005 26.4924ZM284.032 19.7837V1.26914H271.239L266.714 13.235L284.032 19.7837ZM290.169 19.7837L307.511 13.2988L303.012 1.26914H290.169V19.7837ZM300.347 47V65.5145H327.037L317.688 40.5151L300.347 47ZM294.133 47L276.602 52.9539L280.868 65.5145H294.133V47ZM292.075 40.9392L309.606 34.9853L305.34 22.4247H292.075V40.9392ZM281.898 40.9392V22.4247H268.789L264.434 34.7887L281.898 40.9392ZM279.763 47V65.5145H292.871L297.226 53.1505L279.763 47ZM273.74 47L256.423 40.4513L246.945 65.5145H273.74V47ZM283.46 54.9939H290.512V17.9649H283.46V54.9939ZM308.022 30.4644L304.592 20.4775L269.571 32.5074L273.002 42.4944L308.022 30.4644ZM287.082 7.97793H287.005V45.007H287.082V7.97793ZM269.557 20.2991L266.012 30.2861L300.908 42.6727L304.453 32.6858L269.557 20.2991ZM284.032 38.2982H290.169V1.26914H284.032V38.2982ZM272.827 26.2686L283.005 53.4849L317.688 40.5151L307.511 13.2988L272.827 26.2686ZM300.347 28.4855H294.133V65.5145H300.347V28.4855ZM311.664 41.0461L309.606 34.9853L274.544 46.8932L276.602 52.9539L311.664 41.0461ZM292.075 22.4247H281.898V59.4537H292.075V22.4247ZM264.434 34.7887L262.3 40.8495L297.226 53.1505L299.361 47.0897L264.434 34.7887ZM279.763 28.4855H273.74V65.5145H279.763V28.4855ZM291.058 53.5487L301.35 26.3324L266.714 13.235L256.423 40.4513L291.058 53.5487ZM308.678 32.0958H290.164V50.6103H308.678V32.0958ZM318.322 25.3489L306.022 39.1868L306.168 39.3164L306.316 39.443L318.322 25.3489ZM308.678 24.4341V5.91956H290.164V24.4341H308.678ZM302.694 19.7837V1.26914H284.179V19.7837H302.694ZM320.647 20.3936L313.463 37.4572L313.73 37.5698L314.001 37.674L320.647 20.3936ZM323.163 21.9945L310.071 35.0862L310.19 35.2052L310.311 35.3221L323.163 21.9945ZM324.764 24.396L307.508 31.1065L307.623 31.3999L307.747 31.6892L324.764 24.396ZM324.307 31.4478L308.339 22.0757L308.263 22.2061L308.189 22.3376L324.307 31.4478ZM321.028 34.1161L314.152 16.9258L302.514 21.5811V34.1161H321.028ZM321.028 34.1923H302.514V48.2909L316.105 52.0402L321.028 34.1923ZM322.858 35.1453L310.513 48.943L310.72 49.1283L310.932 49.3072L322.858 35.1453ZM324.04 36.6319L307.625 45.196L307.704 45.3476L307.786 45.4976L324.04 36.6319ZM324.688 38.4997L306.483 41.871L306.543 42.1946L306.614 42.516L324.688 38.4997ZM324.993 40.558L343.475 39.4708L343.467 39.3305L343.457 39.1903L324.993 40.558ZM325.183 43.8743L306.733 45.4119L306.764 45.7921L306.812 46.1708L325.183 43.8743ZM325.488 45.6277L307.434 49.731L307.547 50.226L307.686 50.7141L325.488 45.6277ZM326.136 47V65.5145H362.673L341.066 36.0512L326.136 47ZM320.152 47L302.858 53.6122L307.409 65.5145H320.152V47ZM319.542 43.9124L338.019 42.7331L338.019 42.733L319.542 43.9124ZM319.199 40.4818L337.536 37.9232L337.531 37.8933L337.527 37.8634L319.199 40.4818ZM317.903 37.3561L330.995 24.2644L330.994 24.2644L317.903 37.3561ZM308.678 36.365V17.8505H290.164V36.365H308.678ZM308.678 47V65.5145H327.193V47H308.678ZM302.694 47H284.179V65.5145H302.694V47ZM308.678 50.6103H315.234V13.5813H308.678V50.6103ZM315.234 50.6103C318.959 50.6103 325.21 49.83 330.622 45.0189L306.022 17.3431C310.062 13.7517 314.255 13.5813 315.234 13.5813V50.6103ZM330.622 45.0189C336.878 39.4585 337.866 32.2301 337.866 28.2078H300.837C300.837 26.9299 301.138 21.6837 306.022 17.3431L330.622 45.0189ZM337.866 28.2078C337.866 24.0489 336.774 16.7455 330.328 11.2549L306.316 39.443C301.243 35.1212 300.837 29.7237 300.837 28.2078H337.866ZM330.622 11.511C325.21 6.69986 318.959 5.91956 315.234 5.91956V42.9486C314.255 42.9486 310.062 42.7782 306.022 39.1868L330.622 11.511ZM315.234 5.91956H308.678V42.9486H315.234V5.91956ZM290.164 24.4341V32.0958H327.193V24.4341H290.164ZM302.694 38.2982H317.369V1.26914H302.694V38.2982ZM317.369 38.2982C316.522 38.2982 315.113 38.1522 313.463 37.4572L327.832 3.32992C324.25 1.82172 320.656 1.26914 317.369 1.26914V38.2982ZM314.001 37.674C312.804 37.2138 311.384 36.3986 310.071 35.0862L336.255 8.90279C333.57 6.21818 330.472 4.33571 327.294 3.11311L314.001 37.674ZM310.311 35.3221C309.107 34.1609 308.131 32.7082 307.508 31.1065L342.02 17.6854C340.685 14.254 338.642 11.2004 336.015 8.66695L310.311 35.3221ZM307.747 31.6892C307.066 30.1016 306.821 28.5638 306.821 27.2929H343.85C343.85 23.9383 343.224 20.4691 341.782 17.1027L307.747 31.6892ZM306.821 27.2929C306.821 26.2001 307.077 24.2257 308.339 22.0757L340.274 40.8199C342.908 36.332 343.85 31.5877 343.85 27.2929H306.821ZM308.189 22.3376C310.031 19.0783 312.666 17.5204 314.152 16.9258L327.905 51.3064C332.44 49.492 337.261 46.1552 340.425 40.558L308.189 22.3376ZM302.514 34.1161V34.1923H339.543V34.1161H302.514ZM316.105 52.0402C314.581 51.6199 312.509 50.7292 310.513 48.943L335.203 21.3475C332.242 18.6973 328.949 17.1713 325.952 16.3445L316.105 52.0402ZM310.932 49.3072C309.486 48.0897 308.387 46.6556 307.625 45.196L340.454 28.0677C339.083 25.4392 337.195 23.014 334.784 20.9833L310.932 49.3072ZM307.786 45.4976C307.069 44.1835 306.678 42.9247 306.483 41.871L342.893 35.1284C342.444 32.7023 341.62 30.1983 340.294 27.7661L307.786 45.4976ZM306.614 42.516C306.577 42.3486 306.545 42.1498 306.529 41.9258L343.457 39.1903C343.338 37.594 343.104 36.0229 342.761 34.4833L306.614 42.516ZM306.51 41.6452C306.528 41.9568 306.549 42.3665 306.572 42.887L343.566 41.2786C343.538 40.6301 343.508 40.0232 343.475 39.4708L306.51 41.6452ZM306.572 42.887C306.608 43.7271 306.663 44.569 306.733 45.4119L343.634 42.3367C343.602 41.9598 343.58 41.6074 343.566 41.2786L306.572 42.887ZM306.812 46.1708C306.959 47.3447 307.162 48.5344 307.434 49.731L343.542 41.5245C343.56 41.603 343.561 41.6237 343.555 41.5779L306.812 46.1708ZM307.686 50.7141C308.338 52.9968 309.425 55.5205 311.206 57.9488L341.066 36.0512C342.288 37.7171 342.943 39.326 343.29 40.5414L307.686 50.7141ZM326.136 28.4855H320.152V65.5145H326.136V28.4855ZM337.445 40.3878C337.943 41.6894 338.009 42.583 338.019 42.7331L301.065 45.0918C301.227 47.6306 301.7 50.5826 302.858 53.6122L337.445 40.3878ZM338.019 42.733C337.916 41.1157 337.757 39.5102 337.536 37.9232L300.862 43.0404C300.945 43.6388 301.016 44.3205 301.065 45.0918L338.019 42.733ZM337.527 37.8634C337.044 34.484 335.648 28.918 330.995 24.2644L304.811 50.4478C301.479 47.1156 300.947 43.6335 300.87 43.1002L337.527 37.8634ZM330.994 24.2644C325.263 18.5326 318.219 17.8505 314.663 17.8505V54.8796C314.105 54.8796 309.221 54.8582 304.811 50.4479L330.994 24.2644ZM314.663 17.8505H308.678V54.8796H314.663V17.8505ZM290.164 36.365V47H327.193V36.365H290.164ZM308.678 28.4855H302.694V65.5145H308.678V28.4855ZM321.208 47V19.7837H284.179V47H321.208ZM171.191 85.4794L153.743 79.2861L144.972 103.994H171.191V85.4794ZM178.242 85.4794V103.994H204.179L195.753 79.4644L178.242 85.4794ZM174.812 75.4924L192.322 69.4775L188.028 56.9779H174.812V75.4924ZM174.736 75.4924V56.9779H161.661L157.288 69.2991L174.736 75.4924ZM171.762 68.7837V50.2691H158.97L154.445 62.235L171.762 68.7837ZM177.899 68.7837L195.241 62.2988L190.743 50.2691H177.899V68.7837ZM188.077 96V114.515H214.767L205.419 89.5151L188.077 96ZM181.864 96L164.333 101.954L168.598 114.515H181.864V96ZM179.805 89.9392L197.336 83.9853L193.07 71.4247H179.805V89.9392ZM169.628 89.9392V71.4247H156.519L152.165 83.7887L169.628 89.9392ZM167.493 96V114.515H180.602L184.956 102.151L167.493 96ZM161.47 96L144.153 89.4513L134.675 114.515H161.47V96ZM171.191 103.994H178.242V66.9649H171.191V103.994ZM195.753 79.4644L192.322 69.4775L157.302 81.5074L160.732 91.4944L195.753 79.4644ZM174.812 56.9779H174.736V94.007H174.812V56.9779ZM157.288 69.2991L153.743 79.2861L188.638 91.6727L192.183 81.6858L157.288 69.2991ZM171.762 87.2982H177.899V50.2691H171.762V87.2982ZM160.558 75.2686L170.735 102.485L205.419 89.5151L195.241 62.2988L160.558 75.2686ZM188.077 77.4855H181.864V114.515H188.077V77.4855ZM199.395 90.0461L197.336 83.9853L162.274 95.8932L164.333 101.954L199.395 90.0461ZM179.805 71.4247H169.628V108.454H179.805V71.4247ZM152.165 83.7887L150.03 89.8495L184.956 102.151L187.091 96.0897L152.165 83.7887ZM167.493 77.4855H161.47V114.515H167.493V77.4855ZM178.788 102.549L189.08 75.3324L154.445 62.235L144.153 89.4513L178.788 102.549ZM190.424 68.7837V50.2691H171.909V68.7837H190.424ZM196.37 68.7837L212.091 59.0035L206.657 50.2691H196.37V68.7837ZM207.729 87.0422L192.009 96.8224L197.443 105.557H207.729V87.0422ZM207.806 87.0422V105.557H226.32V87.0422H207.806ZM207.806 68.7837V50.2691H189.291V68.7837H207.806ZM213.409 68.7837H231.924V50.2691H213.409V68.7837ZM213.409 96V114.515H231.924V96H213.409ZM207.425 96L191.698 105.771L197.131 114.515H207.425V96ZM196.103 77.7795L211.83 68.0083L206.397 59.265H196.103V77.7795ZM196.027 77.7795V59.265H177.513V77.7795H196.027ZM196.027 96V114.515H214.542V96H196.027ZM190.424 96H171.909V114.515H190.424V96ZM190.424 87.2982H196.37V50.2691H190.424V87.2982ZM180.65 78.5639L192.009 96.8224L223.45 77.262L212.091 59.0035L180.65 78.5639ZM207.729 105.557H207.806V68.5277H207.729V105.557ZM226.32 87.0422V68.7837H189.291V87.0422H226.32ZM207.806 87.2982H213.409V50.2691H207.806V87.2982ZM194.895 68.7837V96H231.924V68.7837H194.895ZM213.409 77.4855H207.425V114.515H213.409V77.4855ZM223.151 86.2288L211.83 68.0083L180.377 87.5508L191.698 105.771L223.151 86.2288ZM196.103 59.265H196.027V96.2941H196.103V59.265ZM177.513 77.7795V96H214.542V77.7795H177.513ZM196.027 77.4855H190.424V114.515H196.027V77.4855ZM208.938 96V68.7837H171.909V96H208.938ZM224.662 90.9684H206.147V109.483H224.662V90.9684ZM234.687 89.1769L247.779 102.269L247.907 102.14L248.033 102.009L234.687 89.1769ZM236.212 86.6229L253.599 92.9842L253.599 92.9842L236.212 86.6229ZM236.364 79.1137L218.31 83.2169L218.365 83.4603L218.427 83.7022L236.364 79.1137ZM235.068 76.2548L220.428 87.5889L220.428 87.5889L235.068 76.2548ZM232.629 74.4633L225.231 91.4354L225.49 91.5485L225.753 91.6536L232.629 74.4633ZM224.662 73.8153V55.3007H206.147V73.8153H224.662ZM218.677 68.7837V50.2691H200.163V68.7837H218.677ZM235.297 69.6223L228.828 86.97L228.876 86.9877L228.923 87.0051L235.297 69.6223ZM239.223 72.1381L225.982 85.0785L226.056 85.1546L226.131 85.2298L239.223 72.1381ZM241.815 76.331L224.415 82.6583L224.457 82.7741L224.501 82.8894L241.815 76.331ZM242.006 87.7284L259.725 93.0977L259.725 93.0977L242.006 87.7284ZM239.681 92.0738L225.603 80.0489L225.529 80.1346L225.457 80.2211L239.681 92.0738ZM235.831 94.9708L243.428 111.855L243.491 111.826L243.554 111.797L235.831 94.9708ZM218.677 96H200.163V114.515H218.677V96ZM224.662 109.483H229.999V72.4539H224.662V109.483ZM229.999 109.483C232.901 109.483 235.774 109.007 238.533 108.058L226.496 73.0402C227.629 72.6507 228.824 72.4539 229.999 72.4539V109.483ZM238.533 108.058C242.129 106.822 245.244 104.803 247.779 102.269L221.595 76.0851C222.859 74.8211 224.526 73.7173 226.496 73.0402L238.533 108.058ZM248.033 102.009C250.784 99.1486 252.517 95.9431 253.599 92.9842L218.824 80.2617C219.145 79.3866 219.861 77.8837 221.341 76.3443L248.033 102.009ZM253.599 92.9842C254.937 89.3276 255.298 85.7673 255.298 82.8111H218.269C218.269 82.7892 218.27 82.5512 218.331 82.1421C218.392 81.7332 218.526 81.0781 218.824 80.2617L253.599 92.9842ZM255.298 82.8111C255.298 80.2123 255.036 77.3993 254.301 74.5252L218.427 83.7022C218.251 83.0135 218.269 82.6655 218.269 82.8111H255.298ZM254.418 75.0104C253.656 71.6581 252.201 68.1407 249.708 64.9207L220.428 87.5889C219.155 85.9445 218.564 84.333 218.31 83.2169L254.418 75.0104ZM249.708 64.9207C246.882 61.2707 243.273 58.7803 239.505 57.273L225.753 91.6536C224.017 90.9595 222.034 89.6634 220.428 87.5889L249.708 64.9207ZM240.027 57.4911C236.018 55.7438 232.081 55.3007 228.931 55.3007V92.3298C228.729 92.3298 227.257 92.3187 225.231 91.4354L240.027 57.4911ZM228.931 55.3007H224.662V92.3298H228.931V55.3007ZM206.147 73.8153V90.9684H243.176V73.8153H206.147ZM218.677 87.2982H230.418V50.2691H218.677V87.2982ZM230.418 87.2982C230.174 87.2982 229.588 87.2532 228.828 86.97L241.766 52.2745C238.008 50.8732 234.168 50.2691 230.418 50.2691V87.2982ZM228.923 87.0051C227.959 86.6517 226.894 86.0118 225.982 85.0785L252.464 59.1976C249.367 56.0281 245.684 53.7109 241.671 52.2394L228.923 87.0051ZM226.131 85.2298C225.104 84.2025 224.611 83.1955 224.415 82.6583L259.215 70.0038C257.8 66.1122 255.578 62.3099 252.315 59.0463L226.131 85.2298ZM224.501 82.8894C224.33 82.4384 224.27 82.1267 224.252 82.0141C224.234 81.9051 224.254 81.9677 224.254 82.2394H261.283C261.283 78.2978 260.735 74.0126 259.129 69.7727L224.501 82.8894ZM224.254 82.2394C224.254 82.4397 224.241 82.5389 224.239 82.5512C224.238 82.5617 224.247 82.4918 224.287 82.359L259.725 93.0977C260.824 89.4686 261.283 85.8063 261.283 82.2394H224.254ZM224.287 82.359C224.451 81.8183 224.836 80.946 225.603 80.0489L253.758 104.099C256.609 100.762 258.544 96.9928 259.725 93.0977L224.287 82.359ZM225.457 80.2211C226.338 79.164 227.336 78.4979 228.107 78.1443L243.554 111.797C247.425 110.021 250.99 107.423 253.904 103.927L225.457 80.2211ZM228.233 78.087C229.609 77.4678 230.509 77.4855 230.418 77.4855V114.515C234.494 114.515 239.003 113.846 243.428 111.855L228.233 78.087ZM230.418 77.4855H218.677V114.515H230.418V77.4855ZM237.192 96V68.7837H200.163V96H237.192ZM24.5232 139.968H6.00869V158.483H24.5232V139.968ZM34.5483 138.177L47.64 151.269L47.7684 151.14L47.8942 151.009L34.5483 138.177ZM36.073 135.623L53.4604 141.984L53.4604 141.984L36.073 135.623ZM36.2255 128.114L18.1714 132.217L18.2267 132.46L18.2886 132.702L36.2255 128.114ZM34.9295 125.255L20.2896 136.589L20.2896 136.589L34.9295 125.255ZM32.4899 123.463L25.0918 140.435L25.3511 140.548L25.6138 140.654L32.4899 123.463ZM24.5232 122.815V104.301H6.00869V122.815H24.5232ZM18.5387 117.784V99.2691H0.024144V117.784H18.5387ZM35.1582 118.622L28.6895 135.97L28.7369 135.988L28.7844 136.005L35.1582 118.622ZM39.0843 121.138L25.843 134.078L25.9174 134.155L25.9926 134.23L39.0843 121.138ZM41.6764 125.331L24.2765 131.658L24.3187 131.774L24.3623 131.889L41.6764 125.331ZM41.867 136.728L59.5858 142.098L59.5858 142.098L41.867 136.728ZM39.5417 141.074L25.4638 129.049L25.3906 129.135L25.3185 129.221L39.5417 141.074ZM35.6918 143.971L43.2895 160.855L43.3526 160.826L43.4155 160.797L35.6918 143.971ZM18.5387 145H0.024144V163.515H18.5387V145ZM24.5232 158.483H29.8597V121.454H24.5232V158.483ZM29.8597 158.483C32.7618 158.483 35.6348 158.007 38.3942 157.058L26.3568 122.04C27.4899 121.651 28.6857 121.454 29.8597 121.454V158.483ZM38.3942 157.058C41.9905 155.822 45.1054 153.803 47.64 151.269L21.4565 125.085C22.7205 123.821 24.387 122.717 26.3568 122.04L38.3942 157.058ZM47.8942 151.009C50.645 148.149 52.3779 144.943 53.4604 141.984L18.6856 129.262C19.0058 128.387 19.7222 126.884 21.2024 125.344L47.8942 151.009ZM53.4604 141.984C54.7982 138.328 55.1593 134.767 55.1593 131.811H18.1303C18.1303 131.789 18.1308 131.551 18.1921 131.142C18.2535 130.733 18.3869 130.078 18.6856 129.262L53.4604 141.984ZM55.1593 131.811C55.1593 129.212 54.8976 126.399 54.1624 123.525L18.2886 132.702C18.1124 132.014 18.1303 131.665 18.1303 131.811H55.1593ZM54.2796 124.01C53.5177 120.658 52.0622 117.141 49.5693 113.921L20.2896 136.589C19.0165 134.945 18.425 133.333 18.1714 132.217L54.2796 124.01ZM49.5693 113.921C46.7435 110.271 43.1342 107.78 39.366 106.273L25.6138 140.654C23.8785 139.959 21.8956 138.663 20.2896 136.589L49.5693 113.921ZM39.888 106.491C35.8796 104.744 31.9424 104.301 28.7924 104.301V141.33C28.5903 141.33 27.118 141.319 25.0918 140.435L39.888 106.491ZM28.7924 104.301H24.5232V141.33H28.7924V104.301ZM6.00869 122.815V139.968H43.0377V122.815H6.00869ZM18.5387 136.298H30.279V99.2691H18.5387V136.298ZM30.279 136.298C30.0354 136.298 29.4489 136.253 28.6895 135.97L41.6268 101.275C37.8688 99.8732 34.0295 99.2691 30.279 99.2691V136.298ZM28.7844 136.005C27.8207 135.652 26.7551 135.012 25.843 134.078L52.3257 108.198C49.2281 105.028 45.5451 102.711 41.5319 101.239L28.7844 136.005ZM25.9926 134.23C24.9653 133.203 24.4719 132.195 24.2765 131.658L59.0762 119.004C57.6611 115.112 55.4396 111.31 52.1761 108.046L25.9926 134.23ZM24.3623 131.889C24.1915 131.438 24.1309 131.127 24.1128 131.014C24.0952 130.905 24.1148 130.968 24.1148 131.239H61.1438C61.1438 127.298 60.5964 123.013 58.9904 118.773L24.3623 131.889ZM24.1148 131.239C24.1148 131.44 24.1019 131.539 24.1002 131.551C24.0988 131.562 24.1079 131.492 24.1481 131.359L59.5858 142.098C60.6855 138.469 61.1438 134.806 61.1438 131.239H24.1148ZM24.1481 131.359C24.312 130.818 24.6975 129.946 25.4638 129.049L53.6197 153.099C56.4698 149.762 58.4055 145.993 59.5858 142.098L24.1481 131.359ZM25.3185 129.221C26.1994 128.164 27.1977 127.498 27.9682 127.144L43.4155 160.797C47.2862 159.021 50.8511 156.423 53.765 152.927L25.3185 129.221ZM28.0941 127.087C29.4701 126.468 30.37 126.485 30.279 126.485V163.515C34.3557 163.515 38.8641 162.846 43.2895 160.855L28.0941 127.087ZM30.279 126.485H18.5387V163.515H30.279V126.485ZM37.0532 145V117.784H0.024144V145H37.0532ZM52.7768 130.096H34.2623V148.61H52.7768V130.096ZM62.4207 123.349L50.1203 137.187L50.2661 137.316L50.4146 137.443L62.4207 123.349ZM52.7768 122.434V103.92H34.2623V122.434H52.7768ZM46.7922 117.784V99.2691H28.2777V117.784H46.7922ZM64.7459 118.394L57.5612 135.457L57.8287 135.57L58.0996 135.674L64.7459 118.394ZM67.2617 119.995L54.1699 133.086L54.2889 133.205L54.4101 133.322L67.2617 119.995ZM68.8626 122.396L51.607 129.106L51.7211 129.4L51.8451 129.689L68.8626 122.396ZM68.4052 129.448L52.438 120.076L52.3615 120.206L52.2872 120.338L68.4052 129.448ZM65.127 132.116L58.2509 114.926L46.6125 119.581V132.116H65.127ZM65.127 132.192H46.6125V146.291L60.2035 150.04L65.127 132.192ZM66.9567 133.145L54.6113 146.943L54.8184 147.128L55.0309 147.307L66.9567 133.145ZM68.1384 134.632L51.7237 143.196L51.8027 143.348L51.8846 143.498L68.1384 134.632ZM68.7864 136.5L50.5814 139.871L50.6413 140.195L50.7128 140.516L68.7864 136.5ZM69.0913 138.558L87.5739 137.471L87.5656 137.331L87.5553 137.19L69.0913 138.558ZM69.2819 141.874L50.8314 143.412L50.8631 143.792L50.9104 144.171L69.2819 141.874ZM69.5869 143.628L51.5328 147.731L51.6453 148.226L51.7847 148.714L69.5869 143.628ZM70.2349 145V163.515H106.771L85.1651 134.051L70.2349 145ZM64.2503 145L46.9568 151.612L51.5077 163.515H64.2503V145ZM63.6404 141.912L82.1174 140.733L82.1174 140.733L63.6404 141.912ZM63.2974 138.482L81.6342 135.923L81.6301 135.893L81.6258 135.863L63.2974 138.482ZM62.0014 135.356L75.0931 122.264L75.0931 122.264L62.0014 135.356ZM52.7768 134.365V115.851H34.2623V134.365H52.7768ZM52.7768 145V163.515H71.2913V145H52.7768ZM46.7922 145H28.2777V163.515H46.7922V145ZM52.7768 148.61H59.3331V111.581H52.7768V148.61ZM59.3331 148.61C63.0573 148.61 69.3085 147.83 74.721 143.019L50.1203 115.343C54.1606 111.752 58.3534 111.581 59.3331 111.581V148.61ZM74.721 143.019C80.9765 137.458 81.9644 130.23 81.9644 126.208H44.9353C44.9353 124.93 45.237 119.684 50.1203 115.343L74.721 143.019ZM81.9644 126.208C81.9644 122.049 80.8723 114.746 74.4267 109.255L50.4146 137.443C45.3413 133.121 44.9353 127.724 44.9353 126.208H81.9644ZM74.721 109.511C69.3085 104.7 63.0573 103.92 59.3331 103.92V140.949C58.3534 140.949 54.1606 140.778 50.1203 137.187L74.721 109.511ZM59.3331 103.92H52.7768V140.949H59.3331V103.92ZM34.2623 122.434V130.096H71.2913V122.434H34.2623ZM46.7922 136.298H61.4677V99.2691H46.7922V136.298ZM61.4677 136.298C60.6202 136.298 59.2118 136.152 57.5612 135.457L71.9306 101.33C68.3486 99.8217 64.7548 99.2691 61.4677 99.2691V136.298ZM58.0996 135.674C56.9029 135.214 55.4823 134.399 54.1699 133.086L80.3534 106.903C77.6688 104.218 74.5709 102.336 71.3922 101.113L58.0996 135.674ZM54.4101 133.322C53.2059 132.161 52.2299 130.708 51.607 129.106L86.1182 115.685C84.7838 112.254 82.7405 109.2 80.1132 106.667L54.4101 133.322ZM51.8451 129.689C51.1647 128.102 50.9199 126.564 50.9199 125.293H87.9489C87.9489 121.938 87.3229 118.469 85.8801 115.103L51.8451 129.689ZM50.9199 125.293C50.9199 124.2 51.1761 122.226 52.438 120.076L84.3724 138.82C87.0066 134.332 87.9489 129.588 87.9489 125.293H50.9199ZM52.2872 120.338C54.1294 117.078 56.7645 115.52 58.2509 114.926L72.0032 149.306C76.5391 147.492 81.3596 144.155 84.5233 138.558L52.2872 120.338ZM46.6125 132.116V132.192H83.6416V132.116H46.6125ZM60.2035 150.04C58.6799 149.62 56.6076 148.729 54.6113 146.943L79.3021 119.347C76.3401 116.697 73.0481 115.171 70.0506 114.344L60.2035 150.04ZM55.0309 147.307C53.585 146.09 52.4852 144.656 51.7237 143.196L84.5531 126.068C83.1817 123.439 81.2941 121.014 78.8826 118.983L55.0309 147.307ZM51.8846 143.498C51.1678 142.184 50.7765 140.925 50.5814 139.871L86.9914 133.128C86.5421 130.702 85.7188 128.198 84.3922 125.766L51.8846 143.498ZM50.7128 140.516C50.6756 140.349 50.644 140.15 50.6274 139.926L87.5553 137.19C87.437 135.594 87.2022 134.023 86.86 132.483L50.7128 140.516ZM50.6088 139.645C50.6271 139.957 50.6479 140.367 50.6705 140.887L87.6646 139.279C87.6364 138.63 87.6064 138.023 87.5739 137.471L50.6088 139.645ZM50.6705 140.887C50.7071 141.727 50.7611 142.569 50.8314 143.412L87.7325 140.337C87.7011 139.96 87.6789 139.607 87.6646 139.279L50.6705 140.887ZM50.9104 144.171C51.0571 145.345 51.2608 146.534 51.5328 147.731L87.641 139.525C87.6588 139.603 87.6592 139.624 87.6535 139.578L50.9104 144.171ZM51.7847 148.714C52.4369 150.997 53.5239 153.521 55.3047 155.949L85.1651 134.051C86.3868 135.717 87.0418 137.326 87.389 138.541L51.7847 148.714ZM70.2349 126.485H64.2503V163.515H70.2349V126.485ZM81.5438 138.388C82.0415 139.689 82.1078 140.583 82.1174 140.733L45.1635 143.092C45.3256 145.631 45.7984 148.583 46.9568 151.612L81.5438 138.388ZM82.1174 140.733C82.0141 139.116 81.8557 137.51 81.6342 135.923L44.9605 141.04C45.044 141.639 45.1143 142.32 45.1635 143.092L82.1174 140.733ZM81.6258 135.863C81.143 132.484 79.7468 126.918 75.0931 122.264L48.9096 148.448C45.5774 145.116 45.0451 141.633 44.9689 141.1L81.6258 135.863ZM75.0931 122.264C69.3613 116.533 62.3176 115.851 58.7613 115.851V152.88C58.2037 152.88 53.32 152.858 48.9096 148.448L75.0931 122.264ZM58.7613 115.851H52.7768V152.88H58.7613V115.851ZM34.2623 134.365V145H71.2913V134.365H34.2623ZM52.7768 126.485H46.7922V163.515H52.7768V126.485ZM65.3067 145V117.784H28.2777V145H65.3067ZM74.3013 117.784V99.2691H55.7868V117.784H74.3013ZM80.2858 117.784H98.8004V99.2691H80.2858V117.784ZM80.2858 145V163.515H98.8004V145H80.2858ZM74.3013 145H55.7868V163.515H74.3013V145ZM74.3013 136.298H80.2858V99.2691H74.3013V136.298ZM61.7713 117.784V145H98.8004V117.784H61.7713ZM80.2858 126.485H74.3013V163.515H80.2858V126.485ZM92.8158 145V117.784H55.7868V145H92.8158ZM85.5432 117.784V99.2691H67.0287V117.784H85.5432ZM91.4896 117.784L107.21 108.003L101.776 99.2691H91.4896V117.784ZM102.849 136.042L87.1283 145.822L92.5622 154.557H102.849V136.042ZM102.925 136.042V154.557H121.44V136.042H102.925ZM102.925 117.784V99.2691H84.4105V117.784H102.925ZM108.528 117.784H127.043V99.2691H108.528V117.784ZM108.528 145V163.515H127.043V145H108.528ZM102.544 145L86.8178 154.771L92.2503 163.515H102.544V145ZM91.2228 126.78L106.949 117.008L101.516 108.265H91.2228V126.78ZM91.1465 126.78V108.265H72.632V126.78H91.1465ZM91.1465 145V163.515H109.661V145H91.1465ZM85.5432 145H67.0287V163.515H85.5432V145ZM85.5432 136.298H91.4896V99.2691H85.5432V136.298ZM75.7691 127.564L87.1283 145.822L118.569 126.262L107.21 108.003L75.7691 127.564ZM102.849 154.557H102.925V117.528H102.849V154.557ZM121.44 136.042V117.784H84.4105V136.042H121.44ZM102.925 136.298H108.528V99.2691H102.925V136.298ZM90.0139 117.784V145H127.043V117.784H90.0139ZM108.528 126.485H102.544V163.515H108.528V126.485ZM118.27 135.229L106.949 117.008L75.4967 136.551L86.8178 154.771L118.27 135.229ZM91.2228 108.265H91.1465V145.294H91.2228V108.265ZM72.632 126.78V145H109.661V126.78H72.632ZM91.1465 126.485H85.5432V163.515H91.1465V126.485ZM104.058 145V117.784H67.0287V145H104.058ZM113.797 117.784V99.2691H95.2822V117.784H113.797ZM119.781 117.784H138.296V99.2691H119.781V117.784ZM119.781 129.067H101.267V175.702L133.254 141.766L119.781 129.067ZM130.416 117.784V99.2691H122.425L116.943 105.085L130.416 117.784ZM137.887 117.784L151.049 130.805L182.25 99.2691H137.887V117.784ZM127.252 128.533L114.091 115.511L103.164 126.556L112.144 139.235L127.252 128.533ZM138.917 145V163.515H174.72L154.025 134.298L138.917 145ZM131.407 145L116.024 155.303L121.524 163.515H131.407V145ZM123.212 132.764L138.595 122.461L125.984 103.632L110.048 119.745L123.212 132.764ZM119.781 136.233L106.617 123.214L101.267 128.624V136.233H119.781ZM119.781 145V163.515H138.296V145H119.781ZM113.797 145H95.2822V163.515H113.797V145ZM113.797 136.298H119.781V99.2691H113.797V136.298ZM101.267 117.784V129.067H138.296V117.784H101.267ZM133.254 141.766L143.889 130.483L116.943 105.085L106.308 116.367L133.254 141.766ZM130.416 136.298H137.887V99.2691H130.416V136.298ZM124.726 104.762L114.091 115.511L140.414 141.555L151.049 130.805L124.726 104.762ZM112.144 139.235L123.808 155.702L154.025 134.298L142.361 117.831L112.144 139.235ZM138.917 126.485H131.407V163.515H138.917V126.485ZM146.79 134.697L138.595 122.461L107.829 143.067L116.024 155.303L146.79 134.697ZM110.048 119.745L106.617 123.214L132.945 149.252L136.376 145.783L110.048 119.745ZM101.267 136.233V145H138.296V136.233H101.267ZM119.781 126.485H113.797V163.515H119.781V126.485ZM132.311 145V117.784H95.2822V145H132.311ZM157.899 128.8H139.385V147.314H157.899V128.8ZM167.276 123.997L151.14 133.074L151.14 133.074L167.276 123.997ZM166.362 123.044L156.836 138.92L156.836 138.92L166.362 123.044ZM165.027 122.587L161.213 140.704L161.744 140.816L162.281 140.896L165.027 122.587ZM157.899 122.434V103.92H139.385V122.434H157.899ZM151.915 117.784V99.2691H133.4V117.784H151.915ZM171.012 119.27L160.395 134.438L160.567 134.559L160.742 134.675L171.012 119.27ZM172.765 121.329L156.013 129.212L156.107 129.411L156.206 129.609L172.765 121.329ZM172.461 127.961L157.253 117.401L157.153 117.545L157.056 117.691L172.461 127.961ZM169.716 130.21L161.716 113.513L117.833 134.541L164.594 148.002L169.716 130.21ZM173.452 132.764L158.047 143.034L158.171 143.22L158.299 143.403L173.452 132.764ZM173.909 140.693L190.211 149.47L190.257 149.385L190.302 149.299L173.909 140.693ZM171.736 143.132L161.176 127.925L161.075 127.995L160.975 128.066L171.736 143.132ZM168.649 144.543L163.975 126.628L163.927 126.64L163.878 126.653L168.649 144.543ZM151.915 145H133.4V163.515H151.915V145ZM157.899 140.35H139.385V158.864H157.899V140.35ZM165.98 140.197L169.445 158.385L169.859 158.306L170.269 158.208L165.98 140.197ZM167.391 139.625L177.203 155.326L177.547 155.111L177.88 154.882L167.391 139.625ZM168.344 138.52L152.159 129.528L151.964 129.88L151.784 130.24L168.344 138.52ZM167.543 133.793L156.209 148.433L156.359 148.549L156.511 148.662L167.543 133.793ZM157.899 132.878V114.364H139.385V132.878H157.899ZM157.899 147.314H163.96V110.285H157.899V147.314ZM163.96 147.314C167.99 147.314 173.013 146.321 177.611 142.915L155.57 113.16C158.796 110.771 162.065 110.285 163.96 110.285V147.314ZM177.611 142.915C184.512 137.803 186.134 130.41 186.134 125.56H149.105C149.105 124.345 149.28 122.305 150.264 119.935C151.314 117.407 153.091 114.996 155.57 113.16L177.611 142.915ZM186.134 125.56C186.134 122.846 185.664 118.921 183.413 114.92L151.14 133.074C149.346 129.886 149.105 127.002 149.105 125.56H186.134ZM183.413 114.92C181.689 111.855 179.163 109.134 175.887 107.168L156.836 138.92C154.322 137.412 152.406 135.325 151.14 133.074L183.413 114.92ZM175.887 107.168C173.129 105.513 170.309 104.657 167.774 104.277L162.281 140.896C160.762 140.668 158.832 140.118 156.836 138.92L175.887 107.168ZM168.842 104.469C167.008 104.083 165.215 103.92 163.503 103.92V140.949C162.858 140.949 162.082 140.887 161.213 140.704L168.842 104.469ZM163.503 103.92H157.899V140.949H163.503V103.92ZM139.385 122.434V128.8H176.414V122.434H139.385ZM151.915 136.298H164.723V99.2691H151.915V136.298ZM164.723 136.298C164.828 136.298 164.85 136.303 164.797 136.298C164.744 136.293 164.603 136.276 164.388 136.23L172.147 100.023C169.594 99.4761 167.088 99.2691 164.723 99.2691V136.298ZM164.388 136.23C163.449 136.029 161.979 135.547 160.395 134.438L181.629 104.103C178.52 101.926 175.221 100.682 172.147 100.023L164.388 136.23ZM160.742 134.675C158.578 133.232 156.979 131.264 156.013 129.212L189.518 113.445C187.739 109.665 184.971 106.325 181.282 103.865L160.742 134.675ZM156.206 129.609C155.012 127.222 154.899 125.264 154.899 124.531H191.928C191.928 121.256 191.382 117.163 189.325 113.049L156.206 129.609ZM154.899 124.531C154.899 123.013 155.28 120.242 157.253 117.401L187.668 138.522C190.912 133.851 191.928 128.792 191.928 124.531H154.899ZM157.056 117.691C158.673 115.265 160.622 114.037 161.716 113.513L177.717 146.907C181.249 145.214 185.028 142.487 187.866 138.231L157.056 117.691ZM164.594 148.002C162.902 147.515 160.108 146.126 158.047 143.034L188.857 122.494C185.169 116.963 179.885 113.871 174.838 112.418L164.594 148.002ZM158.299 143.403C156.602 140.986 156.195 138.561 156.195 137.11H193.224C193.224 132.253 191.978 126.931 188.604 122.125L158.299 143.403ZM156.195 137.11C156.195 136.066 156.409 134.196 157.516 132.086L190.302 149.299C192.477 145.156 193.224 140.898 193.224 137.11H156.195ZM157.608 131.915C158.44 130.369 159.671 128.97 161.176 127.925L182.297 158.339C185.631 156.024 188.311 152.998 190.211 149.47L157.608 131.915ZM160.975 128.066C162.108 127.257 163.188 126.833 163.975 126.628L173.322 162.458C176.447 161.642 179.586 160.278 182.498 158.198L160.975 128.066ZM163.878 126.653C164.338 126.531 164.763 126.485 165.104 126.485V163.515C167.884 163.515 170.672 163.164 173.419 162.432L163.878 126.653ZM165.104 126.485H151.915V163.515H165.104V126.485ZM170.429 145V117.784H133.4V145H170.429ZM157.899 158.864H164.303V121.835H157.899V158.864ZM164.303 158.864C165.963 158.864 167.687 158.72 169.445 158.385L162.516 122.01C163.207 121.878 163.812 121.835 164.303 121.835V158.864ZM170.269 158.208C172.48 157.682 174.867 156.786 177.203 155.326L157.578 123.925C159.101 122.973 160.548 122.458 161.692 122.186L170.269 158.208ZM177.88 154.882C180.964 152.762 183.327 149.953 184.904 146.8L151.784 130.24C152.903 128.002 154.631 125.93 156.902 124.369L177.88 154.882ZM184.528 147.511C186.762 143.49 187.239 139.541 187.239 136.766H150.21C150.21 135.415 150.434 132.635 152.159 129.528L184.528 147.511ZM187.239 136.766C187.239 132.147 185.849 124.321 178.575 118.924L156.511 148.662C150.813 144.434 150.21 138.591 150.21 136.766H187.239ZM178.877 119.153C173.984 115.365 168.575 114.364 164.418 114.364V151.393C162.852 151.393 159.527 151.002 156.209 148.433L178.877 119.153ZM164.418 114.364H157.899V151.393H164.418V114.364ZM139.385 132.878V140.35H176.414V132.878H139.385ZM198.766 142.942L210.872 156.95L210.921 156.907L210.97 156.865L198.766 142.942ZM181.651 142.942L169.372 156.799L169.416 156.837L169.459 156.875L181.651 142.942ZM178.64 117.784V99.2691H160.125V117.784H178.64ZM184.624 117.784H203.139V99.2691H184.624V117.784ZM184.815 136.881L203.041 133.626L203.041 133.626L184.815 136.881ZM185.615 138.787L170.642 149.676L170.763 149.843L170.888 150.007L185.615 138.787ZM187.292 140.121L179.012 156.681L179.362 156.856L179.719 157.016L187.292 140.121ZM194.649 139.206L208.653 151.317L208.733 151.225L208.811 151.132L194.649 139.206ZM195.869 117.784V99.2691H177.354V117.784H195.869ZM201.853 117.784H220.368V99.2691H201.853V117.784ZM183.339 134.708C183.339 134.878 183.309 134.193 183.746 133.029C184.225 131.75 185.133 130.271 186.562 129.019L210.97 156.865C218.299 150.441 220.368 141.784 220.368 134.708H183.339ZM186.66 128.933C187.729 128.01 188.8 127.51 189.565 127.271C190.27 127.051 190.566 127.095 190.227 127.095V164.124C196.798 164.124 204.462 162.49 210.872 156.95L186.66 128.933ZM190.227 127.095C189.387 127.095 191.442 126.908 193.843 129.008L169.459 156.875C175.925 162.533 183.699 164.124 190.227 164.124V127.095ZM193.929 129.084C195.426 130.411 196.324 131.942 196.78 133.19C197.194 134.321 197.154 134.952 197.154 134.708H160.125C160.125 141.606 162.054 150.314 169.372 156.799L193.929 129.084ZM197.154 134.708V117.784H160.125V134.708H197.154ZM178.64 136.298H184.624V99.2691H178.64V136.298ZM166.11 117.784V134.708H203.139V117.784H166.11ZM166.11 134.708C166.11 136.515 166.266 138.329 166.588 140.136L203.041 133.626C203.109 134.01 203.139 134.375 203.139 134.708H166.11ZM166.588 140.136C167.185 143.476 168.512 146.748 170.642 149.676L200.589 127.897C201.905 129.708 202.698 131.709 203.041 133.626L166.588 140.136ZM170.888 150.007C173.298 153.17 176.238 155.294 179.012 156.681L195.572 123.561C196.923 124.236 198.746 125.471 200.342 127.566L170.888 150.007ZM179.719 157.016C183.737 158.817 187.605 159.131 190.227 159.131V122.102C190.426 122.102 190.932 122.113 191.661 122.236C192.383 122.358 193.519 122.622 194.866 123.226L179.719 157.016ZM190.227 159.131C194.058 159.131 202.475 158.46 208.653 151.317L180.645 127.095C182.956 124.424 185.586 123.174 187.308 122.625C188.934 122.106 190.055 122.102 190.227 122.102V159.131ZM208.811 151.132C213.707 145.318 214.383 138.61 214.383 134.708H177.354C177.354 134.561 177.362 133.741 177.695 132.511C178.038 131.245 178.805 129.278 180.487 127.28L208.811 151.132ZM214.383 134.708V117.784H177.354V134.708H214.383ZM195.869 136.298H201.853V99.2691H195.869V136.298ZM183.339 117.784V134.708H220.368V117.784H183.339ZM212.992 128.8H194.478V147.314H212.992V128.8ZM222.369 123.997L206.232 133.074L206.232 133.074L222.369 123.997ZM221.454 123.044L211.929 138.92L211.929 138.92L221.454 123.044ZM220.12 122.587L216.306 140.704L216.837 140.816L217.374 140.896L220.12 122.587ZM212.992 122.434V103.92H194.478V122.434H212.992ZM207.007 117.784V99.2691H188.493V117.784H207.007ZM226.105 119.27L215.487 134.438L215.66 134.559L215.835 134.675L226.105 119.27ZM227.858 121.329L211.106 129.212L211.2 129.411L211.298 129.609L227.858 121.329ZM227.553 127.961L212.346 117.401L212.246 117.545L212.148 117.691L227.553 127.961ZM224.809 130.21L216.808 113.513L172.926 134.541L219.687 148.002L224.809 130.21ZM228.544 132.764L213.139 143.034L213.263 143.22L213.392 143.403L228.544 132.764ZM229.002 140.693L245.303 149.47L245.349 149.385L245.394 149.299L229.002 140.693ZM226.829 143.132L216.268 127.925L216.167 127.995L216.068 128.066L226.829 143.132ZM223.741 144.543L219.068 126.628L219.019 126.64L218.971 126.653L223.741 144.543ZM207.007 145H188.493V163.515H207.007V145ZM212.992 140.35H194.478V158.864H212.992V140.35ZM221.073 140.197L224.537 158.385L224.951 158.306L225.361 158.208L221.073 140.197ZM222.483 139.625L232.296 155.326L232.639 155.111L232.972 154.882L222.483 139.625ZM223.436 138.52L207.252 129.528L207.056 129.88L206.876 130.24L223.436 138.52ZM222.636 133.793L211.302 148.433L211.452 148.549L211.604 148.662L222.636 133.793ZM212.992 132.878V114.364H194.478V132.878H212.992ZM212.992 147.314H219.053V110.285H212.992V147.314ZM219.053 147.314C223.083 147.314 228.106 146.321 232.703 142.915L210.663 113.16C213.888 110.771 217.157 110.285 219.053 110.285V147.314ZM232.703 142.915C239.605 137.803 241.227 130.41 241.227 125.56H204.198C204.198 124.345 204.372 122.305 205.357 119.935C206.407 117.407 208.183 114.996 210.663 113.16L232.703 142.915ZM241.227 125.56C241.227 122.846 240.757 118.921 238.506 114.92L206.232 133.074C204.439 129.886 204.198 127.002 204.198 125.56H241.227ZM238.506 114.92C236.782 111.855 234.256 109.134 230.98 107.168L211.929 138.92C209.415 137.412 207.499 135.325 206.232 133.074L238.506 114.92ZM230.98 107.168C228.221 105.513 225.402 104.657 222.867 104.277L217.374 140.896C215.855 140.668 213.925 140.118 211.929 138.92L230.98 107.168ZM223.934 104.469C222.1 104.083 220.308 103.92 218.595 103.92V140.949C217.951 140.949 217.174 140.887 216.306 140.704L223.934 104.469ZM218.595 103.92H212.992V140.949H218.595V103.92ZM194.478 122.434V128.8H231.507V122.434H194.478ZM207.007 136.298H219.815V99.2691H207.007V136.298ZM219.815 136.298C219.921 136.298 219.943 136.303 219.89 136.298C219.837 136.293 219.696 136.276 219.481 136.23L227.239 100.023C224.686 99.4761 222.18 99.2691 219.815 99.2691V136.298ZM219.481 136.23C218.541 136.029 217.071 135.547 215.487 134.438L236.722 104.103C233.613 101.926 230.314 100.682 227.239 100.023L219.481 136.23ZM215.835 134.675C213.67 133.232 212.071 131.264 211.106 129.212L244.61 113.445C242.832 109.665 240.064 106.325 236.375 103.865L215.835 134.675ZM211.298 129.609C210.105 127.222 209.992 125.264 209.992 124.531H247.021C247.021 121.256 246.475 117.163 244.418 113.049L211.298 129.609ZM209.992 124.531C209.992 123.013 210.373 120.242 212.346 117.401L242.76 138.522C246.004 133.851 247.021 128.792 247.021 124.531H209.992ZM212.148 117.691C213.766 115.265 215.715 114.037 216.808 113.513L232.809 146.907C236.342 145.214 240.121 142.487 242.958 138.231L212.148 117.691ZM219.687 148.002C217.994 147.515 215.2 146.126 213.139 143.034L243.949 122.494C240.262 116.963 234.977 113.871 229.931 112.418L219.687 148.002ZM213.392 143.403C211.695 140.986 211.288 138.561 211.288 137.11H248.317C248.317 132.253 247.071 126.931 243.697 122.125L213.392 143.403ZM211.288 137.11C211.288 136.066 211.501 134.196 212.609 132.086L245.394 149.299C247.569 145.156 248.317 140.898 248.317 137.11H211.288ZM212.7 131.915C213.532 130.369 214.764 128.97 216.268 127.925L237.39 158.339C240.723 156.024 243.404 152.998 245.303 149.47L212.7 131.915ZM216.068 128.066C217.2 127.257 218.28 126.833 219.068 126.628L228.415 162.458C231.54 161.642 234.679 160.278 237.59 158.198L216.068 128.066ZM218.971 126.653C219.431 126.531 219.855 126.485 220.196 126.485V163.515C222.977 163.515 225.765 163.164 228.512 162.432L218.971 126.653ZM220.196 126.485H207.007V163.515H220.196V126.485ZM225.522 145V117.784H188.493V145H225.522ZM212.992 158.864H219.396V121.835H212.992V158.864ZM219.396 158.864C221.056 158.864 222.779 158.72 224.537 158.385L217.609 122.01C218.3 121.878 218.905 121.835 219.396 121.835V158.864ZM225.361 158.208C227.573 157.682 229.96 156.786 232.296 155.326L212.671 123.925C214.194 122.973 215.641 122.458 216.785 122.186L225.361 158.208ZM232.972 154.882C236.056 152.762 238.42 149.953 239.996 146.8L206.876 130.24C207.995 128.002 209.724 125.93 211.994 124.369L232.972 154.882ZM239.621 147.511C241.855 143.49 242.332 139.541 242.332 136.766H205.303C205.303 135.415 205.526 132.635 207.252 129.528L239.621 147.511ZM242.332 136.766C242.332 132.147 240.942 124.321 233.668 118.924L211.604 148.662C205.906 144.434 205.303 138.591 205.303 136.766H242.332ZM233.97 119.153C229.077 115.365 223.668 114.364 219.51 114.364V151.393C217.944 151.393 214.619 151.002 211.302 148.433L233.97 119.153ZM219.51 114.364H212.992V151.393H219.51V114.364ZM194.478 132.878V140.35H231.507V132.878H194.478ZM239.831 128.8H221.317V147.314H239.831V128.8ZM249.208 123.997L233.071 133.074L233.071 133.074L249.208 123.997ZM248.293 123.044L238.768 138.92L238.768 138.92L248.293 123.044ZM246.959 122.587L243.145 140.704L243.676 140.816L244.213 140.896L246.959 122.587ZM239.831 122.434V103.92H221.317V122.434H239.831ZM233.846 117.784V99.2691H215.332V117.784H233.846ZM252.944 119.27L242.326 134.438L242.499 134.559L242.674 134.675L252.944 119.27ZM254.697 121.329L237.945 129.212L238.039 129.411L238.137 129.609L254.697 121.329ZM254.392 127.961L239.185 117.401L239.085 117.545L238.987 117.691L254.392 127.961ZM251.648 130.21L243.647 113.513L199.765 134.541L246.526 148.002L251.648 130.21ZM255.383 132.764L239.978 143.034L240.102 143.22L240.231 143.403L255.383 132.764ZM255.841 140.693L272.142 149.47L272.188 149.385L272.233 149.299L255.841 140.693ZM253.668 143.132L243.107 127.925L243.006 127.995L242.907 128.066L253.668 143.132ZM250.58 144.543L245.907 126.628L245.858 126.64L245.81 126.653L250.58 144.543ZM233.846 145H215.332V163.515H233.846V145ZM239.831 140.35H221.317V158.864H239.831V140.35ZM247.912 140.197L251.376 158.385L251.79 158.306L252.2 158.208L247.912 140.197ZM249.322 139.625L259.135 155.326L259.478 155.111L259.811 154.882L249.322 139.625ZM250.275 138.52L234.091 129.528L233.895 129.88L233.716 130.24L250.275 138.52ZM249.475 133.793L238.141 148.433L238.291 148.549L238.443 148.662L249.475 133.793ZM239.831 132.878V114.364H221.317V132.878H239.831ZM239.831 147.314H245.892V110.285H239.831V147.314ZM245.892 147.314C249.922 147.314 254.945 146.321 259.542 142.915L237.502 113.16C240.727 110.771 243.996 110.285 245.892 110.285V147.314ZM259.542 142.915C266.444 137.803 268.066 130.41 268.066 125.56H231.037C231.037 124.345 231.211 122.305 232.196 119.935C233.246 117.407 235.022 114.996 237.502 113.16L259.542 142.915ZM268.066 125.56C268.066 122.846 267.596 118.921 265.345 114.92L233.071 133.074C231.278 129.886 231.037 127.002 231.037 125.56H268.066ZM265.345 114.92C263.621 111.855 261.095 109.134 257.819 107.168L238.768 138.92C236.254 137.412 234.338 135.325 233.071 133.074L265.345 114.92ZM257.819 107.168C255.06 105.513 252.241 104.657 249.706 104.277L244.213 140.896C242.694 140.668 240.764 140.118 238.768 138.92L257.819 107.168ZM250.773 104.469C248.939 104.083 247.147 103.92 245.434 103.92V140.949C244.79 140.949 244.013 140.887 243.145 140.704L250.773 104.469ZM245.434 103.92H239.831V140.949H245.434V103.92ZM221.317 122.434V128.8H258.346V122.434H221.317ZM233.846 136.298H246.654V99.2691H233.846V136.298ZM246.654 136.298C246.76 136.298 246.782 136.303 246.729 136.298C246.676 136.293 246.535 136.276 246.32 136.23L254.078 100.023C251.525 99.4761 249.019 99.2691 246.654 99.2691V136.298ZM246.32 136.23C245.38 136.029 243.911 135.547 242.326 134.438L263.561 104.103C260.452 101.926 257.153 100.682 254.078 100.023L246.32 136.23ZM242.674 134.675C240.509 133.232 238.91 131.264 237.945 129.212L271.449 113.445C269.671 109.665 266.903 106.325 263.214 103.865L242.674 134.675ZM238.137 129.609C236.944 127.222 236.831 125.264 236.831 124.531H273.86C273.86 121.256 273.314 117.163 271.257 113.049L238.137 129.609ZM236.831 124.531C236.831 123.013 237.212 120.242 239.185 117.401L269.599 138.522C272.843 133.851 273.86 128.792 273.86 124.531H236.831ZM238.987 117.691C240.605 115.265 242.554 114.037 243.647 113.513L259.648 146.907C263.181 145.214 266.96 142.487 269.797 138.231L238.987 117.691ZM246.526 148.002C244.833 147.515 242.039 146.126 239.978 143.034L270.788 122.494C267.101 116.963 261.817 113.871 256.77 112.418L246.526 148.002ZM240.231 143.403C238.534 140.986 238.127 138.561 238.127 137.11H275.156C275.156 132.253 273.91 126.931 270.536 122.125L240.231 143.403ZM238.127 137.11C238.127 136.066 238.34 134.196 239.448 132.086L272.233 149.299C274.408 145.156 275.156 140.898 275.156 137.11H238.127ZM239.539 131.915C240.371 130.369 241.603 128.97 243.107 127.925L264.229 158.339C267.562 156.024 270.243 152.998 272.142 149.47L239.539 131.915ZM242.907 128.066C244.039 127.257 245.119 126.833 245.907 126.628L255.254 162.458C258.379 161.642 261.518 160.278 264.429 158.198L242.907 128.066ZM245.81 126.653C246.27 126.531 246.694 126.485 247.035 126.485V163.515C249.816 163.515 252.604 163.164 255.351 162.432L245.81 126.653ZM247.035 126.485H233.846V163.515H247.035V126.485ZM252.361 145V117.784H215.332V145H252.361ZM239.831 158.864H246.235V121.835H239.831V158.864ZM246.235 158.864C247.895 158.864 249.618 158.72 251.376 158.385L244.448 122.01C245.139 121.878 245.744 121.835 246.235 121.835V158.864ZM252.2 158.208C254.412 157.682 256.799 156.786 259.135 155.326L239.51 123.925C241.033 122.973 242.48 122.458 243.624 122.186L252.2 158.208ZM259.811 154.882C262.895 152.762 265.259 149.953 266.835 146.8L233.716 130.24C234.835 128.002 236.563 125.93 238.833 124.369L259.811 154.882ZM266.46 147.511C268.694 143.49 269.171 139.541 269.171 136.766H232.142C232.142 135.415 232.365 132.635 234.091 129.528L266.46 147.511ZM269.171 136.766C269.171 132.147 267.781 124.321 260.507 118.924L238.443 148.662C232.745 144.434 232.142 138.591 232.142 136.766H269.171ZM260.809 119.153C255.916 115.365 250.507 114.364 246.349 114.364V151.393C244.783 151.393 241.458 151.002 238.141 148.433L260.809 119.153ZM246.349 114.364H239.831V151.393H246.349V114.364ZM221.317 132.878V140.35H258.346V132.878H221.317ZM260.686 117.784V99.2691H242.171V117.784H260.686ZM266.67 117.784H285.185V99.2691H266.67V117.784ZM266.67 139.968H248.156V158.483H266.67V139.968ZM279.935 139.968H298.45V121.454H279.935V139.968ZM279.935 145V163.515H298.45V145H279.935ZM260.686 145H242.171V163.515H260.686V145ZM260.686 136.298H266.67V99.2691H260.686V136.298ZM248.156 117.784V139.968H285.185V117.784H248.156ZM266.67 158.483H279.935V121.454H266.67V158.483ZM261.421 139.968V145H298.45V139.968H261.421ZM279.935 126.485H260.686V163.515H279.935V126.485ZM279.2 145V117.784H242.171V145H279.2ZM283.281 117.784V99.2691H264.766V117.784H283.281ZM303.636 117.784H322.151V99.2691H303.636V117.784ZM303.636 122.815V141.33H322.151V122.815H303.636ZM289.265 122.815V104.301H270.751V122.815H289.265ZM289.265 128.647H270.751V147.162H289.265V128.647ZM302.454 128.647H320.969V110.133H302.454V128.647ZM302.454 133.298V151.812H320.969V133.298H302.454ZM289.265 133.298V114.783H270.751V133.298H289.265ZM289.265 139.968H270.751V158.483H289.265V139.968ZM303.941 139.968H322.455V121.454H303.941V139.968ZM303.941 145V163.515H322.455V145H303.941ZM283.281 145H264.766V163.515H283.281V145ZM283.281 136.298H303.636V99.2691H283.281V136.298ZM285.122 117.784V122.815H322.151V117.784H285.122ZM303.636 104.301H289.265V141.33H303.636V104.301ZM270.751 122.815V128.647H307.78V122.815H270.751ZM289.265 147.162H302.454V110.133H289.265V147.162ZM283.94 128.647V133.298H320.969V128.647H283.94ZM302.454 114.783H289.265V151.812H302.454V114.783ZM270.751 133.298V139.968H307.78V133.298H270.751ZM289.265 158.483H303.941V121.454H289.265V158.483ZM285.426 139.968V145H322.455V139.968H285.426ZM303.941 126.485H283.281V163.515H303.941V126.485ZM301.795 145V117.784H264.766V145H301.795ZM324.63 122.815H343.144V104.301H324.63V122.815ZM316.473 122.815H297.958V141.33H316.473V122.815ZM316.473 117.784V99.2691H297.958V117.784H316.473ZM338.772 117.784H357.286V99.2691H338.772V117.784ZM338.772 122.815V141.33H357.286V122.815H338.772ZM330.614 122.815V104.301H312.1V122.815H330.614ZM330.614 145V163.515H349.129V145H330.614ZM324.63 145H306.115V163.515H324.63V145ZM324.63 104.301H316.473V141.33H324.63V104.301ZM334.987 122.815V117.784H297.958V122.815H334.987ZM316.473 136.298H338.772V99.2691H316.473V136.298ZM320.257 117.784V122.815H357.286V117.784H320.257ZM338.772 104.301H330.614V141.33H338.772V104.301ZM312.1 122.815V145H349.129V122.815H312.1ZM330.614 126.485H324.63V163.515H330.614V126.485ZM343.144 145V122.815H306.115V145H343.144ZM341.91 117.784V99.2691H323.395V117.784H341.91ZM362.265 117.784H380.779V99.2691H362.265V117.784ZM362.265 122.815V141.33H380.779V122.815H362.265ZM347.894 122.815V104.301H329.38V122.815H347.894ZM347.894 128.647H329.38V147.162H347.894V128.647ZM361.083 128.647H379.598V110.133H361.083V128.647ZM361.083 133.298V151.812H379.598V133.298H361.083ZM347.894 133.298V114.783H329.38V133.298H347.894ZM347.894 139.968H329.38V158.483H347.894V139.968ZM362.57 139.968H381.084V121.454H362.57V139.968ZM362.57 145V163.515H381.084V145H362.57ZM341.91 145H323.395V163.515H341.91V145ZM341.91 136.298H362.265V99.2691H341.91V136.298ZM343.75 117.784V122.815H380.779V117.784H343.75ZM362.265 104.301H347.894V141.33H362.265V104.301ZM329.38 122.815V128.647H366.409V122.815H329.38ZM347.894 147.162H361.083V110.133H347.894V147.162ZM342.569 128.647V133.298H379.598V128.647H342.569ZM361.083 114.783H347.894V151.812H361.083V114.783ZM329.38 133.298V139.968H366.409V133.298H329.38ZM347.894 158.483H362.57V121.454H347.894V158.483ZM344.055 139.968V145H381.084V139.968H344.055ZM362.57 126.485H341.91V163.515H362.57V126.485ZM360.424 145V117.784H323.395V145H360.424ZM373.488 134.479L356.04 128.286L347.27 152.994H373.488V134.479ZM380.54 134.479V152.994H406.477L398.05 128.464L380.54 134.479ZM377.11 124.492L394.62 118.477L390.326 105.978H377.11V124.492ZM377.033 124.492V105.978H363.959L359.585 118.299L377.033 124.492ZM374.06 117.784V99.2691H361.267L356.742 111.235L374.06 117.784ZM380.197 117.784L397.539 111.299L393.04 99.2691H380.197V117.784ZM390.375 145V163.515H417.065L407.716 138.515L390.375 145ZM384.161 145L366.63 150.954L370.896 163.515H384.161V145ZM382.103 138.939L399.634 132.985L395.368 120.425H382.103V138.939ZM371.926 138.939V120.425H358.817L354.462 132.789L371.926 138.939ZM369.791 145V163.515H382.899L387.254 151.151L369.791 145ZM363.768 145L346.451 138.451L336.973 163.515H363.768V145ZM373.488 152.994H380.54V115.965H373.488V152.994ZM398.05 128.464L394.62 118.477L359.599 130.507L363.03 140.494L398.05 128.464ZM377.11 105.978H377.033V143.007H377.11V105.978ZM359.585 118.299L356.04 128.286L390.936 140.673L394.481 130.686L359.585 118.299ZM374.06 136.298H380.197V99.2691H374.06V136.298ZM362.855 124.269L373.033 151.485L407.716 138.515L397.539 111.299L362.855 124.269ZM390.375 126.485H384.161V163.515H390.375V126.485ZM401.692 139.046L399.634 132.985L364.572 144.893L366.63 150.954L401.692 139.046ZM382.103 120.425H371.926V157.454H382.103V120.425ZM354.462 132.789L352.328 138.849L387.254 151.151L389.389 145.09L354.462 132.789ZM369.791 126.485H363.768V163.515H369.791V126.485ZM381.086 151.549L391.378 124.332L356.742 111.235L346.451 138.451L381.086 151.549Z" fill="#0022FF" mask="url(#path-1-outside-1_144_1320)"/>
</svg>
