<svg width="314" height="310" viewBox="0 0 314 310" fill="none" xmlns="http://www.w3.org/2000/svg">
<path d="M172.263 103.583L173.004 107.872L176.187 104.905L244.778 40.9841L201.343 121.733L199.129 125.849L203.754 125.177L298.667 111.398L213.406 152.547L209.014 154.667L213.406 156.786L298.667 197.935L203.754 184.156L199.129 183.485L201.343 187.6L244.778 268.349L176.187 204.429L173.004 201.462L172.263 205.75L156.762 295.503L141.262 205.75L140.521 201.462L137.338 204.429L68.7467 268.349L112.182 187.6L114.396 183.485L109.771 184.156L14.8574 197.935L100.119 156.786L104.511 154.667L100.119 152.547L14.8575 111.398L109.771 125.177L114.396 125.849L112.182 121.733L68.7467 40.9841L137.338 104.905L140.521 107.872L141.262 103.583L156.762 13.8306L172.263 103.583Z" fill="white" stroke="#0022FF" stroke-width="4.7075"/>
</svg>
