<svg width="332" height="308" viewBox="0 0 332 308" fill="none" xmlns="http://www.w3.org/2000/svg">
<path d="M188.174 113.014L188.977 116.611L192.304 115.026L287.504 69.6567L220.083 147.825L217.493 150.828L221.121 152.43L317.293 194.908L211.19 193.405L207.351 193.351L208.303 197.07L233.543 295.693L168.248 215.229L165.967 212.419L163.687 215.229L98.3915 295.693L123.631 197.07L124.583 193.351L120.744 193.405L14.6414 194.908L110.814 152.43L114.441 150.828L111.851 147.825L44.4309 69.6567L139.63 115.026L142.957 116.611L143.76 113.014L165.967 13.4861L188.174 113.014Z" fill="white" stroke="#0022FF" stroke-width="5.87373"/>
</svg>
