<svg width="357" height="327" viewBox="0 0 357 327" fill="none" xmlns="http://www.w3.org/2000/svg">
<path d="M203.1 119.541L203.817 122.706L206.755 121.327L311.353 72.2316L237.29 156.805L234.936 159.493L238.212 160.918L343.85 206.871L227.295 205.246L223.872 205.198L224.733 208.512L252.466 315.241L180.709 228.15L178.695 225.706L176.68 228.15L104.923 315.241L132.656 208.512L133.517 205.198L130.094 205.246L13.539 206.871L119.177 160.918L122.453 159.493L120.099 156.805L46.0356 72.2316L150.634 121.327L153.572 122.706L154.289 119.541L178.695 11.8124L203.1 119.541Z" fill="white" stroke="#0022FF" stroke-width="5.21984"/>
</svg>
