<svg width="1026" height="633" viewBox="0 0 1026 633" fill="none" xmlns="http://www.w3.org/2000/svg">
<path fill-rule="evenodd" clip-rule="evenodd" d="M227.21 337.303C251.567 326.987 262.95 298.879 252.635 274.521L531.327 156.495L531.327 156.495L648.622 106.821C658.938 131.179 687.046 142.562 711.405 132.247L711.405 132.246L780.569 295.561L780.568 295.562C756.21 305.878 744.826 333.987 755.142 358.345L755.142 358.346L476.452 476.371L476.452 476.371L359.155 526.046L359.155 526.046C348.84 501.688 320.732 490.304 296.374 500.619L227.21 337.303Z" fill="#8FC1FF"/>
<path fill-rule="evenodd" clip-rule="evenodd" d="M227.206 337.304L227.206 337.304C202.848 347.62 174.739 336.236 164.423 311.878L0.46875 381.313L31.9629 455.679C58.6284 448.677 87.0876 462.128 98.1548 488.261C109.222 514.393 99.0789 544.192 75.4955 558.471L106.99 632.838L270.946 563.402C260.63 539.044 272.013 510.936 296.371 500.62L227.206 337.304Z" fill="#8FC1FF"/>
<path fill-rule="evenodd" clip-rule="evenodd" d="M711.401 132.247L711.401 132.247C735.76 121.931 747.143 93.8224 736.828 69.4641L736.827 69.4637L900.781 0.0290527L932.276 74.3972C908.695 88.677 898.554 118.474 909.62 144.605C920.687 170.737 949.144 184.187 975.808 177.188L1007.3 251.554L843.349 320.988C833.033 296.63 804.924 285.247 780.566 295.563L780.565 295.563L711.401 132.247Z" fill="#8FC1FF"/>
<mask id="path-4-inside-1_144_1628" fill="white">
<path fill-rule="evenodd" clip-rule="evenodd" d="M756.907 131.119C776.7 122.736 785.95 99.8955 777.567 80.1023L910.797 23.6794L936.389 84.1103C917.227 95.7139 908.986 119.927 917.979 141.161C926.972 162.396 950.096 173.326 971.763 167.638L997.355 228.068L864.129 284.489C855.746 264.696 832.905 255.446 813.112 263.828L813.109 263.829L756.907 131.119Z"/>
</mask>
<path fill-rule="evenodd" clip-rule="evenodd" d="M756.907 131.119C776.7 122.736 785.95 99.8955 777.567 80.1023L910.797 23.6794L936.389 84.1103C917.227 95.7139 908.986 119.927 917.979 141.161C926.972 162.396 950.096 173.326 971.763 167.638L997.355 228.068L864.129 284.489C855.746 264.696 832.905 255.446 813.112 263.828L813.109 263.829L756.907 131.119Z" fill="#8FC1FF"/>
<path d="M777.567 80.1023L774.451 81.4221L773.131 78.3056L776.248 76.9858L777.567 80.1023ZM756.907 131.119L753.79 132.439L752.47 129.323L755.587 128.003L756.907 131.119ZM910.797 23.6794L909.477 20.563L912.594 19.2432L913.913 22.3596L910.797 23.6794ZM936.389 84.1103L939.506 82.7905L940.648 85.4879L938.142 87.0053L936.389 84.1103ZM971.763 167.638L970.904 164.364L973.738 163.621L974.88 166.318L971.763 167.638ZM997.355 228.068L1000.47 226.748L1001.79 229.864L998.675 231.184L997.355 228.068ZM864.129 284.489L865.449 287.606L862.332 288.925L861.012 285.809L864.129 284.489ZM813.112 263.828L811.792 260.712L813.112 263.828ZM813.109 263.829L814.429 266.946L811.313 268.266L809.993 265.149L813.109 263.829ZM780.684 78.7824C789.795 100.297 779.741 125.124 758.227 134.236L755.587 128.003C773.659 120.349 782.104 99.4942 774.451 81.4221L780.684 78.7824ZM912.117 26.7959L778.887 83.2187L776.248 76.9858L909.477 20.563L912.117 26.7959ZM933.273 85.4301L907.68 24.9993L913.913 22.3596L939.506 82.7905L933.273 85.4301ZM938.142 87.0053C920.398 97.7504 912.768 120.178 921.096 139.842L914.863 142.481C905.205 119.676 914.057 93.6774 934.636 81.2153L938.142 87.0053ZM921.096 139.842C929.423 159.505 950.84 169.631 970.904 164.364L972.623 170.911C949.352 177.02 924.521 165.286 914.863 142.481L921.096 139.842ZM994.239 229.387L968.647 168.958L974.88 166.318L1000.47 226.748L994.239 229.387ZM862.809 281.373L996.036 224.951L998.675 231.184L865.449 287.606L862.809 281.373ZM811.792 260.712C833.306 251.6 858.133 261.655 867.245 283.169L861.012 285.809C853.358 267.737 832.504 259.291 814.431 266.945L811.792 260.712ZM811.79 260.713L811.792 260.712L814.431 266.945L814.429 266.946L811.79 260.713ZM760.023 129.799L816.226 262.509L809.993 265.149L753.79 132.439L760.023 129.799Z" fill="white" mask="url(#path-4-inside-1_144_1628)"/>
<rect x="732.723" y="184.604" width="7.02012" height="34.6582" rx="3.51006" transform="rotate(-22.9527 732.723 184.604)" fill="white"/>
<rect x="747.754" y="220.095" width="7.02012" height="34.6582" rx="3.51006" transform="rotate(-22.9527 747.754 220.095)" fill="white"/>
<rect x="762.781" y="255.586" width="7.02012" height="34.6582" rx="3.51006" transform="rotate(-22.9527 762.781 255.586)" fill="white"/>
<rect x="717.691" y="149.114" width="7.02012" height="34.6582" rx="3.51006" transform="rotate(-22.9527 717.691 149.114)" fill="white"/>
<mask id="path-10-inside-2_144_1628" fill="white">
<path fill-rule="evenodd" clip-rule="evenodd" d="M630.805 137.175L390.359 239.004L390.36 239.007L289.165 281.863C298.065 302.878 288.244 327.128 267.229 336.029L326.902 476.933C347.918 468.032 372.169 477.854 381.069 498.87L381.07 498.871L621.516 397.041L621.515 397.039L722.709 354.183C713.809 333.168 723.63 308.917 744.645 300.016L684.972 159.113C663.957 168.012 639.706 158.191 630.805 137.175L630.805 137.175Z"/>
</mask>
<path fill-rule="evenodd" clip-rule="evenodd" d="M630.805 137.175L390.359 239.004L390.36 239.007L289.165 281.863C298.065 302.878 288.244 327.128 267.229 336.029L326.902 476.933C347.918 468.032 372.169 477.854 381.069 498.87L381.07 498.871L621.516 397.041L621.515 397.039L722.709 354.183C713.809 333.168 723.63 308.917 744.645 300.016L684.972 159.113C663.957 168.012 639.706 158.191 630.805 137.175L630.805 137.175Z" fill="#8FC1FF"/>
<path d="M390.359 239.004L388.958 235.696L385.649 237.097L387.05 240.406L390.359 239.004ZM630.805 137.175L634.114 135.774L632.713 132.465L629.404 133.866L630.805 137.175ZM390.36 239.007L391.761 242.316L395.07 240.915L393.669 237.606L390.36 239.007ZM289.165 281.863L287.764 278.554L284.455 279.955L285.856 283.264L289.165 281.863ZM267.229 336.029L265.828 332.72L262.519 334.122L263.92 337.43L267.229 336.029ZM326.902 476.933L323.593 478.334L324.994 481.643L328.303 480.241L326.902 476.933ZM381.069 498.87L377.76 500.271L381.069 498.87ZM381.07 498.871L377.761 500.272L379.162 503.581L382.471 502.179L381.07 498.871ZM621.516 397.041L622.917 400.35L626.226 398.949L624.825 395.64L621.516 397.041ZM621.515 397.039L620.113 393.73L616.805 395.131L618.206 398.44L621.515 397.039ZM722.709 354.183L724.11 357.492L727.419 356.091L726.018 352.782L722.709 354.183ZM744.645 300.016L746.047 303.325L749.355 301.924L747.954 298.615L744.645 300.016ZM684.972 159.113L688.281 157.711L686.88 154.402L683.571 155.804L684.972 159.113ZM630.805 137.175L627.497 138.577L627.497 138.577L630.805 137.175ZM391.76 242.313L632.207 140.484L629.404 133.866L388.958 235.696L391.76 242.313ZM393.669 237.606L393.668 237.603L387.05 240.406L387.051 240.408L393.669 237.606ZM388.959 235.698L287.764 278.554L290.567 285.172L391.761 242.316L388.959 235.698ZM285.856 283.264C293.982 302.452 285.015 324.594 265.828 332.72L268.631 339.338C291.472 329.663 302.147 303.304 292.474 280.462L285.856 283.264ZM263.92 337.43L323.593 478.334L330.211 475.531L270.538 334.628L263.92 337.43ZM328.303 480.241C347.491 472.115 369.634 481.083 377.76 500.271L384.378 497.468C374.704 474.625 348.344 463.95 325.501 473.624L328.303 480.241ZM377.76 500.271L377.761 500.272L384.379 497.469L384.378 497.468L377.76 500.271ZM382.471 502.179L622.917 400.35L620.115 393.732L379.668 495.562L382.471 502.179ZM624.825 395.64L624.824 395.638L618.206 398.44L618.207 398.443L624.825 395.64ZM721.308 350.874L620.113 393.73L622.916 400.348L724.11 357.492L721.308 350.874ZM743.244 296.707C720.402 306.382 709.726 332.742 719.4 355.584L726.018 352.782C717.892 333.594 726.859 311.452 746.047 303.325L743.244 296.707ZM681.663 160.514L741.336 301.418L747.954 298.615L688.281 157.711L681.663 160.514ZM627.497 138.577C637.171 161.42 663.531 172.095 686.374 162.421L683.571 155.804C664.383 163.93 642.241 154.962 634.114 135.774L627.497 138.577ZM627.496 138.576L627.497 138.577L634.114 135.774L634.114 135.774L627.496 138.576Z" fill="white" mask="url(#path-10-inside-2_144_1628)"/>
<mask id="path-12-inside-3_144_1628" fill="white">
<path fill-rule="evenodd" clip-rule="evenodd" d="M196.77 370.797L252.972 503.506L252.971 503.506C233.178 511.889 223.928 534.73 232.31 554.524L232.31 554.524L99.082 610.946L73.4895 550.516C92.6523 538.912 100.894 514.699 91.901 493.464C82.9081 472.229 59.7831 461.299 38.1153 466.988L12.5234 406.558L145.752 350.136C154.135 369.929 176.976 379.18 196.77 370.797Z"/>
</mask>
<path fill-rule="evenodd" clip-rule="evenodd" d="M196.77 370.797L252.972 503.506L252.971 503.506C233.178 511.889 223.928 534.73 232.31 554.524L232.31 554.524L99.082 610.946L73.4895 550.516C92.6523 538.912 100.894 514.699 91.901 493.464C82.9081 472.229 59.7831 461.299 38.1153 466.988L12.5234 406.558L145.752 350.136C154.135 369.929 176.976 379.18 196.77 370.797Z" fill="#8FC1FF"/>
<path d="M252.972 503.506L254.292 506.623L257.408 505.303L256.088 502.186L252.972 503.506ZM196.77 370.797L199.886 369.477L198.566 366.361L195.45 367.681L196.77 370.797ZM232.31 554.524L235.427 553.204L235.427 553.204L232.31 554.524ZM232.31 554.524L233.63 557.641L236.747 556.321L235.427 553.204L232.31 554.524ZM99.082 610.946L95.9655 612.266L97.2854 615.383L100.402 614.063L99.082 610.946ZM73.4895 550.516L71.7365 547.621L69.2306 549.138L70.373 551.836L73.4895 550.516ZM38.1153 466.988L34.9989 468.308L36.1413 471.005L38.9747 470.261L38.1153 466.988ZM12.5234 406.558L11.2036 403.442L8.08715 404.762L9.40697 407.878L12.5234 406.558ZM145.752 350.136L148.869 348.816L147.549 345.7L144.432 347.019L145.752 350.136ZM256.088 502.186L199.886 369.477L193.653 372.117L249.856 504.826L256.088 502.186ZM254.291 506.623L254.292 506.623L251.652 500.39L251.652 500.39L254.291 506.623ZM235.427 553.204C227.773 535.132 236.219 514.276 254.291 506.623L251.652 500.39C230.137 509.501 220.082 534.329 229.194 555.844L235.427 553.204ZM235.427 553.204L235.427 553.204L229.194 555.844L229.194 555.844L235.427 553.204ZM100.402 614.063L233.63 557.641L230.991 551.408L97.7622 607.83L100.402 614.063ZM70.373 551.836L95.9655 612.266L102.198 609.627L76.606 549.196L70.373 551.836ZM88.7845 494.784C97.1122 514.448 89.4815 536.876 71.7365 547.621L75.2425 553.411C95.8231 540.949 104.676 514.95 95.0175 492.144L88.7845 494.784ZM38.9747 470.261C59.0394 464.994 80.4568 475.12 88.7845 494.784L95.0175 492.144C85.3593 469.338 60.5269 457.605 37.2559 463.714L38.9747 470.261ZM9.40697 407.878L34.9989 468.308L41.2318 465.668L15.6399 405.239L9.40697 407.878ZM144.432 347.019L11.2036 403.442L13.8433 409.675L147.072 353.252L144.432 347.019ZM195.45 367.681C177.377 375.334 156.522 366.888 148.869 348.816L142.636 351.456C151.747 372.97 176.575 383.025 198.089 373.914L195.45 367.681Z" fill="white" mask="url(#path-12-inside-3_144_1628)"/>
<path d="M382.239 275.249L370.283 280.312L368.794 272.634L400.605 259.162L402.094 266.84L390.672 271.677L397.316 305.498L388.883 309.069L382.239 275.249ZM404.892 257.346L413.325 253.775L421.404 295.296L413.025 298.845L404.892 257.346ZM448.12 254.65C447.126 252.301 445.739 250.811 443.961 250.179C442.203 249.497 440.31 249.585 438.282 250.444C436.147 251.348 434.49 252.638 433.311 254.312C432.152 255.936 431.388 257.749 431.02 259.752C430.671 261.703 430.655 263.746 430.97 265.878C431.271 267.975 431.805 269.931 432.574 271.745C433.131 273.062 433.819 274.239 434.637 275.278C435.49 276.302 436.45 277.133 437.518 277.772C438.606 278.36 439.797 278.695 441.091 278.776C442.42 278.843 443.849 278.552 445.379 277.904C446.518 277.422 447.503 276.774 448.333 275.961C449.184 275.097 449.858 274.161 450.354 273.154C450.836 272.11 451.148 271.013 451.29 269.862C451.431 268.711 451.38 267.599 451.136 266.528L459.516 262.979C459.792 266.009 459.735 268.698 459.344 271.046C458.989 273.378 458.331 275.441 457.369 277.233C456.428 278.974 455.174 280.471 453.606 281.722C452.088 282.994 450.298 284.067 448.234 284.941C442.825 287.232 438.034 287.561 433.86 285.93C429.722 284.283 426.5 280.738 424.194 275.294C422.883 272.198 422.12 269.059 421.906 265.877C421.691 262.695 422.029 259.677 422.919 256.825C423.829 253.921 425.302 251.304 427.336 248.974C429.407 246.629 432.043 244.778 435.245 243.421C437.451 242.487 439.625 241.923 441.767 241.729C443.909 241.536 445.913 241.757 447.777 242.395C449.662 242.981 451.355 244.006 452.856 245.468C454.341 246.895 455.556 248.773 456.5 251.101L448.12 254.65ZM460.139 233.949L468.518 230.4L471.968 247.76L472.075 247.715L482.609 224.433L493.711 219.731L482.049 243.176L503.231 260.643L493.784 264.643L477.829 251.195L474.158 258.729L476.758 271.854L468.379 275.403L460.139 233.949ZM498.711 217.614L527.799 205.295L529.342 212.95L508.633 221.721L510.383 230.61L529.544 222.495L530.914 229.595L511.753 237.709L513.734 247.886L534.763 238.98L536.252 246.658L506.897 259.09L498.711 217.614ZM544.339 206.599L532.383 211.662L530.894 203.984L562.705 190.512L564.194 198.191L552.772 203.028L559.416 236.848L550.983 240.42L544.339 206.599Z" fill="white"/>
<rect x="243.949" y="388.72" width="7.02012" height="34.6582" rx="3.51006" transform="rotate(-22.9527 243.949 388.72)" fill="white"/>
<rect x="258.98" y="424.211" width="7.02012" height="34.6582" rx="3.51006" transform="rotate(-22.9527 258.98 424.211)" fill="white"/>
<rect x="274.008" y="459.702" width="7.02012" height="34.6582" rx="3.51006" transform="rotate(-22.9527 274.008 459.702)" fill="white"/>
<rect x="228.918" y="353.23" width="7.02012" height="34.6582" rx="3.51006" transform="rotate(-22.9527 228.918 353.23)" fill="white"/>
<ellipse cx="427.676" cy="374.813" rx="68.3962" ry="34.5722" transform="rotate(-22.6355 427.676 374.813)" fill="#4192F5"/>
<path d="M412.862 334.953C420.301 331.851 427.806 329.756 435.378 328.668C442.907 327.598 450.432 327.489 457.954 328.34C465.415 329.165 472.8 330.957 480.107 333.714C487.44 336.411 494.608 339.983 501.611 344.432L491.687 358.943C485.311 355.393 479.114 352.576 473.097 350.492C467.037 348.426 461.061 347.107 455.169 346.536C449.278 345.964 443.428 346.157 437.619 347.116C431.792 348.031 425.934 349.717 420.043 352.173C414.152 354.63 408.869 357.817 404.194 361.735C399.5 365.61 395.318 370.105 391.646 375.22C387.956 380.291 384.772 385.909 382.093 392.074C379.372 398.256 377.028 404.861 375.063 411.889L357.769 408.728C359.537 400.621 362.006 392.803 365.175 385.273C368.284 377.718 372.136 370.737 376.732 364.328C381.328 357.919 386.639 352.197 392.665 347.16C398.691 342.124 405.424 338.055 412.862 334.953Z" fill="white"/>
<circle cx="430.181" cy="377.761" r="33.8804" transform="rotate(-22.6355 430.181 377.761)" fill="white"/>
<rect x="303.746" y="361.146" width="73.1385" height="22.806" transform="rotate(11.6665 303.746 361.146)" fill="white"/>
<rect x="348.25" y="330.935" width="73.1385" height="22.806" transform="rotate(11.6665 348.25 330.935)" fill="white"/>
<ellipse cx="68.3962" cy="34.5722" rx="68.3962" ry="34.5722" transform="matrix(-0.922972 0.384867 0.384867 0.922972 643.816 247.167)" fill="#4192F5"/>
<path d="M576.103 266.824C568.665 269.926 561.895 273.783 555.793 278.397C549.735 282.993 544.361 288.262 539.672 294.205C535.007 300.087 531.083 306.594 527.9 313.726C524.655 320.833 522.148 328.44 520.38 336.546L537.674 339.708C539.639 332.68 541.999 326.295 544.753 320.553C547.55 314.794 550.819 309.62 554.559 305.032C558.299 300.444 562.553 296.424 567.322 292.972C572.073 289.477 577.393 286.501 583.284 284.044C589.175 281.588 595.157 280.078 601.231 279.513C607.287 278.906 613.424 279.098 619.642 280.089C625.841 281.037 632.074 282.728 638.338 285.164C644.646 287.581 650.988 290.564 657.364 294.114L667.288 279.603C660.285 275.154 652.993 271.406 645.413 268.358C637.858 265.25 630.187 263.073 622.4 261.828C614.612 260.583 606.809 260.329 598.99 261.066C591.171 261.803 583.542 263.722 576.103 266.824Z" fill="white"/>
<circle cx="33.8804" cy="33.8804" r="33.8804" transform="matrix(-0.922972 0.384867 0.384867 0.922972 612.559 264.944)" fill="white"/>
<rect width="73.1385" height="22.806" transform="matrix(-0.545554 0.838076 0.838076 0.545554 671.5 207.737)" fill="white"/>
<rect width="73.1385" height="22.806" transform="matrix(-0.545554 0.838076 0.838076 0.545554 618.719 218.093)" fill="white"/>
<path d="M496.939 408.016L500.761 406.398L504.808 427.346L501.013 428.953L496.939 408.016ZM515.433 412.88C515.281 412.521 515.097 412.187 514.881 411.876C514.675 411.54 514.422 411.266 514.121 411.055C513.82 410.844 513.465 410.73 513.056 410.713C512.639 410.678 512.152 410.778 511.596 411.014C511.058 411.242 510.616 411.524 510.272 411.86C509.928 412.196 509.66 412.564 509.469 412.962C509.278 413.36 509.151 413.784 509.088 414.234C509.042 414.677 509.031 415.126 509.055 415.581L515.433 412.88ZM509.677 418.174C509.697 418.272 509.722 418.356 509.753 418.428C509.783 418.5 509.814 418.572 509.844 418.643L509.992 418.993C510.334 419.801 510.863 420.349 511.578 420.639C512.293 420.928 513.171 420.853 514.211 420.412C514.588 420.253 514.897 420.058 515.139 419.829C515.391 419.574 515.586 419.311 515.725 419.041C515.883 418.763 515.993 418.473 516.055 418.171C516.136 417.862 516.203 417.569 516.255 417.293L520.077 415.675C520.106 416.593 520.04 417.436 519.878 418.203C519.716 418.97 519.435 419.681 519.036 420.337C518.629 420.975 518.081 421.556 517.393 422.08C516.723 422.596 515.886 423.067 514.881 423.493C513.948 423.888 513.043 424.123 512.165 424.199C511.305 424.267 510.5 424.164 509.749 423.889C508.99 423.597 508.299 423.138 507.674 422.514C507.068 421.882 506.552 421.064 506.127 420.059C505.656 418.946 505.383 417.803 505.309 416.628C505.227 415.436 505.342 414.308 505.653 413.245C505.975 412.156 506.513 411.177 507.266 410.308C508.012 409.421 508.977 408.727 510.161 408.225C511.13 407.815 512.062 407.568 512.958 407.485C513.872 407.394 514.717 407.491 515.494 407.776C516.281 408.035 516.99 408.486 517.622 409.128C518.264 409.745 518.798 410.556 519.223 411.561C519.512 412.243 519.748 413 519.931 413.832L509.677 418.174ZM530.425 405.769C530.076 404.944 529.61 404.443 529.027 404.266C528.463 404.082 527.75 404.173 526.888 404.537C526.171 404.841 525.644 405.297 525.309 405.905C524.966 406.494 524.768 407.149 524.714 407.871C524.659 408.592 524.709 409.333 524.861 410.093C525.024 410.828 525.231 411.492 525.482 412.084C525.657 412.497 525.869 412.872 526.118 413.211C526.36 413.532 526.645 413.781 526.975 413.959C527.304 414.137 527.664 414.239 528.056 414.263C528.465 414.281 528.912 414.186 529.396 413.981C529.827 413.799 530.173 413.568 530.435 413.287C530.715 412.999 530.932 412.686 531.084 412.346C531.254 411.999 531.356 411.638 531.388 411.265C531.431 410.866 531.434 410.473 531.397 410.087L535.219 408.468C535.382 410.452 535.063 412.174 534.264 413.634C533.475 415.068 532.165 416.173 530.335 416.948C528.38 417.776 526.653 417.947 525.156 417.459C523.669 416.946 522.493 415.667 521.626 413.622C521.125 412.438 520.824 411.253 520.724 410.068C520.635 408.857 520.755 407.717 521.084 406.646C521.424 405.55 521.984 404.573 522.763 403.714C523.534 402.837 524.548 402.133 525.803 401.601C526.647 401.244 527.487 401.004 528.324 400.882C529.161 400.761 529.945 400.788 530.676 400.965C531.425 401.135 532.102 401.483 532.706 402.01C533.328 402.53 533.842 403.243 534.247 404.151L530.425 405.769ZM540.272 395.918L543.017 394.755L543.508 397.563L540.789 398.714L542.292 406.235C542.317 406.393 542.347 406.539 542.382 406.672C542.41 406.788 542.435 406.872 542.458 406.926C542.564 407.177 542.684 407.359 542.816 407.473C542.959 407.56 543.109 407.613 543.265 407.632C543.421 407.65 543.574 407.638 543.725 407.595C543.887 407.527 544.039 407.462 544.183 407.402C544.649 407.204 545.096 406.983 545.521 406.74L546.118 409.947C545.738 410.15 545.355 410.344 544.968 410.529C544.588 410.732 544.192 410.921 543.78 411.096C543.331 411.286 542.863 411.431 542.377 411.531C541.916 411.642 541.464 411.674 541.022 411.629C540.59 411.558 540.19 411.389 539.823 411.121C539.473 410.846 539.186 410.417 538.961 409.835C538.885 409.656 538.819 409.451 538.764 409.221C538.701 408.972 538.643 408.711 538.591 408.437L536.995 400.321L534.492 401.381L534.001 398.573L536.45 397.536L535.522 392.946L539.343 391.328L540.272 395.918ZM561.508 403.334L557.848 404.884L557.458 402.764L557.404 402.787C556.812 404.836 555.511 406.286 553.501 407.137C550.792 408.285 548.913 407.62 547.865 405.144C547.804 405.001 547.737 404.817 547.664 404.595C547.601 404.346 547.538 404.098 547.475 403.849C547.43 403.593 547.384 403.359 547.336 403.146C547.299 402.908 547.271 402.719 547.254 402.578L545.523 393.694L549.345 392.075L551.103 400.948C551.112 401.071 551.133 401.221 551.166 401.397C551.209 401.549 551.246 401.712 551.279 401.889C551.329 402.058 551.38 402.227 551.43 402.396C551.491 402.54 551.54 402.657 551.578 402.746C551.753 403.159 552.086 403.42 552.577 403.53C553.085 403.632 553.564 403.588 554.013 403.398C554.587 403.154 555.043 402.834 555.383 402.436C555.733 402.013 555.984 401.558 556.137 401.07C556.308 400.574 556.393 400.051 556.393 399.501C556.411 398.943 556.371 398.399 556.274 397.869L554.7 389.807L558.522 388.189L561.508 403.334ZM561.787 386.806L565.42 385.267L565.915 388.01L565.992 388.041C566.012 386.889 566.35 385.889 567.006 385.04C567.673 384.165 568.517 383.511 569.54 383.078C569.935 382.911 570.341 382.771 570.758 382.657L571.551 386.702C571.259 386.762 570.967 386.822 570.675 386.882C570.383 386.943 570.103 387.03 569.833 387.144C569.098 387.455 568.523 387.847 568.109 388.318C567.713 388.782 567.427 389.305 567.25 389.888C567.092 390.463 567.023 391.074 567.043 391.722C567.074 392.343 567.151 392.977 567.277 393.622L568.595 400.332L564.8 401.94L561.787 386.806ZM582.243 384.586C582.091 384.227 581.907 383.893 581.691 383.582C581.485 383.246 581.231 382.973 580.93 382.761C580.629 382.55 580.274 382.436 579.865 382.419C579.448 382.384 578.962 382.484 578.405 382.72C577.867 382.948 577.426 383.23 577.082 383.566C576.737 383.902 576.47 384.27 576.279 384.668C576.088 385.066 575.96 385.491 575.897 385.941C575.852 386.383 575.841 386.832 575.864 387.287L582.243 384.586ZM576.487 389.881C576.507 389.978 576.532 390.062 576.562 390.134C576.593 390.206 576.623 390.278 576.653 390.349L576.802 390.699C577.143 391.507 577.672 392.055 578.387 392.345C579.102 392.634 579.98 392.559 581.021 392.118C581.398 391.959 581.707 391.764 581.948 391.535C582.2 391.28 582.396 391.018 582.535 390.747C582.692 390.469 582.802 390.179 582.865 389.877C582.945 389.568 583.012 389.275 583.064 388.999L586.886 387.381C586.915 388.299 586.849 389.142 586.687 389.909C586.525 390.676 586.245 391.387 585.845 392.043C585.438 392.681 584.891 393.262 584.203 393.786C583.533 394.302 582.695 394.773 581.691 395.199C580.758 395.594 579.852 395.829 578.974 395.905C578.114 395.973 577.309 395.87 576.558 395.595C575.799 395.303 575.108 394.845 574.484 394.22C573.878 393.588 573.362 392.77 572.936 391.765C572.465 390.653 572.192 389.509 572.118 388.334C572.036 387.142 572.151 386.014 572.463 384.951C572.785 383.862 573.322 382.884 574.076 382.014C574.821 381.127 575.786 380.433 576.971 379.931C577.939 379.521 578.872 379.274 579.768 379.191C580.681 379.1 581.527 379.198 582.303 379.482C583.09 379.741 583.799 380.192 584.431 380.835C585.073 381.451 585.607 382.262 586.032 383.267C586.321 383.949 586.557 384.706 586.74 385.538L576.487 389.881Z" fill="white"/>
<path d="M120.434 476.773L116.361 478.473L113.839 465.147L109.227 467.073L108.642 463.928C109.329 463.599 109.955 463.253 110.521 462.89C111.098 462.501 111.591 462.063 112 461.576C112.419 461.063 112.747 460.483 112.983 459.835C113.238 459.18 113.382 458.413 113.416 457.533L116.544 456.227L120.434 476.773ZM128.043 467.864C128.361 468.576 128.826 469.058 129.438 469.309C130.067 469.553 130.733 469.529 131.434 469.236C132.171 468.928 132.734 468.482 133.124 467.897C133.513 467.312 133.784 466.671 133.936 465.974C134.081 465.259 134.141 464.517 134.115 463.746C134.107 462.968 134.074 462.232 134.017 461.539L133.94 461.507C133.747 462.411 133.35 463.179 132.748 463.81C132.138 464.423 131.429 464.899 130.62 465.237C129.775 465.59 128.945 465.778 128.131 465.801C127.335 465.816 126.59 465.673 125.894 465.373C125.198 465.072 124.569 464.627 124.007 464.038C123.455 463.424 122.995 462.677 122.627 461.796C122.207 460.789 121.993 459.77 121.985 458.738C121.987 457.682 122.177 456.695 122.554 455.777C122.941 454.834 123.497 453.99 124.22 453.244C124.962 452.492 125.845 451.901 126.87 451.473C128.074 450.97 129.182 450.74 130.192 450.783C131.195 450.808 132.109 451.05 132.933 451.508C133.758 451.966 134.482 452.614 135.106 453.451C135.748 454.281 136.302 455.253 136.767 456.368C137.458 458.022 137.9 459.664 138.095 461.293C138.282 462.904 138.196 464.418 137.837 465.835C137.496 467.244 136.882 468.503 135.994 469.613C135.116 470.697 133.949 471.543 132.492 472.151C131.665 472.496 130.851 472.72 130.049 472.823C129.265 472.918 128.526 472.867 127.832 472.671C127.131 472.457 126.479 472.085 125.878 471.555C125.294 471.018 124.793 470.298 124.375 469.396L128.043 467.864ZM132.509 456.562C132.314 456.094 132.066 455.702 131.764 455.384C131.455 455.049 131.11 454.802 130.727 454.645C130.356 454.463 129.956 454.366 129.529 454.354C129.12 454.335 128.708 454.411 128.295 454.584C127.162 455.057 126.435 455.793 126.113 456.793C125.802 457.768 125.876 458.803 126.333 459.9C126.784 460.979 127.387 461.667 128.145 461.963C128.902 462.259 129.739 462.216 130.656 461.833C131.195 461.608 131.63 461.31 131.961 460.94C132.303 460.544 132.546 460.115 132.691 459.653C132.847 459.166 132.908 458.655 132.875 458.12C132.841 457.585 132.719 457.065 132.509 456.562ZM143.617 455.884L139.356 457.663L138.512 453.138L142.774 451.359L143.617 455.884ZM140.502 463.519L144.763 461.74L145.607 466.265L141.373 468.033L140.502 463.519ZM150.38 457.115C150.568 457.564 150.784 457.981 151.029 458.364C151.284 458.722 151.574 459.013 151.899 459.236C152.217 459.441 152.585 459.562 153.001 459.6C153.418 459.637 153.887 459.547 154.408 459.329C155.056 459.059 155.547 458.642 155.883 458.08C156.228 457.492 156.457 456.827 156.569 456.083C156.681 455.34 156.709 454.547 156.653 453.705C156.597 452.862 156.487 452.043 156.323 451.245C156.177 450.441 155.996 449.703 155.78 449.033C155.574 448.338 155.381 447.775 155.201 447.343C155.006 446.876 154.768 446.458 154.488 446.089C154.225 445.713 153.913 445.421 153.552 445.213C153.208 444.997 152.819 444.875 152.385 444.845C151.968 444.808 151.517 444.89 151.031 445.093C150.402 445.356 149.923 445.777 149.596 446.358C149.26 446.92 149.037 447.573 148.925 448.316C148.813 449.06 148.788 449.862 148.852 450.722C148.926 451.557 149.045 452.373 149.209 453.17C149.373 453.967 149.558 454.713 149.763 455.409C149.987 456.097 150.193 456.665 150.38 457.115ZM146.251 457.92C145.876 457.021 145.57 456.061 145.334 455.041C145.098 454.02 144.942 452.988 144.864 451.943C144.805 450.891 144.846 449.85 144.986 448.82C145.144 447.783 145.419 446.823 145.812 445.942C146.214 445.035 146.754 444.229 147.431 443.524C148.126 442.812 148.977 442.245 149.984 441.825C151.045 441.382 152.046 441.175 152.987 441.205C153.921 441.216 154.78 441.428 155.564 441.839C156.348 442.251 157.05 442.845 157.669 443.621C158.299 444.371 158.836 445.277 159.279 446.338C159.661 447.255 159.978 448.242 160.229 449.298C160.473 450.337 160.615 451.386 160.656 452.445C160.715 453.497 160.657 454.546 160.481 455.591C160.323 456.628 160.029 457.595 159.601 458.491C159.173 459.388 158.603 460.196 157.89 460.916C157.177 461.636 156.29 462.217 155.229 462.66C154.15 463.111 153.145 463.308 152.215 463.254C151.294 463.173 150.461 462.898 149.716 462.428C148.971 461.958 148.31 461.336 147.734 460.563C147.151 459.772 146.656 458.891 146.251 457.92ZM165.368 450.859C165.555 451.308 165.771 451.725 166.016 452.108C166.271 452.466 166.561 452.757 166.886 452.98C167.204 453.185 167.572 453.306 167.988 453.344C168.405 453.381 168.874 453.291 169.396 453.073C170.043 452.803 170.534 452.386 170.87 451.824C171.215 451.236 171.444 450.571 171.556 449.827C171.668 449.084 171.696 448.291 171.64 447.449C171.584 446.606 171.474 445.787 171.31 444.989C171.164 444.184 170.983 443.447 170.767 442.777C170.561 442.082 170.368 441.519 170.188 441.087C169.993 440.62 169.755 440.202 169.475 439.833C169.212 439.457 168.9 439.165 168.539 438.957C168.195 438.741 167.806 438.619 167.372 438.589C166.955 438.552 166.504 438.634 166.018 438.837C165.389 439.1 164.91 439.521 164.583 440.101C164.247 440.664 164.024 441.317 163.912 442.06C163.8 442.804 163.776 443.605 163.839 444.466C163.913 445.301 164.032 446.117 164.196 446.914C164.36 447.711 164.545 448.457 164.75 449.153C164.974 449.841 165.18 450.409 165.368 450.859ZM161.238 451.664C160.863 450.765 160.557 449.805 160.321 448.785C160.085 447.764 159.929 446.732 159.851 445.687C159.792 444.635 159.833 443.594 159.973 442.564C160.131 441.527 160.406 440.567 160.799 439.686C161.201 438.779 161.741 437.973 162.418 437.268C163.113 436.555 163.964 435.989 164.971 435.569C166.032 435.126 167.033 434.919 167.974 434.949C168.908 434.96 169.767 435.171 170.551 435.583C171.335 435.995 172.037 436.589 172.656 437.365C173.286 438.115 173.823 439.021 174.266 440.082C174.649 440.999 174.965 441.985 175.216 443.042C175.46 444.081 175.602 445.13 175.643 446.189C175.703 447.241 175.644 448.29 175.468 449.335C175.31 450.372 175.016 451.339 174.588 452.235C174.16 453.132 173.59 453.94 172.877 454.66C172.164 455.38 171.277 455.961 170.216 456.404C169.137 456.855 168.132 457.052 167.202 456.997C166.281 456.917 165.448 456.642 164.703 456.172C163.958 455.702 163.297 455.08 162.721 454.307C162.138 453.516 161.643 452.635 161.238 451.664ZM185.925 426.284L188.999 425L189.885 448.289L186.837 449.561L185.925 426.284ZM134.321 491.681C133.618 493.03 133.03 494.532 132.559 496.185C132.099 497.813 131.753 499.488 131.522 501.211C131.29 502.933 131.173 504.65 131.17 506.362C131.166 508.073 131.275 509.675 131.497 511.166L127.424 512.866C127.207 511.436 127.117 509.88 127.153 508.196C127.19 506.513 127.331 504.828 127.577 503.142C127.834 501.43 128.192 499.76 128.653 498.132C129.114 496.504 129.647 495.025 130.253 493.696L120.975 497.569L120.244 493.693L133.649 488.098L134.321 491.681ZM136.449 486.485L144.163 483.265C145.134 482.86 146.065 482.587 146.957 482.447C147.859 482.282 148.697 482.291 149.47 482.475C150.244 482.659 150.943 483.043 151.567 483.627C152.208 484.204 152.751 485.022 153.194 486.083C153.636 487.144 153.827 488.183 153.767 489.201C153.716 490.193 153.461 491.124 153 491.992C152.556 492.852 151.949 493.623 151.178 494.304C150.406 494.985 149.517 495.536 148.51 495.956L143.278 498.14L144.703 505.653L140.496 507.409L136.449 486.485ZM142.605 494.557L146.921 492.756C148 492.305 148.732 491.683 149.118 490.888C149.515 490.068 149.473 489.082 148.993 487.932C148.79 487.446 148.535 487.088 148.228 486.858C147.931 486.601 147.605 486.453 147.249 486.411C146.887 486.351 146.511 486.36 146.121 486.439C145.749 486.509 145.375 486.623 144.997 486.781L141.383 488.29L142.605 494.557ZM154.493 478.953L160.346 476.51L167.65 489.835L167.704 489.813L169.3 472.772L175.207 470.307L179.173 491.264L175.208 492.919L172.319 476.136L172.265 476.158L170.515 494.878L167.278 496.229L159.022 481.686L158.968 481.709L162.477 498.233L158.486 499.9L154.493 478.953Z" fill="white"/>
<path d="M828.133 180.713L824.06 182.413L821.538 169.087L816.926 171.012L816.342 167.867C817.028 167.538 817.654 167.193 818.221 166.829C818.797 166.441 819.29 166.003 819.699 165.516C820.118 165.003 820.446 164.422 820.683 163.775C820.937 163.12 821.081 162.352 821.115 161.472L824.244 160.166L828.133 180.713ZM835.742 171.804C836.06 172.516 836.525 172.997 837.137 173.249C837.766 173.493 838.432 173.468 839.133 173.175C839.87 172.868 840.434 172.421 840.823 171.837C841.212 171.252 841.483 170.611 841.636 169.914C841.78 169.199 841.84 168.456 841.814 167.686C841.806 166.908 841.773 166.172 841.716 165.478L841.639 165.447C841.447 166.35 841.049 167.118 840.447 167.75C839.837 168.363 839.128 168.839 838.319 169.176C837.474 169.529 836.644 169.717 835.831 169.74C835.035 169.755 834.289 169.613 833.593 169.312C832.898 169.011 832.269 168.566 831.706 167.978C831.154 167.364 830.694 166.616 830.326 165.735C829.906 164.728 829.692 163.709 829.684 162.678C829.686 161.621 829.876 160.634 830.253 159.716C830.64 158.773 831.196 157.929 831.919 157.184C832.661 156.431 833.544 155.841 834.569 155.413C835.774 154.91 836.881 154.68 837.891 154.723C838.894 154.748 839.808 154.989 840.632 155.447C841.457 155.905 842.181 156.553 842.805 157.39C843.448 158.22 844.001 159.193 844.467 160.308C845.157 161.962 845.6 163.603 845.794 165.233C845.981 166.844 845.895 168.358 845.536 169.774C845.195 171.183 844.581 172.443 843.693 173.552C842.815 174.637 841.648 175.483 840.192 176.091C839.365 176.436 838.55 176.66 837.748 176.762C836.964 176.857 836.226 176.807 835.531 176.611C834.83 176.397 834.178 176.025 833.577 175.495C832.994 174.957 832.493 174.237 832.074 173.335L835.742 171.804ZM840.209 160.501C840.013 160.034 839.765 159.641 839.464 159.324C839.155 158.988 838.809 158.742 838.427 158.585C838.055 158.402 837.655 158.305 837.228 158.293C836.819 158.274 836.408 158.351 835.994 158.523C834.861 158.996 834.134 159.733 833.812 160.733C833.501 161.707 833.575 162.743 834.033 163.84C834.483 164.918 835.087 165.606 835.844 165.902C836.601 166.199 837.438 166.155 838.355 165.772C838.894 165.547 839.33 165.249 839.661 164.879C840.002 164.483 840.245 164.054 840.39 163.593C840.546 163.105 840.607 162.594 840.574 162.059C840.54 161.524 840.419 161.005 840.209 160.501ZM851.317 159.823L847.055 161.602L846.211 157.077L850.473 155.298L851.317 159.823ZM848.201 167.458L852.462 165.679L853.306 170.205L849.072 171.972L848.201 167.458ZM858.08 161.054C858.267 161.504 858.483 161.92 858.728 162.304C858.983 162.662 859.273 162.952 859.599 163.176C859.916 163.381 860.284 163.502 860.7 163.539C861.117 163.576 861.586 163.486 862.108 163.268C862.755 162.998 863.246 162.582 863.582 162.02C863.928 161.432 864.156 160.766 864.268 160.023C864.38 159.279 864.408 158.486 864.352 157.644C864.296 156.802 864.186 155.982 864.022 155.185C863.877 154.38 863.695 153.643 863.479 152.973C863.273 152.278 863.08 151.714 862.9 151.283C862.705 150.815 862.467 150.397 862.187 150.029C861.924 149.652 861.612 149.36 861.251 149.152C860.908 148.937 860.519 148.814 860.084 148.784C859.667 148.747 859.216 148.83 858.731 149.033C858.101 149.295 857.623 149.717 857.295 150.297C856.959 150.859 856.736 151.512 856.624 152.256C856.512 152.999 856.488 153.801 856.551 154.661C856.625 155.496 856.744 156.312 856.908 157.109C857.072 157.907 857.257 158.653 857.463 159.348C857.686 160.036 857.892 160.605 858.08 161.054ZM853.95 161.86C853.575 160.961 853.269 160.001 853.033 158.98C852.797 157.96 852.641 156.927 852.564 155.882C852.505 154.83 852.545 153.789 852.685 152.76C852.843 151.722 853.119 150.763 853.511 149.881C853.913 148.974 854.453 148.168 855.13 147.463C855.825 146.751 856.676 146.185 857.683 145.764C858.744 145.321 859.745 145.115 860.686 145.144C861.62 145.155 862.479 145.367 863.263 145.779C864.047 146.19 864.749 146.784 865.369 147.56C865.999 148.311 866.535 149.216 866.978 150.277C867.361 151.194 867.678 152.181 867.929 153.237C868.172 154.276 868.314 155.325 868.356 156.385C868.415 157.437 868.356 158.485 868.18 159.53C868.022 160.567 867.729 161.534 867.301 162.431C866.872 163.327 866.302 164.136 865.589 164.856C864.876 165.576 863.989 166.157 862.928 166.6C861.849 167.05 860.845 167.248 859.914 167.193C858.993 167.113 858.161 166.837 857.415 166.367C856.67 165.897 856.01 165.276 855.433 164.503C854.85 163.712 854.356 162.831 853.95 161.86ZM873.067 154.798C873.254 155.248 873.47 155.664 873.715 156.048C873.97 156.406 874.26 156.696 874.586 156.92C874.904 157.125 875.271 157.246 875.688 157.283C876.104 157.32 876.573 157.23 877.095 157.012C877.742 156.742 878.233 156.326 878.569 155.764C878.915 155.176 879.144 154.51 879.255 153.767C879.367 153.023 879.395 152.23 879.339 151.388C879.283 150.546 879.173 149.726 879.009 148.929C878.864 148.124 878.682 147.387 878.466 146.717C878.26 146.021 878.067 145.458 877.887 145.027C877.692 144.559 877.454 144.141 877.174 143.772C876.911 143.396 876.599 143.104 876.238 142.896C875.895 142.681 875.506 142.558 875.071 142.528C874.654 142.491 874.203 142.574 873.718 142.776C873.088 143.039 872.61 143.461 872.282 144.041C871.946 144.603 871.723 145.256 871.611 146C871.499 146.743 871.475 147.545 871.538 148.405C871.612 149.24 871.731 150.056 871.895 150.853C872.059 151.651 872.244 152.397 872.45 153.092C872.673 153.78 872.879 154.349 873.067 154.798ZM868.937 155.604C868.562 154.704 868.256 153.745 868.02 152.724C867.784 151.704 867.628 150.671 867.551 149.626C867.492 148.574 867.532 147.533 867.672 146.503C867.831 145.466 868.106 144.507 868.498 143.625C868.9 142.718 869.44 141.912 870.117 141.207C870.812 140.495 871.663 139.929 872.67 139.508C873.731 139.065 874.732 138.859 875.673 138.888C876.607 138.899 877.466 139.111 878.25 139.523C879.034 139.934 879.736 140.528 880.356 141.304C880.986 142.055 881.522 142.96 881.965 144.021C882.348 144.938 882.665 145.925 882.916 146.981C883.159 148.02 883.301 149.069 883.343 150.129C883.402 151.181 883.343 152.229 883.167 153.274C883.009 154.311 882.716 155.278 882.288 156.175C881.86 157.071 881.289 157.88 880.576 158.6C879.863 159.319 878.976 159.901 877.915 160.344C876.836 160.794 875.832 160.992 874.901 160.937C873.98 160.857 873.148 160.581 872.402 160.111C871.657 159.641 870.997 159.019 870.421 158.246C869.837 157.455 869.343 156.574 868.937 155.604ZM893.624 130.223L896.699 128.94L897.584 152.228L894.536 153.501L893.624 130.223ZM842.02 195.62C841.317 196.97 840.729 198.471 840.258 200.125C839.798 201.753 839.452 203.428 839.221 205.15C838.99 206.872 838.872 208.589 838.869 210.301C838.866 212.013 838.974 213.614 839.196 215.105L835.123 216.805C834.906 215.376 834.816 213.819 834.852 212.136C834.889 210.453 835.03 208.768 835.276 207.082C835.533 205.37 835.892 203.7 836.352 202.072C836.813 200.444 837.346 198.965 837.952 197.635L828.674 201.508L827.943 197.633L841.348 192.037L842.02 195.62ZM844.148 190.425L851.862 187.205C852.833 186.799 853.764 186.527 854.656 186.387C855.558 186.221 856.396 186.231 857.17 186.414C857.943 186.598 858.642 186.982 859.266 187.566C859.908 188.143 860.45 188.962 860.893 190.023C861.336 191.084 861.527 192.123 861.466 193.141C861.416 194.133 861.16 195.063 860.699 195.931C860.256 196.792 859.648 197.563 858.877 198.243C858.106 198.924 857.216 199.475 856.209 199.895L850.977 202.08L852.403 209.592L848.195 211.349L844.148 190.425ZM850.305 198.496L854.62 196.695C855.699 196.245 856.431 195.622 856.818 194.828C857.214 194.007 857.172 193.022 856.692 191.871C856.489 191.386 856.234 191.028 855.927 190.797C855.63 190.541 855.304 190.392 854.949 190.35C854.586 190.291 854.21 190.3 853.82 190.378C853.448 190.449 853.074 190.563 852.696 190.72L849.082 192.229L850.305 198.496ZM862.192 182.893L868.045 180.45L875.349 193.775L875.403 193.752L876.999 176.712L882.906 174.246L886.872 195.204L882.907 196.859L880.019 180.075L879.965 180.098L878.214 198.818L874.978 200.169L866.722 185.626L866.668 185.648L870.177 202.173L866.185 203.839L862.192 182.893Z" fill="white"/>
</svg>
